G75*
G70*
%OFA0B0*%
%FSLAX24Y24*%
%IPPOS*%
%LPD*%
%AMOC8*
5,1,8,0,0,1.08239X$1,22.5*
%
%ADD10C,0.0611*%
%ADD11C,0.0600*%
%ADD12OC8,0.0600*%
%ADD13OC8,0.0680*%
%ADD14C,0.0640*%
%ADD15C,0.1182*%
%ADD16C,0.0480*%
D10*
X007180Y009243D03*
X006047Y009522D03*
X008313Y009522D03*
X009186Y010296D03*
X009599Y011386D03*
X005174Y010296D03*
X004761Y011386D03*
X004901Y012544D03*
X005564Y013504D03*
X006597Y014046D03*
X007763Y014046D03*
X008796Y013504D03*
X009459Y012544D03*
X017761Y011386D03*
X018174Y010296D03*
X019047Y009522D03*
X020180Y009243D03*
X021313Y009522D03*
X022186Y010296D03*
X022599Y011386D03*
X022459Y012544D03*
X021796Y013504D03*
X020763Y014046D03*
X019597Y014046D03*
X018564Y013504D03*
X017901Y012544D03*
X033761Y011386D03*
X034174Y010296D03*
X035047Y009522D03*
X036180Y009243D03*
X037313Y009522D03*
X038186Y010296D03*
X038599Y011386D03*
X038459Y012544D03*
X037796Y013504D03*
X036763Y014046D03*
X035597Y014046D03*
X034564Y013504D03*
X033901Y012544D03*
X046761Y011386D03*
X047174Y010296D03*
X048047Y009522D03*
X049180Y009243D03*
X050313Y009522D03*
X051186Y010296D03*
X051599Y011386D03*
X051459Y012544D03*
X050796Y013504D03*
X049763Y014046D03*
X048597Y014046D03*
X047564Y013504D03*
X046901Y012544D03*
X062761Y011386D03*
X063174Y010296D03*
X064047Y009522D03*
X065180Y009243D03*
X066313Y009522D03*
X067186Y010296D03*
X067599Y011386D03*
X067459Y012544D03*
X066796Y013504D03*
X065763Y014046D03*
X064597Y014046D03*
X063564Y013504D03*
X062901Y012544D03*
X075761Y011386D03*
X076174Y010296D03*
X077047Y009522D03*
X078180Y009243D03*
X079313Y009522D03*
X080186Y010296D03*
X080599Y011386D03*
X080459Y012544D03*
X079796Y013504D03*
X078763Y014046D03*
X077597Y014046D03*
X076564Y013504D03*
X075901Y012544D03*
D11*
X075680Y007440D02*
X075680Y006920D01*
X074680Y006920D02*
X074680Y007440D01*
X076680Y007440D02*
X076680Y006920D01*
X077680Y006920D02*
X077680Y007440D01*
X078680Y007440D02*
X078680Y006920D01*
X079680Y006920D02*
X079680Y007440D01*
X080680Y007440D02*
X080680Y006920D01*
X081680Y006920D02*
X081680Y007440D01*
X081680Y004440D02*
X081680Y003920D01*
X080680Y003920D02*
X080680Y004440D01*
X079680Y004440D02*
X079680Y003920D01*
X078680Y003920D02*
X078680Y004440D01*
X077680Y004440D02*
X077680Y003920D01*
X076680Y003920D02*
X076680Y004440D01*
X075680Y004440D02*
X075680Y003920D01*
X074680Y003920D02*
X074680Y004440D01*
X068680Y004440D02*
X068680Y003920D01*
X067680Y003920D02*
X067680Y004440D01*
X066680Y004440D02*
X066680Y003920D01*
X065680Y003920D02*
X065680Y004440D01*
X064680Y004440D02*
X064680Y003920D01*
X063680Y003920D02*
X063680Y004440D01*
X062680Y004440D02*
X062680Y003920D01*
X061680Y003920D02*
X061680Y004440D01*
X061680Y006920D02*
X061680Y007440D01*
X062680Y007440D02*
X062680Y006920D01*
X063680Y006920D02*
X063680Y007440D01*
X064680Y007440D02*
X064680Y006920D01*
X065680Y006920D02*
X065680Y007440D01*
X066680Y007440D02*
X066680Y006920D01*
X067680Y006920D02*
X067680Y007440D01*
X068680Y007440D02*
X068680Y006920D01*
X052680Y006920D02*
X052680Y007440D01*
X051680Y007440D02*
X051680Y006920D01*
X050680Y006920D02*
X050680Y007440D01*
X049680Y007440D02*
X049680Y006920D01*
X048680Y006920D02*
X048680Y007440D01*
X047680Y007440D02*
X047680Y006920D01*
X046680Y006920D02*
X046680Y007440D01*
X045680Y007440D02*
X045680Y006920D01*
X039680Y006920D02*
X039680Y007440D01*
X038680Y007440D02*
X038680Y006920D01*
X037680Y006920D02*
X037680Y007440D01*
X036680Y007440D02*
X036680Y006920D01*
X035680Y006920D02*
X035680Y007440D01*
X034680Y007440D02*
X034680Y006920D01*
X033680Y006920D02*
X033680Y007440D01*
X032680Y007440D02*
X032680Y006920D01*
X032680Y004440D02*
X032680Y003920D01*
X033680Y003920D02*
X033680Y004440D01*
X034680Y004440D02*
X034680Y003920D01*
X035680Y003920D02*
X035680Y004440D01*
X036680Y004440D02*
X036680Y003920D01*
X037680Y003920D02*
X037680Y004440D01*
X038680Y004440D02*
X038680Y003920D01*
X039680Y003920D02*
X039680Y004440D01*
X045680Y004440D02*
X045680Y003920D01*
X046680Y003920D02*
X046680Y004440D01*
X047680Y004440D02*
X047680Y003920D01*
X048680Y003920D02*
X048680Y004440D01*
X049680Y004440D02*
X049680Y003920D01*
X050680Y003920D02*
X050680Y004440D01*
X051680Y004440D02*
X051680Y003920D01*
X052680Y003920D02*
X052680Y004440D01*
X023680Y004440D02*
X023680Y003920D01*
X022680Y003920D02*
X022680Y004440D01*
X021680Y004440D02*
X021680Y003920D01*
X020680Y003920D02*
X020680Y004440D01*
X019680Y004440D02*
X019680Y003920D01*
X018680Y003920D02*
X018680Y004440D01*
X017680Y004440D02*
X017680Y003920D01*
X016680Y003920D02*
X016680Y004440D01*
X010680Y004440D02*
X010680Y003920D01*
X009680Y003920D02*
X009680Y004440D01*
X008680Y004440D02*
X008680Y003920D01*
X007680Y003920D02*
X007680Y004440D01*
X006680Y004440D02*
X006680Y003920D01*
X005680Y003920D02*
X005680Y004440D01*
X004680Y004440D02*
X004680Y003920D01*
X003680Y003920D02*
X003680Y004440D01*
X003680Y006920D02*
X003680Y007440D01*
X004680Y007440D02*
X004680Y006920D01*
X005680Y006920D02*
X005680Y007440D01*
X006680Y007440D02*
X006680Y006920D01*
X007680Y006920D02*
X007680Y007440D01*
X008680Y007440D02*
X008680Y006920D01*
X009680Y006920D02*
X009680Y007440D01*
X010680Y007440D02*
X010680Y006920D01*
X016680Y006920D02*
X016680Y007440D01*
X017680Y007440D02*
X017680Y006920D01*
X018680Y006920D02*
X018680Y007440D01*
X019680Y007440D02*
X019680Y006920D01*
X020680Y006920D02*
X020680Y007440D01*
X021680Y007440D02*
X021680Y006920D01*
X022680Y006920D02*
X022680Y007440D01*
X023680Y007440D02*
X023680Y006920D01*
X009200Y018180D02*
X008680Y018180D01*
X011180Y018420D02*
X011180Y018940D01*
X012180Y018940D02*
X012180Y018420D01*
X013180Y018420D02*
X013180Y018940D01*
X014180Y018940D02*
X014180Y018420D01*
X015180Y018420D02*
X015180Y018940D01*
X016180Y018940D02*
X016180Y018420D01*
X017180Y018420D02*
X017180Y018940D01*
X018180Y018940D02*
X018180Y018420D01*
X009200Y019180D02*
X008680Y019180D01*
X005680Y019180D02*
X005160Y019180D01*
X005160Y018180D02*
X005680Y018180D01*
X005680Y020180D02*
X005160Y020180D01*
X008680Y020180D02*
X009200Y020180D01*
D12*
X011180Y020180D03*
X015180Y020180D03*
X012180Y014680D03*
X011180Y014680D03*
X024180Y014680D03*
X025180Y014680D03*
X040180Y014680D03*
X041180Y014680D03*
X053180Y014680D03*
X054180Y014680D03*
X069180Y014680D03*
X070180Y014680D03*
X082180Y014680D03*
X083180Y014680D03*
X077680Y020180D03*
X073680Y020180D03*
X073180Y006680D03*
X073180Y004680D03*
X060180Y004680D03*
X060180Y006680D03*
X044180Y006680D03*
X044180Y004680D03*
X031180Y004680D03*
X031180Y006680D03*
X015180Y006680D03*
X015180Y004680D03*
X002180Y004680D03*
X002180Y006680D03*
D13*
X040680Y019180D03*
X041680Y019180D03*
X042680Y019180D03*
X043680Y019180D03*
X044680Y019180D03*
X045680Y019180D03*
X046680Y019180D03*
X047680Y019180D03*
X048680Y019180D03*
X049680Y019180D03*
X050680Y019180D03*
X051680Y019180D03*
X052680Y019180D03*
X053680Y019180D03*
X054680Y019180D03*
X055680Y019180D03*
X056680Y019180D03*
X057680Y019180D03*
X058680Y019180D03*
X059680Y019180D03*
X059680Y020180D03*
X058680Y020180D03*
X057680Y020180D03*
X056680Y020180D03*
X055680Y020180D03*
X054680Y020180D03*
X053680Y020180D03*
X052680Y020180D03*
X051680Y020180D03*
X050680Y020180D03*
X049680Y020180D03*
X048680Y020180D03*
X047680Y020180D03*
X046680Y020180D03*
X045680Y020180D03*
X044680Y020180D03*
X043680Y020180D03*
X042680Y020180D03*
X041680Y020180D03*
X040680Y020180D03*
D14*
X071400Y020180D02*
X071960Y020180D01*
X071960Y019180D02*
X071400Y019180D01*
D15*
X002430Y002430D03*
X002430Y019930D03*
X082930Y019930D03*
X082930Y002430D03*
D16*
X073430Y003430D03*
X060430Y003430D03*
X057180Y005180D03*
X047680Y002430D03*
X050680Y001930D03*
X037680Y001930D03*
X034680Y002430D03*
X021680Y001930D03*
X018680Y002430D03*
X008680Y001930D03*
X005680Y002430D03*
X060180Y015680D03*
X060180Y016430D03*
M02*
