G75*
G70*
%OFA0B0*%
%FSLAX24Y24*%
%IPPOS*%
%LPD*%
%AMOC8*
5,1,8,0,0,1.08239X$1,22.5*
%
%ADD10C,0.0531*%
%ADD11C,0.0520*%
%ADD12OC8,0.0520*%
%ADD13OC8,0.0600*%
%ADD14C,0.0560*%
%ADD15C,0.0100*%
%ADD16C,0.0240*%
%ADD17C,0.0160*%
%ADD18C,0.0400*%
D10*
X007180Y009243D03*
X006047Y009522D03*
X008313Y009522D03*
X009186Y010296D03*
X009599Y011386D03*
X005174Y010296D03*
X004761Y011386D03*
X004901Y012544D03*
X005564Y013504D03*
X006597Y014046D03*
X007763Y014046D03*
X008796Y013504D03*
X009459Y012544D03*
X017761Y011386D03*
X018174Y010296D03*
X019047Y009522D03*
X020180Y009243D03*
X021313Y009522D03*
X022186Y010296D03*
X022599Y011386D03*
X022459Y012544D03*
X021796Y013504D03*
X020763Y014046D03*
X019597Y014046D03*
X018564Y013504D03*
X017901Y012544D03*
X033761Y011386D03*
X034174Y010296D03*
X035047Y009522D03*
X036180Y009243D03*
X037313Y009522D03*
X038186Y010296D03*
X038599Y011386D03*
X038459Y012544D03*
X037796Y013504D03*
X036763Y014046D03*
X035597Y014046D03*
X034564Y013504D03*
X033901Y012544D03*
X046761Y011386D03*
X047174Y010296D03*
X048047Y009522D03*
X049180Y009243D03*
X050313Y009522D03*
X051186Y010296D03*
X051599Y011386D03*
X051459Y012544D03*
X050796Y013504D03*
X049763Y014046D03*
X048597Y014046D03*
X047564Y013504D03*
X046901Y012544D03*
X062761Y011386D03*
X063174Y010296D03*
X064047Y009522D03*
X065180Y009243D03*
X066313Y009522D03*
X067186Y010296D03*
X067599Y011386D03*
X067459Y012544D03*
X066796Y013504D03*
X065763Y014046D03*
X064597Y014046D03*
X063564Y013504D03*
X062901Y012544D03*
X075761Y011386D03*
X076174Y010296D03*
X077047Y009522D03*
X078180Y009243D03*
X079313Y009522D03*
X080186Y010296D03*
X080599Y011386D03*
X080459Y012544D03*
X079796Y013504D03*
X078763Y014046D03*
X077597Y014046D03*
X076564Y013504D03*
X075901Y012544D03*
D11*
X075680Y007440D02*
X075680Y006920D01*
X074680Y006920D02*
X074680Y007440D01*
X076680Y007440D02*
X076680Y006920D01*
X077680Y006920D02*
X077680Y007440D01*
X078680Y007440D02*
X078680Y006920D01*
X079680Y006920D02*
X079680Y007440D01*
X080680Y007440D02*
X080680Y006920D01*
X081680Y006920D02*
X081680Y007440D01*
X081680Y004440D02*
X081680Y003920D01*
X080680Y003920D02*
X080680Y004440D01*
X079680Y004440D02*
X079680Y003920D01*
X078680Y003920D02*
X078680Y004440D01*
X077680Y004440D02*
X077680Y003920D01*
X076680Y003920D02*
X076680Y004440D01*
X075680Y004440D02*
X075680Y003920D01*
X074680Y003920D02*
X074680Y004440D01*
X068680Y004440D02*
X068680Y003920D01*
X067680Y003920D02*
X067680Y004440D01*
X066680Y004440D02*
X066680Y003920D01*
X065680Y003920D02*
X065680Y004440D01*
X064680Y004440D02*
X064680Y003920D01*
X063680Y003920D02*
X063680Y004440D01*
X062680Y004440D02*
X062680Y003920D01*
X061680Y003920D02*
X061680Y004440D01*
X061680Y006920D02*
X061680Y007440D01*
X062680Y007440D02*
X062680Y006920D01*
X063680Y006920D02*
X063680Y007440D01*
X064680Y007440D02*
X064680Y006920D01*
X065680Y006920D02*
X065680Y007440D01*
X066680Y007440D02*
X066680Y006920D01*
X067680Y006920D02*
X067680Y007440D01*
X068680Y007440D02*
X068680Y006920D01*
X052680Y006920D02*
X052680Y007440D01*
X051680Y007440D02*
X051680Y006920D01*
X050680Y006920D02*
X050680Y007440D01*
X049680Y007440D02*
X049680Y006920D01*
X048680Y006920D02*
X048680Y007440D01*
X047680Y007440D02*
X047680Y006920D01*
X046680Y006920D02*
X046680Y007440D01*
X045680Y007440D02*
X045680Y006920D01*
X039680Y006920D02*
X039680Y007440D01*
X038680Y007440D02*
X038680Y006920D01*
X037680Y006920D02*
X037680Y007440D01*
X036680Y007440D02*
X036680Y006920D01*
X035680Y006920D02*
X035680Y007440D01*
X034680Y007440D02*
X034680Y006920D01*
X033680Y006920D02*
X033680Y007440D01*
X032680Y007440D02*
X032680Y006920D01*
X032680Y004440D02*
X032680Y003920D01*
X033680Y003920D02*
X033680Y004440D01*
X034680Y004440D02*
X034680Y003920D01*
X035680Y003920D02*
X035680Y004440D01*
X036680Y004440D02*
X036680Y003920D01*
X037680Y003920D02*
X037680Y004440D01*
X038680Y004440D02*
X038680Y003920D01*
X039680Y003920D02*
X039680Y004440D01*
X045680Y004440D02*
X045680Y003920D01*
X046680Y003920D02*
X046680Y004440D01*
X047680Y004440D02*
X047680Y003920D01*
X048680Y003920D02*
X048680Y004440D01*
X049680Y004440D02*
X049680Y003920D01*
X050680Y003920D02*
X050680Y004440D01*
X051680Y004440D02*
X051680Y003920D01*
X052680Y003920D02*
X052680Y004440D01*
X023680Y004440D02*
X023680Y003920D01*
X022680Y003920D02*
X022680Y004440D01*
X021680Y004440D02*
X021680Y003920D01*
X020680Y003920D02*
X020680Y004440D01*
X019680Y004440D02*
X019680Y003920D01*
X018680Y003920D02*
X018680Y004440D01*
X017680Y004440D02*
X017680Y003920D01*
X016680Y003920D02*
X016680Y004440D01*
X010680Y004440D02*
X010680Y003920D01*
X009680Y003920D02*
X009680Y004440D01*
X008680Y004440D02*
X008680Y003920D01*
X007680Y003920D02*
X007680Y004440D01*
X006680Y004440D02*
X006680Y003920D01*
X005680Y003920D02*
X005680Y004440D01*
X004680Y004440D02*
X004680Y003920D01*
X003680Y003920D02*
X003680Y004440D01*
X003680Y006920D02*
X003680Y007440D01*
X004680Y007440D02*
X004680Y006920D01*
X005680Y006920D02*
X005680Y007440D01*
X006680Y007440D02*
X006680Y006920D01*
X007680Y006920D02*
X007680Y007440D01*
X008680Y007440D02*
X008680Y006920D01*
X009680Y006920D02*
X009680Y007440D01*
X010680Y007440D02*
X010680Y006920D01*
X016680Y006920D02*
X016680Y007440D01*
X017680Y007440D02*
X017680Y006920D01*
X018680Y006920D02*
X018680Y007440D01*
X019680Y007440D02*
X019680Y006920D01*
X020680Y006920D02*
X020680Y007440D01*
X021680Y007440D02*
X021680Y006920D01*
X022680Y006920D02*
X022680Y007440D01*
X023680Y007440D02*
X023680Y006920D01*
X009200Y018180D02*
X008680Y018180D01*
X011180Y018420D02*
X011180Y018940D01*
X012180Y018940D02*
X012180Y018420D01*
X013180Y018420D02*
X013180Y018940D01*
X014180Y018940D02*
X014180Y018420D01*
X015180Y018420D02*
X015180Y018940D01*
X016180Y018940D02*
X016180Y018420D01*
X017180Y018420D02*
X017180Y018940D01*
X018180Y018940D02*
X018180Y018420D01*
X009200Y019180D02*
X008680Y019180D01*
X005680Y019180D02*
X005160Y019180D01*
X005160Y018180D02*
X005680Y018180D01*
X005680Y020180D02*
X005160Y020180D01*
X008680Y020180D02*
X009200Y020180D01*
D12*
X011180Y020180D03*
X015180Y020180D03*
X012180Y014680D03*
X011180Y014680D03*
X024180Y014680D03*
X025180Y014680D03*
X040180Y014680D03*
X041180Y014680D03*
X053180Y014680D03*
X054180Y014680D03*
X069180Y014680D03*
X070180Y014680D03*
X082180Y014680D03*
X083180Y014680D03*
X077680Y020180D03*
X073680Y020180D03*
X073180Y006680D03*
X073180Y004680D03*
X060180Y004680D03*
X060180Y006680D03*
X044180Y006680D03*
X044180Y004680D03*
X031180Y004680D03*
X031180Y006680D03*
X015180Y006680D03*
X015180Y004680D03*
X002180Y004680D03*
X002180Y006680D03*
D13*
X040680Y019180D03*
X041680Y019180D03*
X042680Y019180D03*
X043680Y019180D03*
X044680Y019180D03*
X045680Y019180D03*
X046680Y019180D03*
X047680Y019180D03*
X048680Y019180D03*
X049680Y019180D03*
X050680Y019180D03*
X051680Y019180D03*
X052680Y019180D03*
X053680Y019180D03*
X054680Y019180D03*
X055680Y019180D03*
X056680Y019180D03*
X057680Y019180D03*
X058680Y019180D03*
X059680Y019180D03*
X059680Y020180D03*
X058680Y020180D03*
X057680Y020180D03*
X056680Y020180D03*
X055680Y020180D03*
X054680Y020180D03*
X053680Y020180D03*
X052680Y020180D03*
X051680Y020180D03*
X050680Y020180D03*
X049680Y020180D03*
X048680Y020180D03*
X047680Y020180D03*
X046680Y020180D03*
X045680Y020180D03*
X044680Y020180D03*
X043680Y020180D03*
X042680Y020180D03*
X041680Y020180D03*
X040680Y020180D03*
D14*
X071400Y020180D02*
X071960Y020180D01*
X071960Y019180D02*
X071400Y019180D01*
D15*
X071680Y019180D02*
X071180Y019680D01*
X043680Y019680D01*
X044680Y019180D02*
X044680Y018930D01*
X044430Y018680D01*
X019430Y018680D01*
X018430Y017680D01*
X012930Y017680D01*
X012680Y017430D01*
X012680Y003430D01*
X012430Y003180D01*
X007930Y003180D01*
X007680Y003430D01*
X007680Y004180D01*
X009680Y004180D02*
X009680Y004930D01*
X011180Y006430D01*
X011180Y010680D01*
X010474Y011386D01*
X009599Y011386D01*
X010316Y012544D02*
X011430Y011430D01*
X011430Y006180D01*
X010680Y005430D01*
X010680Y004180D01*
X012680Y002930D02*
X012930Y003180D01*
X012930Y017180D01*
X013180Y017430D01*
X018680Y017430D01*
X019680Y018430D01*
X045430Y018430D01*
X045680Y018680D01*
X045680Y019180D01*
X046680Y019180D02*
X046680Y018430D01*
X046430Y018180D01*
X019930Y018180D01*
X018930Y017180D01*
X013430Y017180D01*
X013180Y016930D01*
X013180Y002930D01*
X012930Y002680D01*
X012680Y002430D01*
X005680Y002430D01*
X004930Y002930D02*
X004680Y003180D01*
X004680Y004180D01*
X003680Y004180D02*
X003180Y004680D01*
X003180Y011930D01*
X004430Y013180D01*
X004930Y013180D01*
X005180Y013180D01*
X005430Y012930D01*
X005430Y011680D01*
X005180Y011430D01*
X004805Y011430D01*
X004761Y011386D01*
X003680Y011680D02*
X003680Y007180D01*
X004680Y007180D02*
X004680Y006430D01*
X004930Y006180D01*
X008930Y006180D01*
X009180Y006430D01*
X009180Y009430D01*
X008930Y009680D01*
X008180Y010430D01*
X008180Y013180D01*
X008504Y013504D01*
X008796Y013504D01*
X008430Y013930D02*
X007930Y013430D01*
X007680Y013180D01*
X007680Y007180D01*
X008680Y007180D02*
X008680Y006680D01*
X008430Y006430D01*
X007430Y006430D01*
X007180Y006680D01*
X007180Y007930D01*
X006597Y008513D01*
X006597Y014046D01*
X006180Y013680D02*
X006180Y010430D01*
X005430Y009680D01*
X005430Y009180D01*
X005680Y008930D01*
X005680Y007180D01*
X004430Y005930D02*
X004180Y006180D01*
X004180Y009680D01*
X004680Y010180D01*
X004796Y010296D01*
X005174Y010296D01*
X009186Y010296D02*
X010180Y009301D01*
X010180Y007680D01*
X010680Y007180D01*
X009680Y007180D02*
X009680Y006180D01*
X009430Y005930D01*
X004430Y005930D01*
X004930Y002930D02*
X012680Y002930D01*
X013430Y002430D02*
X013180Y002180D01*
X012930Y001930D01*
X008680Y001930D01*
X013430Y002430D02*
X013430Y016680D01*
X013680Y016930D01*
X019180Y016930D01*
X020180Y017930D01*
X047430Y017930D01*
X047680Y018180D01*
X047680Y019180D01*
X048680Y019180D02*
X048680Y017930D01*
X048430Y017680D01*
X025930Y017680D01*
X025680Y017430D01*
X025680Y003430D01*
X025430Y003180D01*
X020930Y003180D01*
X020680Y003430D01*
X020680Y004180D01*
X022680Y004180D02*
X022680Y004930D01*
X024180Y006430D01*
X024180Y010680D01*
X023474Y011386D01*
X022599Y011386D01*
X023316Y012544D02*
X024430Y011430D01*
X024430Y006180D01*
X023680Y005430D01*
X023680Y004180D01*
X025680Y002930D02*
X025930Y003180D01*
X025930Y017180D01*
X026180Y017430D01*
X049430Y017430D01*
X049680Y017680D01*
X049680Y019180D01*
X050680Y019180D02*
X050680Y017430D01*
X050430Y017180D01*
X026430Y017180D01*
X026180Y016930D01*
X026180Y002930D01*
X025680Y002430D01*
X018680Y002430D01*
X017930Y002930D02*
X017680Y003180D01*
X017680Y004180D01*
X016680Y004180D02*
X016180Y004680D01*
X016180Y011930D01*
X017430Y013180D01*
X018180Y013180D01*
X018430Y012930D01*
X018430Y011680D01*
X018180Y011430D01*
X017805Y011430D01*
X017761Y011386D01*
X016680Y011680D02*
X016680Y007180D01*
X017680Y007180D02*
X017680Y006430D01*
X017930Y006180D01*
X021930Y006180D01*
X022180Y006430D01*
X022180Y009430D01*
X021180Y010430D01*
X021180Y013180D01*
X021504Y013504D01*
X021796Y013504D01*
X021430Y013930D02*
X020680Y013180D01*
X020680Y007180D01*
X021680Y007180D02*
X021680Y006680D01*
X021430Y006430D01*
X020430Y006430D01*
X020180Y006680D01*
X020180Y007930D01*
X019597Y008513D01*
X019597Y014046D01*
X019180Y013680D02*
X018930Y013930D01*
X018930Y014180D01*
X019430Y014680D01*
X020180Y014680D01*
X020763Y014097D01*
X020763Y014046D01*
X021430Y013930D02*
X021430Y014180D01*
X020680Y014930D01*
X019180Y014930D01*
X018564Y014314D01*
X018564Y013504D01*
X019180Y013680D02*
X019180Y010430D01*
X018430Y009680D01*
X018430Y009180D01*
X018680Y008930D01*
X018680Y007180D01*
X017430Y005930D02*
X017180Y006180D01*
X017180Y009680D01*
X017796Y010296D01*
X018174Y010296D01*
X022186Y010296D02*
X023180Y009301D01*
X023180Y007680D01*
X023680Y007180D01*
X022680Y007180D02*
X022680Y006180D01*
X022430Y005930D01*
X017430Y005930D01*
X017930Y002930D02*
X025680Y002930D01*
X026430Y002430D02*
X025930Y001930D01*
X021680Y001930D01*
X026430Y002430D02*
X026430Y016680D01*
X026680Y016930D01*
X051430Y016930D01*
X051680Y017180D01*
X051680Y019180D01*
X052680Y019180D02*
X052680Y016930D01*
X052430Y016680D01*
X041930Y016680D01*
X041680Y016430D01*
X041680Y003430D01*
X041430Y003180D01*
X036930Y003180D01*
X036680Y003430D01*
X036680Y004180D01*
X038680Y004180D02*
X038680Y004930D01*
X040180Y006430D01*
X040180Y010680D01*
X039474Y011386D01*
X038599Y011386D01*
X039316Y012544D02*
X040430Y011430D01*
X040430Y006180D01*
X039680Y005430D01*
X039680Y004180D01*
X041680Y002930D02*
X041930Y003180D01*
X041930Y016180D01*
X042180Y016430D01*
X053430Y016430D01*
X053680Y016680D01*
X053680Y019180D01*
X054680Y019180D02*
X054680Y016430D01*
X054430Y016180D01*
X042430Y016180D01*
X042180Y015930D01*
X042180Y002930D01*
X041680Y002430D01*
X034680Y002430D01*
X033930Y002930D02*
X033680Y003180D01*
X033680Y004180D01*
X032680Y004180D02*
X032180Y004680D01*
X032180Y011930D01*
X033430Y013180D01*
X034180Y013180D01*
X034430Y012930D01*
X034430Y011680D01*
X034180Y011430D01*
X033805Y011430D01*
X033761Y011386D01*
X032680Y011680D02*
X032680Y007180D01*
X033680Y007180D02*
X033680Y006430D01*
X033930Y006180D01*
X037930Y006180D01*
X038180Y006430D01*
X038180Y009430D01*
X037180Y010430D01*
X037180Y013180D01*
X037504Y013504D01*
X037796Y013504D01*
X037430Y013930D02*
X036680Y013180D01*
X036680Y007180D01*
X037680Y007180D02*
X037680Y006680D01*
X037430Y006430D01*
X036430Y006430D01*
X036180Y006680D01*
X036180Y007930D01*
X035597Y008513D01*
X035597Y014046D01*
X035180Y013680D02*
X035180Y010430D01*
X034430Y009680D01*
X034430Y009180D01*
X034680Y008930D01*
X034680Y007180D01*
X033430Y005930D02*
X033180Y006180D01*
X033180Y009680D01*
X033796Y010296D01*
X034174Y010296D01*
X038186Y010296D02*
X039180Y009301D01*
X039180Y007680D01*
X039680Y007180D01*
X038680Y007180D02*
X038680Y006180D01*
X038430Y005930D01*
X033430Y005930D01*
X033930Y002930D02*
X041680Y002930D01*
X042430Y002430D02*
X041930Y001930D01*
X037680Y001930D01*
X042430Y002430D02*
X042430Y015680D01*
X042680Y015930D01*
X055430Y015930D01*
X055680Y016180D01*
X055680Y019180D01*
X056680Y019180D02*
X056680Y015930D01*
X056430Y015680D01*
X054930Y015680D01*
X054680Y015430D01*
X054680Y003430D01*
X054430Y003180D01*
X049930Y003180D01*
X049680Y003430D01*
X049680Y004180D01*
X051680Y004180D02*
X051680Y004930D01*
X053180Y006430D01*
X053180Y010680D01*
X052474Y011386D01*
X051599Y011386D01*
X052316Y012544D02*
X053430Y011430D01*
X053430Y006180D01*
X052680Y005430D01*
X052680Y004180D01*
X054680Y002930D02*
X054930Y003180D01*
X054930Y015180D01*
X055180Y015430D01*
X057430Y015430D01*
X057680Y015680D01*
X057680Y019180D01*
X058680Y019180D02*
X058680Y015430D01*
X058430Y015180D01*
X055430Y015180D01*
X055180Y014930D01*
X055180Y002930D01*
X054680Y002430D01*
X047680Y002430D01*
X046930Y002930D02*
X046680Y003180D01*
X046680Y004180D01*
X045680Y004180D02*
X045180Y004680D01*
X045180Y011930D01*
X046430Y013180D01*
X047180Y013180D01*
X047430Y012930D01*
X047430Y011680D01*
X047180Y011430D01*
X046805Y011430D01*
X046761Y011386D01*
X045680Y011680D02*
X045680Y007180D01*
X046680Y007180D02*
X046680Y006430D01*
X046930Y006180D01*
X050930Y006180D01*
X051180Y006430D01*
X051180Y009430D01*
X050180Y010430D01*
X050180Y013180D01*
X050504Y013504D01*
X050796Y013504D01*
X050430Y013930D02*
X049680Y013180D01*
X049680Y007180D01*
X050680Y007180D02*
X050680Y006680D01*
X050430Y006430D01*
X049430Y006430D01*
X049180Y006680D01*
X049180Y007930D01*
X048597Y008513D01*
X048597Y014046D01*
X048180Y013680D02*
X047930Y013930D01*
X047930Y014180D01*
X048430Y014680D01*
X049180Y014680D01*
X049763Y014097D01*
X049763Y014046D01*
X050430Y013930D02*
X050430Y014180D01*
X049680Y014930D01*
X048180Y014930D01*
X047564Y014314D01*
X047564Y013504D01*
X048180Y013680D02*
X048180Y010430D01*
X047430Y009680D01*
X047430Y009180D01*
X047680Y008930D01*
X047680Y007180D01*
X046430Y005930D02*
X046180Y006180D01*
X046180Y009680D01*
X046796Y010296D01*
X047174Y010296D01*
X051186Y010296D02*
X052180Y009301D01*
X052180Y007680D01*
X052680Y007180D01*
X051680Y007180D02*
X051680Y006180D01*
X051430Y005930D01*
X046430Y005930D01*
X046930Y002930D02*
X054680Y002930D01*
X055430Y002430D02*
X055180Y002180D01*
X054930Y001930D01*
X050680Y001930D01*
X055430Y002430D02*
X055430Y014680D01*
X055680Y014930D01*
X059430Y014930D01*
X059680Y015180D01*
X059680Y019180D01*
X051180Y020680D02*
X050680Y020180D01*
X051180Y020680D02*
X071180Y020680D01*
X071680Y020180D01*
X073680Y020180D01*
X080430Y016430D02*
X060180Y016430D01*
X060180Y015680D02*
X068180Y015680D01*
X069180Y014680D01*
X066430Y014180D02*
X066430Y013930D01*
X065680Y013180D01*
X065680Y007180D01*
X066680Y007180D02*
X066680Y006680D01*
X066430Y006430D01*
X065430Y006430D01*
X065180Y006680D01*
X065180Y007930D01*
X064597Y008513D01*
X064597Y014046D01*
X064180Y013680D02*
X064180Y010430D01*
X063430Y009680D01*
X063430Y009180D01*
X063680Y008930D01*
X063680Y007180D01*
X062680Y007180D02*
X062680Y006430D01*
X062930Y006180D01*
X066930Y006180D01*
X067180Y006430D01*
X067180Y009430D01*
X066180Y010430D01*
X066180Y013180D01*
X066504Y013504D01*
X066796Y013504D01*
X065763Y014046D02*
X065763Y014097D01*
X065180Y014680D01*
X064430Y014680D01*
X063930Y014180D01*
X063930Y013930D01*
X064180Y013680D01*
X063564Y013504D02*
X063564Y014314D01*
X064180Y014930D01*
X065680Y014930D01*
X066430Y014180D01*
X063430Y012930D02*
X063180Y013180D01*
X062430Y013180D01*
X061180Y011930D01*
X061180Y004680D01*
X061680Y004180D01*
X063430Y003430D02*
X063680Y003680D01*
X063680Y004180D01*
X063430Y003430D02*
X060430Y003430D01*
X067680Y004180D02*
X067680Y004930D01*
X069180Y006430D01*
X069180Y010680D01*
X068474Y011386D01*
X067599Y011386D01*
X068316Y012544D02*
X069430Y011430D01*
X069430Y006180D01*
X068680Y005430D01*
X068680Y004180D01*
X073430Y003430D02*
X076430Y003430D01*
X076680Y003680D01*
X076680Y004180D01*
X074680Y004180D02*
X074180Y004680D01*
X074180Y011930D01*
X075430Y013180D01*
X076180Y013180D01*
X076430Y012930D01*
X076430Y011680D01*
X076180Y011430D01*
X075805Y011430D01*
X075761Y011386D01*
X074680Y011680D02*
X074680Y007180D01*
X075680Y007180D02*
X075680Y006430D01*
X075930Y006180D01*
X079930Y006180D01*
X080180Y006430D01*
X080180Y009430D01*
X079180Y010430D01*
X079180Y013180D01*
X079504Y013504D01*
X079796Y013504D01*
X079430Y013930D02*
X078680Y013180D01*
X078680Y007180D01*
X079680Y007180D02*
X079680Y006680D01*
X079430Y006430D01*
X078430Y006430D01*
X078180Y006680D01*
X078180Y007930D01*
X077597Y008513D01*
X077597Y014046D01*
X077180Y013680D02*
X076930Y013930D01*
X076930Y014180D01*
X077430Y014680D01*
X078180Y014680D01*
X078763Y014097D01*
X078763Y014046D01*
X079430Y013930D02*
X079430Y014180D01*
X078680Y014930D01*
X077180Y014930D01*
X076564Y014314D01*
X076564Y013504D01*
X077180Y013680D02*
X077180Y010430D01*
X076430Y009680D01*
X076430Y009180D01*
X076680Y008930D01*
X076680Y007180D01*
X075430Y005930D02*
X075180Y006180D01*
X075180Y009680D01*
X075796Y010296D01*
X076174Y010296D01*
X080186Y010296D02*
X081180Y009301D01*
X081180Y007680D01*
X081680Y007180D01*
X080680Y007180D02*
X080680Y006180D01*
X080430Y005930D01*
X075430Y005930D01*
X080680Y004930D02*
X080680Y004180D01*
X081680Y004180D02*
X081680Y005430D01*
X082430Y006180D01*
X082430Y011430D01*
X081316Y012544D01*
X080459Y012544D01*
X080599Y011386D02*
X081474Y011386D01*
X082180Y010680D01*
X082180Y006430D01*
X080680Y004930D01*
X068680Y007180D02*
X068180Y007680D01*
X068180Y009301D01*
X067186Y010296D01*
X063174Y010296D02*
X062796Y010296D01*
X062180Y009680D01*
X062180Y006180D01*
X062430Y005930D01*
X067430Y005930D01*
X067680Y006180D01*
X067680Y007180D01*
X061680Y007180D02*
X061680Y011680D01*
X062180Y012180D01*
X062544Y012544D01*
X062901Y012544D01*
X063430Y012930D02*
X063430Y011680D01*
X063180Y011430D01*
X062805Y011430D01*
X062761Y011386D01*
X067459Y012544D02*
X068316Y012544D01*
X074680Y011680D02*
X075544Y012544D01*
X075901Y012544D01*
X080430Y016430D02*
X082180Y014680D01*
X052316Y012544D02*
X051459Y012544D01*
X046901Y012544D02*
X046544Y012544D01*
X045680Y011680D01*
X039316Y012544D02*
X038459Y012544D01*
X035180Y013680D02*
X034930Y013930D01*
X034930Y014180D01*
X035430Y014680D01*
X036180Y014680D01*
X036763Y014097D01*
X036763Y014046D01*
X037430Y013930D02*
X037430Y014180D01*
X036680Y014930D01*
X035180Y014930D01*
X034564Y014314D01*
X034564Y013504D01*
X033901Y012544D02*
X033544Y012544D01*
X032680Y011680D01*
X023316Y012544D02*
X022459Y012544D01*
X017901Y012544D02*
X017544Y012544D01*
X016680Y011680D01*
X010316Y012544D02*
X009459Y012544D01*
X006180Y013680D02*
X005930Y013930D01*
X005930Y014180D01*
X006180Y014430D01*
X006430Y014680D01*
X007180Y014680D01*
X007763Y014097D01*
X007763Y014046D01*
X008430Y013930D02*
X008430Y014180D01*
X007680Y014930D01*
X006180Y014930D01*
X005564Y014314D01*
X005564Y013504D01*
X004901Y012544D02*
X004544Y012544D01*
X003680Y011680D01*
D16*
X005680Y019180D02*
X006180Y019680D01*
X040680Y019680D01*
X040680Y019180D01*
X040680Y019680D02*
X040680Y020180D01*
X042680Y020180D02*
X042680Y019180D01*
X043680Y019180D02*
X043680Y019680D01*
X043680Y020180D01*
X057180Y005180D02*
X059680Y005180D01*
X060180Y004680D01*
X064680Y004180D02*
X064680Y003430D01*
X065180Y002930D01*
X071430Y002930D01*
X073180Y004680D01*
D17*
X003785Y001506D02*
X003464Y001160D01*
X081922Y001160D01*
X081728Y001315D01*
X081728Y001315D01*
X081728Y001315D01*
X081452Y001718D01*
X081452Y001718D01*
X081308Y002186D01*
X081308Y002674D01*
X081452Y003142D01*
X081452Y003142D01*
X081642Y003420D01*
X081581Y003420D01*
X081397Y003496D01*
X081256Y003637D01*
X081180Y003821D01*
X081180Y004539D01*
X081256Y004723D01*
X081390Y004857D01*
X081390Y005230D01*
X080994Y004833D01*
X081104Y004723D01*
X081180Y004539D01*
X081180Y003821D01*
X081104Y003637D01*
X080963Y003496D01*
X080779Y003420D01*
X080581Y003420D01*
X080397Y003496D01*
X080256Y003637D01*
X080180Y003821D01*
X080180Y004539D01*
X080104Y004723D01*
X079963Y004864D01*
X079779Y004940D01*
X079581Y004940D01*
X079397Y004864D01*
X079256Y004723D01*
X079180Y004539D01*
X079180Y003821D01*
X079256Y003637D01*
X079397Y003496D01*
X079581Y003420D01*
X079779Y003420D01*
X079963Y003496D01*
X080104Y003637D01*
X080180Y003821D01*
X080180Y004539D01*
X080256Y004723D01*
X080390Y004857D01*
X080390Y004988D01*
X080434Y005094D01*
X080516Y005176D01*
X081760Y006420D01*
X081581Y006420D01*
X081397Y006496D01*
X081256Y006637D01*
X081180Y006821D01*
X081180Y007270D01*
X081180Y007270D01*
X081180Y006821D01*
X081104Y006637D01*
X080970Y006503D01*
X080970Y006122D01*
X080926Y006016D01*
X080844Y005934D01*
X080594Y005684D01*
X080488Y005640D01*
X075372Y005640D01*
X075266Y005684D01*
X075184Y005766D01*
X074934Y006016D01*
X074890Y006122D01*
X074890Y006466D01*
X074779Y006420D01*
X074581Y006420D01*
X074470Y006466D01*
X074470Y004894D01*
X074581Y004940D01*
X074779Y004940D01*
X074963Y004864D01*
X075104Y004723D01*
X075180Y004539D01*
X075180Y003821D01*
X075138Y003720D01*
X075222Y003720D01*
X075180Y003821D01*
X075180Y004539D01*
X075256Y004723D01*
X075397Y004864D01*
X075581Y004940D01*
X075779Y004940D01*
X075963Y004864D01*
X076104Y004723D01*
X076180Y004539D01*
X076180Y003821D01*
X076138Y003720D01*
X076222Y003720D01*
X076180Y003821D01*
X076180Y004539D01*
X076256Y004723D01*
X076397Y004864D01*
X076581Y004940D01*
X076779Y004940D01*
X076963Y004864D01*
X077104Y004723D01*
X077180Y004539D01*
X077256Y004723D01*
X077397Y004864D01*
X077581Y004940D01*
X077779Y004940D01*
X077963Y004864D01*
X078104Y004723D01*
X078180Y004539D01*
X078256Y004723D01*
X078397Y004864D01*
X078581Y004940D01*
X078779Y004940D01*
X078963Y004864D01*
X079104Y004723D01*
X079180Y004539D01*
X079180Y003821D01*
X079104Y003637D01*
X078963Y003496D01*
X078779Y003420D01*
X078581Y003420D01*
X078397Y003496D01*
X078256Y003637D01*
X078180Y003821D01*
X078180Y004539D01*
X078180Y003821D01*
X078104Y003637D01*
X077963Y003496D01*
X077779Y003420D01*
X077581Y003420D01*
X077397Y003496D01*
X077256Y003637D01*
X077180Y003821D01*
X077180Y004539D01*
X077180Y003821D01*
X077104Y003637D01*
X076963Y003496D01*
X076866Y003456D01*
X076844Y003434D01*
X076594Y003184D01*
X076488Y003140D01*
X073762Y003140D01*
X073679Y003057D01*
X073518Y002990D01*
X073342Y002990D01*
X073181Y003057D01*
X073057Y003181D01*
X072990Y003342D01*
X072990Y003518D01*
X073057Y003679D01*
X073181Y003803D01*
X073342Y003870D01*
X073518Y003870D01*
X073679Y003803D01*
X073762Y003720D01*
X074222Y003720D01*
X074180Y003821D01*
X074180Y004270D01*
X074016Y004434D01*
X073934Y004516D01*
X073890Y004622D01*
X073890Y011988D01*
X073934Y012094D01*
X075184Y013344D01*
X075266Y013426D01*
X075372Y013470D01*
X076059Y013470D01*
X076059Y013605D01*
X076136Y013790D01*
X076274Y013929D01*
X076274Y014372D01*
X076318Y014478D01*
X076934Y015094D01*
X077016Y015176D01*
X077122Y015220D01*
X078738Y015220D01*
X078844Y015176D01*
X079594Y014426D01*
X079676Y014344D01*
X079720Y014238D01*
X079720Y014009D01*
X079897Y014009D01*
X080082Y013933D01*
X080224Y013790D01*
X080301Y013605D01*
X080301Y013404D01*
X080224Y013218D01*
X080082Y013076D01*
X079897Y012999D01*
X079696Y012999D01*
X079510Y013076D01*
X079498Y013088D01*
X079470Y013060D01*
X079470Y010550D01*
X079680Y010340D01*
X079680Y010396D01*
X079757Y010582D01*
X079899Y010724D01*
X080085Y010801D01*
X080286Y010801D01*
X080472Y010724D01*
X080614Y010582D01*
X080691Y010396D01*
X080691Y010200D01*
X081426Y009465D01*
X081470Y009359D01*
X081470Y007894D01*
X081581Y007940D01*
X081779Y007940D01*
X081890Y007894D01*
X081890Y010560D01*
X081354Y011096D01*
X081024Y011096D01*
X080885Y010958D01*
X080700Y010881D01*
X080499Y010881D01*
X080313Y010958D01*
X080171Y011100D01*
X080094Y011286D01*
X080094Y011487D01*
X080171Y011673D01*
X080313Y011815D01*
X080499Y011892D01*
X080700Y011892D01*
X080885Y011815D01*
X081024Y011676D01*
X081531Y011676D01*
X081638Y011632D01*
X082140Y011130D01*
X082140Y011310D01*
X081196Y012254D01*
X080883Y012254D01*
X080745Y012116D01*
X080559Y012039D01*
X080358Y012039D01*
X080172Y012116D01*
X080030Y012258D01*
X079953Y012444D01*
X079953Y012645D01*
X080030Y012830D01*
X080172Y012973D01*
X080358Y013050D01*
X080559Y013050D01*
X080745Y012973D01*
X080883Y012834D01*
X081374Y012834D01*
X081480Y012790D01*
X082594Y011676D01*
X082676Y011594D01*
X082720Y011488D01*
X082720Y006122D01*
X082676Y006016D01*
X081970Y005310D01*
X081970Y004857D01*
X082104Y004723D01*
X082180Y004539D01*
X082180Y003878D01*
X082565Y004029D01*
X082565Y004029D01*
X083053Y004065D01*
X083053Y004065D01*
X083529Y003957D01*
X083529Y003957D01*
X083953Y003712D01*
X083953Y003712D01*
X084192Y003454D01*
X084192Y018906D01*
X083953Y018648D01*
X083953Y018648D01*
X083529Y018403D01*
X083529Y018403D01*
X083053Y018295D01*
X083053Y018295D01*
X082565Y018331D01*
X082565Y018331D01*
X082110Y018510D01*
X082110Y018510D01*
X081728Y018815D01*
X081728Y018815D01*
X081728Y018815D01*
X081452Y019218D01*
X081452Y019218D01*
X081308Y019686D01*
X081308Y020174D01*
X081308Y020174D01*
X081452Y020642D01*
X081728Y021045D01*
X081728Y021045D01*
X081759Y021070D01*
X003584Y021070D01*
X003785Y020854D01*
X003997Y020413D01*
X004070Y019930D01*
X004070Y019930D01*
X003997Y019447D01*
X003997Y019447D01*
X003785Y019006D01*
X003785Y019006D01*
X003453Y018648D01*
X003453Y018648D01*
X003029Y018403D01*
X003029Y018403D01*
X002553Y018295D01*
X002553Y018295D01*
X002065Y018331D01*
X002065Y018331D01*
X001610Y018510D01*
X001610Y018510D01*
X001228Y018815D01*
X001228Y018815D01*
X001228Y018815D01*
X001160Y018914D01*
X001160Y003446D01*
X001228Y003545D01*
X001228Y003545D01*
X001228Y003545D01*
X001610Y003850D01*
X001610Y003850D01*
X002065Y004029D01*
X002065Y004029D01*
X002553Y004065D01*
X002553Y004065D01*
X003029Y003957D01*
X003029Y003957D01*
X003180Y003870D01*
X003180Y004270D01*
X003016Y004434D01*
X002934Y004516D01*
X002890Y004622D01*
X002890Y011988D01*
X002934Y012094D01*
X004184Y013344D01*
X004266Y013426D01*
X004372Y013470D01*
X005059Y013470D01*
X005059Y013605D01*
X005136Y013790D01*
X005274Y013929D01*
X005274Y014372D01*
X005318Y014478D01*
X005934Y015094D01*
X006016Y015176D01*
X006122Y015220D01*
X007738Y015220D01*
X007844Y015176D01*
X008594Y014426D01*
X008676Y014344D01*
X008720Y014238D01*
X008720Y014009D01*
X008897Y014009D01*
X009082Y013933D01*
X009224Y013790D01*
X009301Y013605D01*
X009301Y013404D01*
X009224Y013218D01*
X009082Y013076D01*
X008897Y012999D01*
X008696Y012999D01*
X008510Y013076D01*
X008498Y013088D01*
X008470Y013060D01*
X008470Y010550D01*
X008680Y010340D01*
X008680Y010396D01*
X008757Y010582D01*
X008899Y010724D01*
X009085Y010801D01*
X009286Y010801D01*
X009472Y010724D01*
X009614Y010582D01*
X009691Y010396D01*
X009691Y010200D01*
X010426Y009465D01*
X010470Y009359D01*
X010470Y007894D01*
X010581Y007940D01*
X010779Y007940D01*
X010890Y007894D01*
X010890Y010560D01*
X010354Y011096D01*
X010024Y011096D01*
X009885Y010958D01*
X009700Y010881D01*
X009499Y010881D01*
X009313Y010958D01*
X009171Y011100D01*
X009094Y011286D01*
X009094Y011487D01*
X009171Y011673D01*
X009313Y011815D01*
X009499Y011892D01*
X009700Y011892D01*
X009885Y011815D01*
X010024Y011676D01*
X010531Y011676D01*
X010638Y011632D01*
X010720Y011551D01*
X010720Y011551D01*
X011140Y011130D01*
X011140Y011310D01*
X010196Y012254D01*
X009883Y012254D01*
X009745Y012116D01*
X009559Y012039D01*
X009358Y012039D01*
X009172Y012116D01*
X009030Y012258D01*
X008953Y012444D01*
X008953Y012645D01*
X009030Y012830D01*
X009172Y012973D01*
X009358Y013050D01*
X009559Y013050D01*
X009745Y012973D01*
X009883Y012834D01*
X010374Y012834D01*
X010480Y012790D01*
X011594Y011676D01*
X011676Y011594D01*
X011720Y011488D01*
X011720Y006122D01*
X011676Y006016D01*
X010970Y005310D01*
X010970Y004857D01*
X011104Y004723D01*
X011180Y004539D01*
X011180Y003821D01*
X011104Y003637D01*
X010963Y003496D01*
X010900Y003470D01*
X012310Y003470D01*
X012390Y003550D01*
X012390Y014268D01*
X012362Y014240D01*
X012180Y014240D01*
X012180Y014680D01*
X012180Y014680D01*
X012180Y015120D01*
X012362Y015120D01*
X012390Y015092D01*
X012390Y017488D01*
X012434Y017594D01*
X012516Y017676D01*
X012766Y017926D01*
X012872Y017970D01*
X012960Y017970D01*
X012897Y017996D01*
X012756Y018137D01*
X012680Y018321D01*
X012680Y019039D01*
X012756Y019223D01*
X012853Y019320D01*
X012507Y019320D01*
X012604Y019223D01*
X012680Y019039D01*
X012680Y018321D01*
X012604Y018137D01*
X012463Y017996D01*
X012279Y017920D01*
X012081Y017920D01*
X011897Y017996D01*
X011756Y018137D01*
X011680Y018321D01*
X011680Y019039D01*
X011756Y019223D01*
X011853Y019320D01*
X011507Y019320D01*
X011604Y019223D01*
X011680Y019039D01*
X011680Y018321D01*
X011604Y018137D01*
X011463Y017996D01*
X011279Y017920D01*
X011081Y017920D01*
X010897Y017996D01*
X010756Y018137D01*
X010680Y018321D01*
X010680Y019039D01*
X010756Y019223D01*
X010853Y019320D01*
X009617Y019320D01*
X009629Y019283D01*
X009640Y019215D01*
X009640Y019180D01*
X008680Y019180D01*
X008680Y019180D01*
X009640Y019180D01*
X009640Y019145D01*
X009629Y019077D01*
X009608Y019011D01*
X009576Y018949D01*
X009536Y018893D01*
X009487Y018844D01*
X009431Y018804D01*
X009369Y018772D01*
X009303Y018751D01*
X009235Y018740D01*
X008680Y018740D01*
X008680Y019180D01*
X008680Y019180D01*
X008680Y019180D01*
X008240Y019180D01*
X008240Y019215D01*
X008251Y019283D01*
X008263Y019320D01*
X006329Y019320D01*
X006180Y019171D01*
X006180Y019081D01*
X006104Y018897D01*
X005963Y018756D01*
X005779Y018680D01*
X005061Y018680D01*
X004877Y018604D01*
X004736Y018463D01*
X004660Y018279D01*
X004660Y018081D01*
X004736Y017897D01*
X004877Y017756D01*
X005061Y017680D01*
X005779Y017680D01*
X005963Y017756D01*
X006104Y017897D01*
X006180Y018081D01*
X006180Y018279D01*
X006104Y018463D01*
X005963Y018604D01*
X005779Y018680D01*
X005061Y018680D01*
X004877Y018756D01*
X004736Y018897D01*
X004660Y019081D01*
X004660Y019279D01*
X004736Y019463D01*
X004877Y019604D01*
X005061Y019680D01*
X005671Y019680D01*
X005671Y019680D01*
X005061Y019680D01*
X004877Y019756D01*
X004736Y019897D01*
X004660Y020081D01*
X004660Y020279D01*
X004736Y020463D01*
X004877Y020604D01*
X005061Y020680D01*
X005779Y020680D01*
X005963Y020604D01*
X006104Y020463D01*
X006180Y020279D01*
X006180Y020081D01*
X006163Y020040D01*
X008197Y020040D01*
X008180Y020081D01*
X008180Y020279D01*
X008256Y020463D01*
X008397Y020604D01*
X008581Y020680D01*
X009299Y020680D01*
X009483Y020604D01*
X009624Y020463D01*
X009700Y020279D01*
X009700Y020081D01*
X009683Y020040D01*
X010680Y020040D01*
X010680Y020387D01*
X010973Y020680D01*
X011387Y020680D01*
X011680Y020387D01*
X011680Y020040D01*
X014680Y020040D01*
X014680Y020387D01*
X014973Y020680D01*
X015387Y020680D01*
X015680Y020387D01*
X015680Y020040D01*
X040140Y020040D01*
X040140Y020404D01*
X040456Y020720D01*
X040904Y020720D01*
X041220Y020404D01*
X041220Y020399D01*
X041481Y020660D01*
X041660Y020660D01*
X041660Y020200D01*
X041700Y020200D01*
X041700Y020660D01*
X041879Y020660D01*
X042140Y020399D01*
X042140Y020404D01*
X042456Y020720D01*
X042904Y020720D01*
X043180Y020444D01*
X043456Y020720D01*
X043904Y020720D01*
X044180Y020444D01*
X044456Y020720D01*
X044904Y020720D01*
X045180Y020444D01*
X045456Y020720D01*
X045904Y020720D01*
X046180Y020444D01*
X046456Y020720D01*
X046904Y020720D01*
X047180Y020444D01*
X047456Y020720D01*
X047904Y020720D01*
X048180Y020444D01*
X048456Y020720D01*
X048904Y020720D01*
X049180Y020444D01*
X049456Y020720D01*
X049904Y020720D01*
X050180Y020444D01*
X050456Y020720D01*
X050810Y020720D01*
X051016Y020926D01*
X051122Y020970D01*
X071238Y020970D01*
X071344Y020926D01*
X071570Y020700D01*
X072063Y020700D01*
X072255Y020621D01*
X072401Y020475D01*
X072403Y020470D01*
X073263Y020470D01*
X073473Y020680D01*
X073887Y020680D01*
X074180Y020387D01*
X074180Y019973D01*
X073887Y019680D01*
X073473Y019680D01*
X073263Y019890D01*
X072403Y019890D01*
X072401Y019885D01*
X072255Y019739D01*
X072112Y019680D01*
X072255Y019621D01*
X072401Y019475D01*
X072480Y019283D01*
X072480Y019077D01*
X072401Y018885D01*
X072255Y018739D01*
X072063Y018660D01*
X071297Y018660D01*
X071105Y018739D01*
X070959Y018885D01*
X070880Y019077D01*
X070880Y019283D01*
X070924Y019390D01*
X060220Y019390D01*
X060220Y018956D01*
X059970Y018706D01*
X059970Y016819D01*
X060092Y016870D01*
X060268Y016870D01*
X060429Y016803D01*
X060512Y016720D01*
X080488Y016720D01*
X080594Y016676D01*
X082090Y015180D01*
X082387Y015180D01*
X082680Y014887D01*
X082680Y014473D01*
X082387Y014180D01*
X081973Y014180D01*
X081680Y014473D01*
X081680Y014770D01*
X080310Y016140D01*
X060512Y016140D01*
X060429Y016057D01*
X060424Y016055D01*
X060429Y016053D01*
X060512Y015970D01*
X068238Y015970D01*
X068344Y015926D01*
X068426Y015844D01*
X068426Y015844D01*
X069090Y015180D01*
X069387Y015180D01*
X069680Y014887D01*
X069680Y014473D01*
X069387Y014180D01*
X068973Y014180D01*
X068680Y014473D01*
X068680Y014770D01*
X068060Y015390D01*
X060512Y015390D01*
X060429Y015307D01*
X060268Y015240D01*
X060092Y015240D01*
X059970Y015291D01*
X059970Y015122D01*
X059926Y015016D01*
X059676Y014766D01*
X059594Y014684D01*
X059488Y014640D01*
X055800Y014640D01*
X055720Y014560D01*
X055720Y002372D01*
X055676Y002266D01*
X055426Y002016D01*
X055176Y001766D01*
X055094Y001684D01*
X054988Y001640D01*
X051012Y001640D01*
X050929Y001557D01*
X050768Y001490D01*
X050592Y001490D01*
X050431Y001557D01*
X050307Y001681D01*
X050240Y001842D01*
X050240Y002018D01*
X050291Y002140D01*
X048012Y002140D01*
X047929Y002057D01*
X047768Y001990D01*
X047592Y001990D01*
X047431Y002057D01*
X047307Y002181D01*
X047240Y002342D01*
X047240Y002518D01*
X047291Y002640D01*
X046872Y002640D01*
X046766Y002684D01*
X046516Y002934D01*
X046434Y003016D01*
X046390Y003122D01*
X046390Y003503D01*
X046256Y003637D01*
X046180Y003821D01*
X046180Y004539D01*
X046256Y004723D01*
X046397Y004864D01*
X046581Y004940D01*
X046779Y004940D01*
X046963Y004864D01*
X047104Y004723D01*
X047180Y004539D01*
X047256Y004723D01*
X047397Y004864D01*
X047581Y004940D01*
X047779Y004940D01*
X047963Y004864D01*
X048104Y004723D01*
X048180Y004539D01*
X048180Y003821D01*
X048104Y003637D01*
X047963Y003496D01*
X047779Y003420D01*
X047581Y003420D01*
X047397Y003496D01*
X047256Y003637D01*
X047180Y003821D01*
X047180Y004539D01*
X047180Y003821D01*
X047104Y003637D01*
X046970Y003503D01*
X046970Y003300D01*
X047050Y003220D01*
X049480Y003220D01*
X049434Y003266D01*
X049390Y003372D01*
X049390Y003503D01*
X049256Y003637D01*
X049180Y003821D01*
X049180Y004539D01*
X049104Y004723D01*
X048963Y004864D01*
X048779Y004940D01*
X048581Y004940D01*
X048397Y004864D01*
X048256Y004723D01*
X048180Y004539D01*
X048180Y003821D01*
X048256Y003637D01*
X048397Y003496D01*
X048581Y003420D01*
X048779Y003420D01*
X048963Y003496D01*
X049104Y003637D01*
X049180Y003821D01*
X049180Y004539D01*
X049256Y004723D01*
X049397Y004864D01*
X049581Y004940D01*
X049779Y004940D01*
X049963Y004864D01*
X050104Y004723D01*
X050180Y004539D01*
X050180Y003821D01*
X050104Y003637D01*
X049994Y003527D01*
X050050Y003470D01*
X050460Y003470D01*
X050397Y003496D01*
X050256Y003637D01*
X050180Y003821D01*
X050180Y004539D01*
X050256Y004723D01*
X050397Y004864D01*
X050581Y004940D01*
X050779Y004940D01*
X050963Y004864D01*
X051104Y004723D01*
X051180Y004539D01*
X051180Y003821D01*
X051104Y003637D01*
X050963Y003496D01*
X050900Y003470D01*
X051460Y003470D01*
X051397Y003496D01*
X051256Y003637D01*
X051180Y003821D01*
X051180Y004539D01*
X051256Y004723D01*
X051390Y004857D01*
X051390Y004988D01*
X051434Y005094D01*
X051516Y005176D01*
X052760Y006420D01*
X052581Y006420D01*
X052397Y006496D01*
X052256Y006637D01*
X052180Y006821D01*
X052180Y007270D01*
X052180Y007270D01*
X052180Y006821D01*
X052104Y006637D01*
X051970Y006503D01*
X051970Y006122D01*
X051926Y006016D01*
X051844Y005934D01*
X051594Y005684D01*
X051488Y005640D01*
X046372Y005640D01*
X046266Y005684D01*
X046184Y005766D01*
X045934Y006016D01*
X045890Y006122D01*
X045890Y006466D01*
X045779Y006420D01*
X045581Y006420D01*
X045470Y006466D01*
X045470Y004894D01*
X045581Y004940D01*
X045779Y004940D01*
X045963Y004864D01*
X046104Y004723D01*
X046180Y004539D01*
X046180Y003821D01*
X046104Y003637D01*
X045963Y003496D01*
X045779Y003420D01*
X045581Y003420D01*
X045397Y003496D01*
X045256Y003637D01*
X045180Y003821D01*
X045180Y004270D01*
X045016Y004434D01*
X044934Y004516D01*
X044890Y004622D01*
X044890Y011988D01*
X044934Y012094D01*
X046184Y013344D01*
X046266Y013426D01*
X046372Y013470D01*
X047059Y013470D01*
X047059Y013605D01*
X047136Y013790D01*
X047274Y013929D01*
X047274Y014372D01*
X047318Y014478D01*
X047934Y015094D01*
X048016Y015176D01*
X048122Y015220D01*
X049738Y015220D01*
X049844Y015176D01*
X050676Y014344D01*
X050720Y014238D01*
X050720Y014009D01*
X050897Y014009D01*
X051082Y013933D01*
X051224Y013790D01*
X051301Y013605D01*
X051301Y013404D01*
X051224Y013218D01*
X051082Y013076D01*
X050897Y012999D01*
X050696Y012999D01*
X050510Y013076D01*
X050498Y013088D01*
X050470Y013060D01*
X050470Y010550D01*
X050680Y010340D01*
X050680Y010396D01*
X050757Y010582D01*
X050899Y010724D01*
X051085Y010801D01*
X051286Y010801D01*
X051472Y010724D01*
X051614Y010582D01*
X051691Y010396D01*
X051691Y010200D01*
X052426Y009465D01*
X052470Y009359D01*
X052470Y007894D01*
X052581Y007940D01*
X052779Y007940D01*
X052890Y007894D01*
X052890Y010560D01*
X052354Y011096D01*
X052024Y011096D01*
X051885Y010958D01*
X051700Y010881D01*
X051499Y010881D01*
X051313Y010958D01*
X051171Y011100D01*
X051094Y011286D01*
X051094Y011487D01*
X051171Y011673D01*
X051313Y011815D01*
X051499Y011892D01*
X051700Y011892D01*
X051885Y011815D01*
X052024Y011676D01*
X052531Y011676D01*
X052638Y011632D01*
X053140Y011130D01*
X053140Y011310D01*
X052196Y012254D01*
X051883Y012254D01*
X051745Y012116D01*
X051559Y012039D01*
X051358Y012039D01*
X051172Y012116D01*
X051030Y012258D01*
X050953Y012444D01*
X050953Y012645D01*
X051030Y012830D01*
X051172Y012973D01*
X051358Y013050D01*
X051559Y013050D01*
X051745Y012973D01*
X051883Y012834D01*
X052374Y012834D01*
X052480Y012790D01*
X053594Y011676D01*
X053594Y011676D01*
X053676Y011594D01*
X053720Y011488D01*
X053720Y006122D01*
X053676Y006016D01*
X052970Y005310D01*
X052970Y004857D01*
X053104Y004723D01*
X053180Y004539D01*
X053180Y003821D01*
X053104Y003637D01*
X052963Y003496D01*
X052900Y003470D01*
X054310Y003470D01*
X054390Y003550D01*
X054390Y014268D01*
X054362Y014240D01*
X054180Y014240D01*
X054180Y014680D01*
X054180Y014680D01*
X054180Y015120D01*
X054362Y015120D01*
X054390Y015092D01*
X054390Y015488D01*
X054434Y015594D01*
X054480Y015640D01*
X042800Y015640D01*
X042720Y015560D01*
X042720Y002372D01*
X042676Y002266D01*
X042176Y001766D01*
X042094Y001684D01*
X041988Y001640D01*
X038012Y001640D01*
X037929Y001557D01*
X037768Y001490D01*
X037592Y001490D01*
X037431Y001557D01*
X037307Y001681D01*
X037240Y001842D01*
X037240Y002018D01*
X037291Y002140D01*
X035012Y002140D01*
X034929Y002057D01*
X034768Y001990D01*
X034592Y001990D01*
X034431Y002057D01*
X034307Y002181D01*
X034240Y002342D01*
X034240Y002518D01*
X034291Y002640D01*
X033872Y002640D01*
X033766Y002684D01*
X033516Y002934D01*
X033434Y003016D01*
X033390Y003122D01*
X033390Y003503D01*
X033256Y003637D01*
X033180Y003821D01*
X033180Y004539D01*
X033256Y004723D01*
X033397Y004864D01*
X033581Y004940D01*
X033779Y004940D01*
X033963Y004864D01*
X034104Y004723D01*
X034180Y004539D01*
X034256Y004723D01*
X034397Y004864D01*
X034581Y004940D01*
X034779Y004940D01*
X034963Y004864D01*
X035104Y004723D01*
X035180Y004539D01*
X035256Y004723D01*
X035397Y004864D01*
X035581Y004940D01*
X035779Y004940D01*
X035963Y004864D01*
X036104Y004723D01*
X036180Y004539D01*
X036180Y003821D01*
X036104Y003637D01*
X035963Y003496D01*
X035779Y003420D01*
X035581Y003420D01*
X035397Y003496D01*
X035256Y003637D01*
X035180Y003821D01*
X035180Y004539D01*
X035180Y003821D01*
X035104Y003637D01*
X034963Y003496D01*
X034779Y003420D01*
X034581Y003420D01*
X034397Y003496D01*
X034256Y003637D01*
X034180Y003821D01*
X034180Y004539D01*
X034180Y003821D01*
X034104Y003637D01*
X033970Y003503D01*
X033970Y003300D01*
X034050Y003220D01*
X036480Y003220D01*
X036434Y003266D01*
X036390Y003372D01*
X036390Y003503D01*
X036256Y003637D01*
X036180Y003821D01*
X036180Y004539D01*
X036256Y004723D01*
X036397Y004864D01*
X036581Y004940D01*
X036779Y004940D01*
X036963Y004864D01*
X037104Y004723D01*
X037180Y004539D01*
X037180Y003821D01*
X037104Y003637D01*
X036994Y003527D01*
X037050Y003470D01*
X037460Y003470D01*
X037397Y003496D01*
X037256Y003637D01*
X037180Y003821D01*
X037180Y004539D01*
X037256Y004723D01*
X037397Y004864D01*
X037581Y004940D01*
X037779Y004940D01*
X037963Y004864D01*
X038104Y004723D01*
X038180Y004539D01*
X038180Y003821D01*
X038104Y003637D01*
X037963Y003496D01*
X037900Y003470D01*
X038460Y003470D01*
X038397Y003496D01*
X038256Y003637D01*
X038180Y003821D01*
X038180Y004539D01*
X038256Y004723D01*
X038390Y004857D01*
X038390Y004988D01*
X038434Y005094D01*
X038516Y005176D01*
X039760Y006420D01*
X039581Y006420D01*
X039397Y006496D01*
X039256Y006637D01*
X039180Y006821D01*
X039180Y007270D01*
X039180Y007270D01*
X039180Y006821D01*
X039104Y006637D01*
X038970Y006503D01*
X038970Y006122D01*
X038926Y006016D01*
X038844Y005934D01*
X038594Y005684D01*
X038488Y005640D01*
X033372Y005640D01*
X033266Y005684D01*
X033184Y005766D01*
X032934Y006016D01*
X032890Y006122D01*
X032890Y006466D01*
X032779Y006420D01*
X032581Y006420D01*
X032470Y006466D01*
X032470Y004894D01*
X032581Y004940D01*
X032779Y004940D01*
X032963Y004864D01*
X033104Y004723D01*
X033180Y004539D01*
X033180Y003821D01*
X033104Y003637D01*
X032963Y003496D01*
X032779Y003420D01*
X032581Y003420D01*
X032397Y003496D01*
X032256Y003637D01*
X032180Y003821D01*
X032180Y004270D01*
X032016Y004434D01*
X031934Y004516D01*
X031890Y004622D01*
X031890Y011988D01*
X031934Y012094D01*
X033184Y013344D01*
X033266Y013426D01*
X033372Y013470D01*
X034059Y013470D01*
X034059Y013605D01*
X034136Y013790D01*
X034274Y013929D01*
X034274Y014372D01*
X034318Y014478D01*
X034934Y015094D01*
X035016Y015176D01*
X035122Y015220D01*
X036738Y015220D01*
X036844Y015176D01*
X037594Y014426D01*
X037676Y014344D01*
X037720Y014238D01*
X037720Y014009D01*
X037897Y014009D01*
X038082Y013933D01*
X038224Y013790D01*
X038301Y013605D01*
X038301Y013404D01*
X038224Y013218D01*
X038082Y013076D01*
X037897Y012999D01*
X037696Y012999D01*
X037510Y013076D01*
X037498Y013088D01*
X037470Y013060D01*
X037470Y010550D01*
X037680Y010340D01*
X037680Y010396D01*
X037757Y010582D01*
X037899Y010724D01*
X038085Y010801D01*
X038286Y010801D01*
X038472Y010724D01*
X038614Y010582D01*
X038691Y010396D01*
X038691Y010200D01*
X039344Y009547D01*
X039344Y009547D01*
X039426Y009465D01*
X039470Y009359D01*
X039470Y007894D01*
X039581Y007940D01*
X039779Y007940D01*
X039890Y007894D01*
X039890Y010560D01*
X039354Y011096D01*
X039024Y011096D01*
X038885Y010958D01*
X038700Y010881D01*
X038499Y010881D01*
X038313Y010958D01*
X038171Y011100D01*
X038094Y011286D01*
X038094Y011487D01*
X038171Y011673D01*
X038313Y011815D01*
X038499Y011892D01*
X038700Y011892D01*
X038885Y011815D01*
X039024Y011676D01*
X039531Y011676D01*
X039638Y011632D01*
X040140Y011130D01*
X040140Y011310D01*
X039196Y012254D01*
X038883Y012254D01*
X038745Y012116D01*
X038559Y012039D01*
X038358Y012039D01*
X038172Y012116D01*
X038030Y012258D01*
X037953Y012444D01*
X037953Y012645D01*
X038030Y012830D01*
X038172Y012973D01*
X038358Y013050D01*
X038559Y013050D01*
X038745Y012973D01*
X038883Y012834D01*
X039374Y012834D01*
X039480Y012790D01*
X040594Y011676D01*
X040676Y011594D01*
X040720Y011488D01*
X040720Y006122D01*
X040676Y006016D01*
X039970Y005310D01*
X039970Y004857D01*
X040104Y004723D01*
X040180Y004539D01*
X040180Y003821D01*
X040104Y003637D01*
X039963Y003496D01*
X039900Y003470D01*
X041310Y003470D01*
X041390Y003550D01*
X041390Y014268D01*
X041362Y014240D01*
X041180Y014240D01*
X041180Y014680D01*
X041180Y014680D01*
X041180Y015120D01*
X041362Y015120D01*
X041390Y015092D01*
X041390Y016488D01*
X041434Y016594D01*
X041480Y016640D01*
X026800Y016640D01*
X026720Y016560D01*
X026720Y002372D01*
X026676Y002266D01*
X026176Y001766D01*
X026094Y001684D01*
X025988Y001640D01*
X022012Y001640D01*
X021929Y001557D01*
X021768Y001490D01*
X021592Y001490D01*
X021431Y001557D01*
X021307Y001681D01*
X021240Y001842D01*
X021240Y002018D01*
X021291Y002140D01*
X019012Y002140D01*
X018929Y002057D01*
X018768Y001990D01*
X018592Y001990D01*
X018431Y002057D01*
X018307Y002181D01*
X018240Y002342D01*
X018240Y002518D01*
X018291Y002640D01*
X017872Y002640D01*
X017766Y002684D01*
X017516Y002934D01*
X017434Y003016D01*
X017390Y003122D01*
X017390Y003503D01*
X017256Y003637D01*
X017180Y003821D01*
X017180Y004539D01*
X017256Y004723D01*
X017397Y004864D01*
X017581Y004940D01*
X017779Y004940D01*
X017963Y004864D01*
X018104Y004723D01*
X018180Y004539D01*
X018256Y004723D01*
X018397Y004864D01*
X018581Y004940D01*
X018779Y004940D01*
X018963Y004864D01*
X019104Y004723D01*
X019180Y004539D01*
X019180Y003821D01*
X019104Y003637D01*
X018963Y003496D01*
X018779Y003420D01*
X018581Y003420D01*
X018397Y003496D01*
X018256Y003637D01*
X018180Y003821D01*
X018180Y004539D01*
X018180Y003821D01*
X018104Y003637D01*
X017970Y003503D01*
X017970Y003300D01*
X018050Y003220D01*
X020480Y003220D01*
X020434Y003266D01*
X020390Y003372D01*
X020390Y003503D01*
X020256Y003637D01*
X020180Y003821D01*
X020180Y004539D01*
X020104Y004723D01*
X019963Y004864D01*
X019779Y004940D01*
X019581Y004940D01*
X019397Y004864D01*
X019256Y004723D01*
X019180Y004539D01*
X019180Y003821D01*
X019256Y003637D01*
X019397Y003496D01*
X019581Y003420D01*
X019779Y003420D01*
X019963Y003496D01*
X020104Y003637D01*
X020180Y003821D01*
X020180Y004539D01*
X020256Y004723D01*
X020397Y004864D01*
X020581Y004940D01*
X020779Y004940D01*
X020963Y004864D01*
X021104Y004723D01*
X021180Y004539D01*
X021180Y003821D01*
X021104Y003637D01*
X020994Y003527D01*
X021050Y003470D01*
X021460Y003470D01*
X021397Y003496D01*
X021256Y003637D01*
X021180Y003821D01*
X021180Y004539D01*
X021256Y004723D01*
X021397Y004864D01*
X021581Y004940D01*
X021779Y004940D01*
X021963Y004864D01*
X022104Y004723D01*
X022180Y004539D01*
X022180Y003821D01*
X022104Y003637D01*
X021963Y003496D01*
X021900Y003470D01*
X022460Y003470D01*
X022397Y003496D01*
X022256Y003637D01*
X022180Y003821D01*
X022180Y004539D01*
X022256Y004723D01*
X022390Y004857D01*
X022390Y004988D01*
X022434Y005094D01*
X022516Y005176D01*
X023760Y006420D01*
X023581Y006420D01*
X023397Y006496D01*
X023256Y006637D01*
X023180Y006821D01*
X023180Y007270D01*
X023180Y007270D01*
X023180Y006821D01*
X023104Y006637D01*
X022970Y006503D01*
X022970Y006122D01*
X022926Y006016D01*
X022844Y005934D01*
X022594Y005684D01*
X022488Y005640D01*
X017372Y005640D01*
X017266Y005684D01*
X017184Y005766D01*
X016934Y006016D01*
X016890Y006122D01*
X016890Y006466D01*
X016779Y006420D01*
X016581Y006420D01*
X016470Y006466D01*
X016470Y004894D01*
X016581Y004940D01*
X016779Y004940D01*
X016963Y004864D01*
X017104Y004723D01*
X017180Y004539D01*
X017180Y003821D01*
X017104Y003637D01*
X016963Y003496D01*
X016779Y003420D01*
X016581Y003420D01*
X016397Y003496D01*
X016256Y003637D01*
X016180Y003821D01*
X016180Y004270D01*
X016016Y004434D01*
X015934Y004516D01*
X015890Y004622D01*
X015890Y011988D01*
X015934Y012094D01*
X017184Y013344D01*
X017266Y013426D01*
X017372Y013470D01*
X018059Y013470D01*
X018059Y013605D01*
X018136Y013790D01*
X018274Y013929D01*
X018274Y014372D01*
X018318Y014478D01*
X018934Y015094D01*
X019016Y015176D01*
X019122Y015220D01*
X020738Y015220D01*
X020844Y015176D01*
X021594Y014426D01*
X021676Y014344D01*
X021720Y014238D01*
X021720Y014009D01*
X021897Y014009D01*
X022082Y013933D01*
X022224Y013790D01*
X022301Y013605D01*
X022301Y013404D01*
X022224Y013218D01*
X022082Y013076D01*
X021897Y012999D01*
X021696Y012999D01*
X021510Y013076D01*
X021498Y013088D01*
X021470Y013060D01*
X021470Y010550D01*
X021680Y010340D01*
X021680Y010396D01*
X021757Y010582D01*
X021899Y010724D01*
X022085Y010801D01*
X022286Y010801D01*
X022472Y010724D01*
X022614Y010582D01*
X022691Y010396D01*
X022691Y010200D01*
X023426Y009465D01*
X023470Y009359D01*
X023470Y007894D01*
X023581Y007940D01*
X023779Y007940D01*
X023890Y007894D01*
X023890Y010560D01*
X023354Y011096D01*
X023024Y011096D01*
X022885Y010958D01*
X022700Y010881D01*
X022499Y010881D01*
X022313Y010958D01*
X022171Y011100D01*
X022094Y011286D01*
X022094Y011487D01*
X022171Y011673D01*
X022313Y011815D01*
X022499Y011892D01*
X022700Y011892D01*
X022885Y011815D01*
X023024Y011676D01*
X023531Y011676D01*
X023638Y011632D01*
X024140Y011130D01*
X024140Y011310D01*
X023196Y012254D01*
X022883Y012254D01*
X022745Y012116D01*
X022559Y012039D01*
X022358Y012039D01*
X022172Y012116D01*
X022030Y012258D01*
X021953Y012444D01*
X021953Y012645D01*
X022030Y012830D01*
X022172Y012973D01*
X022358Y013050D01*
X022559Y013050D01*
X022745Y012973D01*
X022883Y012834D01*
X023374Y012834D01*
X023480Y012790D01*
X024594Y011676D01*
X024676Y011594D01*
X024720Y011488D01*
X024720Y006122D01*
X024676Y006016D01*
X023970Y005310D01*
X023970Y004857D01*
X024104Y004723D01*
X024180Y004539D01*
X024180Y003821D01*
X024104Y003637D01*
X023963Y003496D01*
X023900Y003470D01*
X025310Y003470D01*
X025390Y003550D01*
X025390Y014268D01*
X025362Y014240D01*
X025180Y014240D01*
X025180Y014680D01*
X025180Y014680D01*
X025180Y015120D01*
X025362Y015120D01*
X025390Y015092D01*
X025390Y017488D01*
X025434Y017594D01*
X025480Y017640D01*
X020300Y017640D01*
X019426Y016766D01*
X019344Y016684D01*
X019238Y016640D01*
X013800Y016640D01*
X013720Y016560D01*
X013720Y002372D01*
X013676Y002266D01*
X013426Y002016D01*
X013176Y001766D01*
X013094Y001684D01*
X012988Y001640D01*
X009012Y001640D01*
X008929Y001557D01*
X008768Y001490D01*
X008592Y001490D01*
X008431Y001557D01*
X008307Y001681D01*
X008240Y001842D01*
X008240Y002018D01*
X008291Y002140D01*
X006012Y002140D01*
X005929Y002057D01*
X005768Y001990D01*
X005592Y001990D01*
X005431Y002057D01*
X005307Y002181D01*
X005240Y002342D01*
X005240Y002518D01*
X005291Y002640D01*
X004872Y002640D01*
X004766Y002684D01*
X004516Y002934D01*
X004434Y003016D01*
X004390Y003122D01*
X004390Y003503D01*
X004256Y003637D01*
X004180Y003821D01*
X004180Y004539D01*
X004104Y004723D01*
X003963Y004864D01*
X003779Y004940D01*
X003581Y004940D01*
X003470Y004894D01*
X003470Y006466D01*
X003581Y006420D01*
X003779Y006420D01*
X003890Y006466D01*
X003890Y006122D01*
X003934Y006016D01*
X004184Y005766D01*
X004266Y005684D01*
X004372Y005640D01*
X009488Y005640D01*
X009594Y005684D01*
X009844Y005934D01*
X009926Y006016D01*
X009970Y006122D01*
X009970Y006503D01*
X010104Y006637D01*
X010180Y006821D01*
X010256Y006637D01*
X010397Y006496D01*
X010581Y006420D01*
X010760Y006420D01*
X009516Y005176D01*
X009516Y005176D01*
X009434Y005094D01*
X009390Y004988D01*
X009390Y004857D01*
X009256Y004723D01*
X009180Y004539D01*
X009104Y004723D01*
X008963Y004864D01*
X008779Y004940D01*
X008581Y004940D01*
X008397Y004864D01*
X008256Y004723D01*
X008180Y004539D01*
X008104Y004723D01*
X007963Y004864D01*
X007779Y004940D01*
X007581Y004940D01*
X007397Y004864D01*
X007256Y004723D01*
X007180Y004539D01*
X007104Y004723D01*
X006963Y004864D01*
X006779Y004940D01*
X006581Y004940D01*
X006397Y004864D01*
X006256Y004723D01*
X006180Y004539D01*
X006180Y003821D01*
X006256Y003637D01*
X006397Y003496D01*
X006581Y003420D01*
X006779Y003420D01*
X006963Y003496D01*
X007104Y003637D01*
X007180Y003821D01*
X007180Y004539D01*
X007180Y003821D01*
X007256Y003637D01*
X007390Y003503D01*
X007390Y003372D01*
X007434Y003266D01*
X007480Y003220D01*
X005050Y003220D01*
X004970Y003300D01*
X004970Y003503D01*
X005104Y003637D01*
X005180Y003821D01*
X005256Y003637D01*
X005397Y003496D01*
X005581Y003420D01*
X005779Y003420D01*
X005963Y003496D01*
X006104Y003637D01*
X006180Y003821D01*
X006180Y004539D01*
X006104Y004723D01*
X005963Y004864D01*
X005779Y004940D01*
X005581Y004940D01*
X005397Y004864D01*
X005256Y004723D01*
X005180Y004539D01*
X005180Y003821D01*
X005180Y004539D01*
X005104Y004723D01*
X004963Y004864D01*
X004779Y004940D01*
X004581Y004940D01*
X004397Y004864D01*
X004256Y004723D01*
X004180Y004539D01*
X004180Y003821D01*
X004104Y003637D01*
X003963Y003496D01*
X003779Y003420D01*
X003724Y003420D01*
X003785Y003354D01*
X003785Y003354D01*
X003997Y002913D01*
X003997Y002913D01*
X004070Y002430D01*
X003997Y001947D01*
X003997Y001947D01*
X003785Y001506D01*
X003785Y001506D01*
X003754Y001473D02*
X081620Y001473D01*
X081512Y001631D02*
X051003Y001631D01*
X050357Y001631D02*
X038003Y001631D01*
X037357Y001631D02*
X022003Y001631D01*
X021357Y001631D02*
X009003Y001631D01*
X008357Y001631D02*
X003845Y001631D01*
X003921Y001790D02*
X008262Y001790D01*
X008240Y001948D02*
X003997Y001948D01*
X004021Y002107D02*
X005381Y002107D01*
X005272Y002265D02*
X004045Y002265D01*
X004069Y002424D02*
X005240Y002424D01*
X005267Y002582D02*
X004047Y002582D01*
X004023Y002741D02*
X004709Y002741D01*
X004551Y002899D02*
X003999Y002899D01*
X003928Y003058D02*
X004417Y003058D01*
X004390Y003216D02*
X003851Y003216D01*
X003766Y003375D02*
X004390Y003375D01*
X004360Y003533D02*
X004000Y003533D01*
X004127Y003692D02*
X004233Y003692D01*
X004180Y003850D02*
X004180Y003850D01*
X004180Y004009D02*
X004180Y004009D01*
X004180Y004167D02*
X004180Y004167D01*
X004180Y004326D02*
X004180Y004326D01*
X004180Y004484D02*
X004180Y004484D01*
X004137Y004643D02*
X004223Y004643D01*
X004334Y004801D02*
X004026Y004801D01*
X003470Y004960D02*
X009390Y004960D01*
X009334Y004801D02*
X009026Y004801D01*
X009137Y004643D02*
X009223Y004643D01*
X009180Y004539D02*
X009180Y003821D01*
X009104Y003637D01*
X008963Y003496D01*
X008900Y003470D01*
X009460Y003470D01*
X009397Y003496D01*
X009256Y003637D01*
X009180Y003821D01*
X009180Y004539D01*
X009180Y004484D02*
X009180Y004484D01*
X009180Y004326D02*
X009180Y004326D01*
X009180Y004167D02*
X009180Y004167D01*
X009180Y004009D02*
X009180Y004009D01*
X009180Y003850D02*
X009180Y003850D01*
X009127Y003692D02*
X009233Y003692D01*
X009360Y003533D02*
X009000Y003533D01*
X008460Y003470D02*
X008050Y003470D01*
X007994Y003527D01*
X008104Y003637D01*
X008180Y003821D01*
X008180Y004539D01*
X008180Y003821D01*
X008256Y003637D01*
X008397Y003496D01*
X008460Y003470D01*
X008360Y003533D02*
X008000Y003533D01*
X008127Y003692D02*
X008233Y003692D01*
X008180Y003850D02*
X008180Y003850D01*
X008180Y004009D02*
X008180Y004009D01*
X008180Y004167D02*
X008180Y004167D01*
X008180Y004326D02*
X008180Y004326D01*
X008180Y004484D02*
X008180Y004484D01*
X008137Y004643D02*
X008223Y004643D01*
X008334Y004801D02*
X008026Y004801D01*
X007334Y004801D02*
X007026Y004801D01*
X007137Y004643D02*
X007223Y004643D01*
X007180Y004484D02*
X007180Y004484D01*
X007180Y004326D02*
X007180Y004326D01*
X007180Y004167D02*
X007180Y004167D01*
X007180Y004009D02*
X007180Y004009D01*
X007180Y003850D02*
X007180Y003850D01*
X007127Y003692D02*
X007233Y003692D01*
X007360Y003533D02*
X007000Y003533D01*
X007390Y003375D02*
X004970Y003375D01*
X005000Y003533D02*
X005360Y003533D01*
X005233Y003692D02*
X005127Y003692D01*
X005180Y003850D02*
X005180Y003850D01*
X005180Y004009D02*
X005180Y004009D01*
X005180Y004167D02*
X005180Y004167D01*
X005180Y004326D02*
X005180Y004326D01*
X005180Y004484D02*
X005180Y004484D01*
X005137Y004643D02*
X005223Y004643D01*
X005334Y004801D02*
X005026Y004801D01*
X003470Y005118D02*
X009458Y005118D01*
X009616Y005277D02*
X003470Y005277D01*
X003470Y005435D02*
X009775Y005435D01*
X009933Y005594D02*
X003470Y005594D01*
X003470Y005752D02*
X004198Y005752D01*
X004039Y005911D02*
X003470Y005911D01*
X003470Y006069D02*
X003912Y006069D01*
X003890Y006228D02*
X003470Y006228D01*
X003470Y006386D02*
X003890Y006386D01*
X002890Y006386D02*
X002508Y006386D01*
X002620Y006498D02*
X002362Y006240D01*
X002180Y006240D01*
X002180Y006680D01*
X002180Y006680D01*
X002180Y007120D01*
X002362Y007120D01*
X002620Y006862D01*
X002620Y006680D01*
X002180Y006680D01*
X002180Y006680D01*
X002180Y006680D01*
X001740Y006680D01*
X001740Y006862D01*
X001998Y007120D01*
X002180Y007120D01*
X002180Y006680D01*
X002620Y006680D01*
X002620Y006498D01*
X002620Y006545D02*
X002890Y006545D01*
X002890Y006703D02*
X002620Y006703D01*
X002620Y006862D02*
X002890Y006862D01*
X002890Y007020D02*
X002462Y007020D01*
X002180Y007020D02*
X002180Y007020D01*
X002180Y006862D02*
X002180Y006862D01*
X002180Y006703D02*
X002180Y006703D01*
X002180Y006680D02*
X001740Y006680D01*
X001740Y006498D01*
X001998Y006240D01*
X002180Y006240D01*
X002180Y006680D01*
X002180Y006680D01*
X002180Y006545D02*
X002180Y006545D01*
X002180Y006386D02*
X002180Y006386D01*
X001852Y006386D02*
X001160Y006386D01*
X001160Y006228D02*
X002890Y006228D01*
X002890Y006069D02*
X001160Y006069D01*
X001160Y005911D02*
X002890Y005911D01*
X002890Y005752D02*
X001160Y005752D01*
X001160Y005594D02*
X002890Y005594D01*
X002890Y005435D02*
X001160Y005435D01*
X001160Y005277D02*
X002890Y005277D01*
X002890Y005118D02*
X002449Y005118D01*
X002387Y005180D02*
X001973Y005180D01*
X001680Y004887D01*
X001680Y004473D01*
X001973Y004180D01*
X002387Y004180D01*
X002680Y004473D01*
X002680Y004887D01*
X002387Y005180D01*
X002608Y004960D02*
X002890Y004960D01*
X002890Y004801D02*
X002680Y004801D01*
X002680Y004643D02*
X002890Y004643D01*
X002966Y004484D02*
X002680Y004484D01*
X002533Y004326D02*
X003124Y004326D01*
X003180Y004167D02*
X001160Y004167D01*
X001160Y004009D02*
X002013Y004009D01*
X001610Y003850D02*
X001160Y003850D01*
X001160Y003692D02*
X001411Y003692D01*
X001219Y003533D02*
X001160Y003533D01*
X002802Y004009D02*
X003180Y004009D01*
X001827Y004326D02*
X001160Y004326D01*
X001160Y004484D02*
X001680Y004484D01*
X001680Y004643D02*
X001160Y004643D01*
X001160Y004801D02*
X001680Y004801D01*
X001752Y004960D02*
X001160Y004960D01*
X001160Y005118D02*
X001911Y005118D01*
X006026Y004801D02*
X006334Y004801D01*
X006223Y004643D02*
X006137Y004643D01*
X006180Y004484D02*
X006180Y004484D01*
X006180Y004326D02*
X006180Y004326D01*
X006180Y004167D02*
X006180Y004167D01*
X006180Y004009D02*
X006180Y004009D01*
X006180Y003850D02*
X006180Y003850D01*
X006127Y003692D02*
X006233Y003692D01*
X006360Y003533D02*
X006000Y003533D01*
X011000Y003533D02*
X012373Y003533D01*
X012390Y003692D02*
X011127Y003692D01*
X011180Y003850D02*
X012390Y003850D01*
X012390Y004009D02*
X011180Y004009D01*
X011180Y004167D02*
X012390Y004167D01*
X012390Y004326D02*
X011180Y004326D01*
X011180Y004484D02*
X012390Y004484D01*
X012390Y004643D02*
X011137Y004643D01*
X011026Y004801D02*
X012390Y004801D01*
X012390Y004960D02*
X010970Y004960D01*
X010970Y005118D02*
X012390Y005118D01*
X012390Y005277D02*
X010970Y005277D01*
X011095Y005435D02*
X012390Y005435D01*
X012390Y005594D02*
X011254Y005594D01*
X011412Y005752D02*
X012390Y005752D01*
X012390Y005911D02*
X011571Y005911D01*
X011698Y006069D02*
X012390Y006069D01*
X012390Y006228D02*
X011720Y006228D01*
X011720Y006386D02*
X012390Y006386D01*
X012390Y006545D02*
X011720Y006545D01*
X011720Y006703D02*
X012390Y006703D01*
X012390Y006862D02*
X011720Y006862D01*
X011720Y007020D02*
X012390Y007020D01*
X012390Y007179D02*
X011720Y007179D01*
X011720Y007337D02*
X012390Y007337D01*
X012390Y007496D02*
X011720Y007496D01*
X011720Y007654D02*
X012390Y007654D01*
X012390Y007813D02*
X011720Y007813D01*
X011720Y007971D02*
X012390Y007971D01*
X012390Y008130D02*
X011720Y008130D01*
X011720Y008288D02*
X012390Y008288D01*
X012390Y008447D02*
X011720Y008447D01*
X011720Y008605D02*
X012390Y008605D01*
X012390Y008764D02*
X011720Y008764D01*
X011720Y008922D02*
X012390Y008922D01*
X012390Y009081D02*
X011720Y009081D01*
X011720Y009239D02*
X012390Y009239D01*
X012390Y009398D02*
X011720Y009398D01*
X011720Y009556D02*
X012390Y009556D01*
X012390Y009715D02*
X011720Y009715D01*
X011720Y009873D02*
X012390Y009873D01*
X012390Y010032D02*
X011720Y010032D01*
X011720Y010190D02*
X012390Y010190D01*
X012390Y010349D02*
X011720Y010349D01*
X011720Y010507D02*
X012390Y010507D01*
X012390Y010666D02*
X011720Y010666D01*
X011720Y010824D02*
X012390Y010824D01*
X012390Y010983D02*
X011720Y010983D01*
X011720Y011141D02*
X012390Y011141D01*
X012390Y011300D02*
X011720Y011300D01*
X011720Y011458D02*
X012390Y011458D01*
X012390Y011617D02*
X011654Y011617D01*
X011495Y011775D02*
X012390Y011775D01*
X012390Y011934D02*
X011337Y011934D01*
X011178Y012092D02*
X012390Y012092D01*
X012390Y012251D02*
X011020Y012251D01*
X010861Y012409D02*
X012390Y012409D01*
X012390Y012568D02*
X010703Y012568D01*
X010544Y012726D02*
X012390Y012726D01*
X012390Y012885D02*
X009833Y012885D01*
X009575Y013043D02*
X012390Y013043D01*
X012390Y013202D02*
X009208Y013202D01*
X009283Y013360D02*
X012390Y013360D01*
X012390Y013519D02*
X009301Y013519D01*
X009271Y013677D02*
X012390Y013677D01*
X012390Y013836D02*
X009179Y013836D01*
X008934Y013994D02*
X012390Y013994D01*
X012390Y014153D02*
X008720Y014153D01*
X008690Y014311D02*
X010842Y014311D01*
X010973Y014180D02*
X010680Y014473D01*
X010680Y014887D01*
X010973Y015180D01*
X011387Y015180D01*
X011680Y014887D01*
X011680Y014473D01*
X011387Y014180D01*
X010973Y014180D01*
X010683Y014470D02*
X008551Y014470D01*
X008392Y014628D02*
X010680Y014628D01*
X010680Y014787D02*
X008234Y014787D01*
X008075Y014945D02*
X010738Y014945D01*
X010896Y015104D02*
X007917Y015104D01*
X005943Y015104D02*
X001160Y015104D01*
X001160Y015262D02*
X012390Y015262D01*
X012379Y015104D02*
X012390Y015104D01*
X012180Y015104D02*
X012180Y015104D01*
X012180Y015120D02*
X011998Y015120D01*
X011740Y014862D01*
X011740Y014680D01*
X012180Y014680D01*
X012180Y014680D01*
X012180Y014680D01*
X012180Y015120D01*
X012180Y014945D02*
X012180Y014945D01*
X012180Y014787D02*
X012180Y014787D01*
X012180Y014680D02*
X011740Y014680D01*
X011740Y014498D01*
X011998Y014240D01*
X012180Y014240D01*
X012180Y014680D01*
X012180Y014628D02*
X012180Y014628D01*
X012180Y014470D02*
X012180Y014470D01*
X012180Y014311D02*
X012180Y014311D01*
X011927Y014311D02*
X011518Y014311D01*
X011677Y014470D02*
X011768Y014470D01*
X011740Y014628D02*
X011680Y014628D01*
X011680Y014787D02*
X011740Y014787D01*
X011823Y014945D02*
X011622Y014945D01*
X011464Y015104D02*
X011981Y015104D01*
X012390Y015421D02*
X001160Y015421D01*
X001160Y015579D02*
X012390Y015579D01*
X012390Y015738D02*
X001160Y015738D01*
X001160Y015896D02*
X012390Y015896D01*
X012390Y016055D02*
X001160Y016055D01*
X001160Y016213D02*
X012390Y016213D01*
X012390Y016372D02*
X001160Y016372D01*
X001160Y016530D02*
X012390Y016530D01*
X012390Y016689D02*
X001160Y016689D01*
X001160Y016847D02*
X012390Y016847D01*
X012390Y017006D02*
X001160Y017006D01*
X001160Y017164D02*
X012390Y017164D01*
X012390Y017323D02*
X001160Y017323D01*
X001160Y017481D02*
X012390Y017481D01*
X012479Y017640D02*
X001160Y017640D01*
X001160Y017798D02*
X004835Y017798D01*
X004711Y017957D02*
X001160Y017957D01*
X001160Y018115D02*
X004660Y018115D01*
X004660Y018274D02*
X001160Y018274D01*
X001160Y018432D02*
X001808Y018432D01*
X001509Y018591D02*
X001160Y018591D01*
X001160Y018749D02*
X001310Y018749D01*
X001164Y018908D02*
X001160Y018908D01*
X003079Y018432D02*
X004723Y018432D01*
X004863Y018591D02*
X003353Y018591D01*
X003546Y018749D02*
X004894Y018749D01*
X004732Y018908D02*
X003694Y018908D01*
X003814Y019066D02*
X004666Y019066D01*
X004660Y019225D02*
X003890Y019225D01*
X003967Y019383D02*
X004703Y019383D01*
X004814Y019542D02*
X004011Y019542D01*
X004035Y019700D02*
X005012Y019700D01*
X004774Y019859D02*
X004059Y019859D01*
X004057Y020017D02*
X004686Y020017D01*
X004660Y020176D02*
X004033Y020176D01*
X004009Y020334D02*
X004683Y020334D01*
X004765Y020493D02*
X003959Y020493D01*
X003883Y020651D02*
X004991Y020651D01*
X005849Y020651D02*
X008511Y020651D01*
X008285Y020493D02*
X006075Y020493D01*
X006157Y020334D02*
X008203Y020334D01*
X008180Y020176D02*
X006180Y020176D01*
X003806Y020810D02*
X050899Y020810D01*
X051118Y020968D02*
X003679Y020968D01*
X009369Y020651D02*
X010944Y020651D01*
X010785Y020493D02*
X009595Y020493D01*
X009677Y020334D02*
X010680Y020334D01*
X010680Y020176D02*
X009700Y020176D01*
X011416Y020651D02*
X014944Y020651D01*
X014785Y020493D02*
X011575Y020493D01*
X011680Y020334D02*
X014680Y020334D01*
X014680Y020176D02*
X011680Y020176D01*
X011603Y019225D02*
X011757Y019225D01*
X011691Y019066D02*
X011669Y019066D01*
X011680Y018908D02*
X011680Y018908D01*
X011680Y018749D02*
X011680Y018749D01*
X011680Y018591D02*
X011680Y018591D01*
X011680Y018432D02*
X011680Y018432D01*
X011661Y018274D02*
X011699Y018274D01*
X011778Y018115D02*
X011582Y018115D01*
X011368Y017957D02*
X011992Y017957D01*
X012368Y017957D02*
X012840Y017957D01*
X012778Y018115D02*
X012582Y018115D01*
X012661Y018274D02*
X012699Y018274D01*
X012680Y018432D02*
X012680Y018432D01*
X012680Y018591D02*
X012680Y018591D01*
X012680Y018749D02*
X012680Y018749D01*
X012680Y018908D02*
X012680Y018908D01*
X012669Y019066D02*
X012691Y019066D01*
X012757Y019225D02*
X012603Y019225D01*
X010757Y019225D02*
X009638Y019225D01*
X009626Y019066D02*
X010691Y019066D01*
X010680Y018908D02*
X009546Y018908D01*
X009292Y018749D02*
X010680Y018749D01*
X010680Y018591D02*
X009497Y018591D01*
X009483Y018604D02*
X009299Y018680D01*
X008581Y018680D01*
X008397Y018604D01*
X008256Y018463D01*
X008180Y018279D01*
X008180Y018081D01*
X008256Y017897D01*
X008397Y017756D01*
X008581Y017680D01*
X009299Y017680D01*
X009483Y017756D01*
X009624Y017897D01*
X009700Y018081D01*
X009700Y018279D01*
X009624Y018463D01*
X009483Y018604D01*
X009637Y018432D02*
X010680Y018432D01*
X010699Y018274D02*
X009700Y018274D01*
X009700Y018115D02*
X010778Y018115D01*
X010992Y017957D02*
X009649Y017957D01*
X009525Y017798D02*
X012638Y017798D01*
X008680Y018740D02*
X008680Y019180D01*
X008240Y019180D01*
X008240Y019145D01*
X008251Y019077D01*
X008272Y019011D01*
X008304Y018949D01*
X008344Y018893D01*
X008393Y018844D01*
X008449Y018804D01*
X008511Y018772D01*
X008577Y018751D01*
X008645Y018740D01*
X008680Y018740D01*
X008680Y018749D02*
X008680Y018749D01*
X008588Y018749D02*
X005946Y018749D01*
X005977Y018591D02*
X008383Y018591D01*
X008243Y018432D02*
X006117Y018432D01*
X006180Y018274D02*
X008180Y018274D01*
X008180Y018115D02*
X006180Y018115D01*
X006129Y017957D02*
X008231Y017957D01*
X008355Y017798D02*
X006005Y017798D01*
X006108Y018908D02*
X008334Y018908D01*
X008254Y019066D02*
X006174Y019066D01*
X006234Y019225D02*
X008242Y019225D01*
X008680Y019066D02*
X008680Y019066D01*
X008680Y018908D02*
X008680Y018908D01*
X015416Y020651D02*
X040387Y020651D01*
X040229Y020493D02*
X015575Y020493D01*
X015680Y020334D02*
X040140Y020334D01*
X040140Y020176D02*
X015680Y020176D01*
X020141Y017481D02*
X025390Y017481D01*
X025390Y017323D02*
X019983Y017323D01*
X019824Y017164D02*
X025390Y017164D01*
X025390Y017006D02*
X019666Y017006D01*
X019507Y016847D02*
X025390Y016847D01*
X025390Y016689D02*
X019349Y016689D01*
X020300Y017640D02*
X025479Y017640D01*
X025390Y016530D02*
X013720Y016530D01*
X013720Y016372D02*
X025390Y016372D01*
X025390Y016213D02*
X013720Y016213D01*
X013720Y016055D02*
X025390Y016055D01*
X025390Y015896D02*
X013720Y015896D01*
X013720Y015738D02*
X025390Y015738D01*
X025390Y015579D02*
X013720Y015579D01*
X013720Y015421D02*
X025390Y015421D01*
X025390Y015262D02*
X013720Y015262D01*
X013720Y015104D02*
X018943Y015104D01*
X018785Y014945D02*
X013720Y014945D01*
X013720Y014787D02*
X018626Y014787D01*
X018468Y014628D02*
X013720Y014628D01*
X013720Y014470D02*
X018315Y014470D01*
X018274Y014311D02*
X013720Y014311D01*
X013720Y014153D02*
X018274Y014153D01*
X018274Y013994D02*
X013720Y013994D01*
X013720Y013836D02*
X018181Y013836D01*
X018089Y013677D02*
X013720Y013677D01*
X013720Y013519D02*
X018059Y013519D01*
X017200Y013360D02*
X013720Y013360D01*
X013720Y013202D02*
X017041Y013202D01*
X016883Y013043D02*
X013720Y013043D01*
X013720Y012885D02*
X016724Y012885D01*
X016566Y012726D02*
X013720Y012726D01*
X013720Y012568D02*
X016407Y012568D01*
X016249Y012409D02*
X013720Y012409D01*
X013720Y012251D02*
X016090Y012251D01*
X015933Y012092D02*
X013720Y012092D01*
X013720Y011934D02*
X015890Y011934D01*
X015890Y011775D02*
X013720Y011775D01*
X013720Y011617D02*
X015890Y011617D01*
X015890Y011458D02*
X013720Y011458D01*
X013720Y011300D02*
X015890Y011300D01*
X015890Y011141D02*
X013720Y011141D01*
X013720Y010983D02*
X015890Y010983D01*
X015890Y010824D02*
X013720Y010824D01*
X013720Y010666D02*
X015890Y010666D01*
X015890Y010507D02*
X013720Y010507D01*
X013720Y010349D02*
X015890Y010349D01*
X015890Y010190D02*
X013720Y010190D01*
X013720Y010032D02*
X015890Y010032D01*
X015890Y009873D02*
X013720Y009873D01*
X013720Y009715D02*
X015890Y009715D01*
X015890Y009556D02*
X013720Y009556D01*
X013720Y009398D02*
X015890Y009398D01*
X015890Y009239D02*
X013720Y009239D01*
X013720Y009081D02*
X015890Y009081D01*
X015890Y008922D02*
X013720Y008922D01*
X013720Y008764D02*
X015890Y008764D01*
X015890Y008605D02*
X013720Y008605D01*
X013720Y008447D02*
X015890Y008447D01*
X015890Y008288D02*
X013720Y008288D01*
X013720Y008130D02*
X015890Y008130D01*
X015890Y007971D02*
X013720Y007971D01*
X013720Y007813D02*
X015890Y007813D01*
X015890Y007654D02*
X013720Y007654D01*
X013720Y007496D02*
X015890Y007496D01*
X015890Y007337D02*
X013720Y007337D01*
X013720Y007179D02*
X015890Y007179D01*
X015890Y007020D02*
X015462Y007020D01*
X015362Y007120D02*
X015620Y006862D01*
X015620Y006680D01*
X015180Y006680D01*
X015180Y006680D01*
X015180Y007120D01*
X015362Y007120D01*
X015180Y007120D02*
X014998Y007120D01*
X014740Y006862D01*
X014740Y006680D01*
X015180Y006680D01*
X015180Y006680D01*
X015180Y006680D01*
X015180Y007120D01*
X015180Y007020D02*
X015180Y007020D01*
X015180Y006862D02*
X015180Y006862D01*
X015180Y006703D02*
X015180Y006703D01*
X015180Y006680D02*
X014740Y006680D01*
X014740Y006498D01*
X014998Y006240D01*
X015180Y006240D01*
X015362Y006240D01*
X015620Y006498D01*
X015620Y006680D01*
X015180Y006680D01*
X015180Y006240D01*
X015180Y006680D01*
X015180Y006680D01*
X015180Y006545D02*
X015180Y006545D01*
X015180Y006386D02*
X015180Y006386D01*
X015508Y006386D02*
X015890Y006386D01*
X015890Y006228D02*
X013720Y006228D01*
X013720Y006386D02*
X014852Y006386D01*
X014740Y006545D02*
X013720Y006545D01*
X013720Y006703D02*
X014740Y006703D01*
X014740Y006862D02*
X013720Y006862D01*
X013720Y007020D02*
X014898Y007020D01*
X015620Y006862D02*
X015890Y006862D01*
X015890Y006703D02*
X015620Y006703D01*
X015620Y006545D02*
X015890Y006545D01*
X016470Y006386D02*
X016890Y006386D01*
X016890Y006228D02*
X016470Y006228D01*
X016470Y006069D02*
X016912Y006069D01*
X017039Y005911D02*
X016470Y005911D01*
X016470Y005752D02*
X017198Y005752D01*
X016470Y005594D02*
X022933Y005594D01*
X023092Y005752D02*
X022662Y005752D01*
X022821Y005911D02*
X023250Y005911D01*
X023409Y006069D02*
X022948Y006069D01*
X022970Y006228D02*
X023567Y006228D01*
X023726Y006386D02*
X022970Y006386D01*
X023012Y006545D02*
X023348Y006545D01*
X023229Y006703D02*
X023131Y006703D01*
X023180Y006862D02*
X023180Y006862D01*
X023180Y007020D02*
X023180Y007020D01*
X023180Y007179D02*
X023180Y007179D01*
X024720Y007179D02*
X025390Y007179D01*
X025390Y007337D02*
X024720Y007337D01*
X024720Y007496D02*
X025390Y007496D01*
X025390Y007654D02*
X024720Y007654D01*
X024720Y007813D02*
X025390Y007813D01*
X025390Y007971D02*
X024720Y007971D01*
X024720Y008130D02*
X025390Y008130D01*
X025390Y008288D02*
X024720Y008288D01*
X024720Y008447D02*
X025390Y008447D01*
X025390Y008605D02*
X024720Y008605D01*
X024720Y008764D02*
X025390Y008764D01*
X025390Y008922D02*
X024720Y008922D01*
X024720Y009081D02*
X025390Y009081D01*
X025390Y009239D02*
X024720Y009239D01*
X024720Y009398D02*
X025390Y009398D01*
X025390Y009556D02*
X024720Y009556D01*
X024720Y009715D02*
X025390Y009715D01*
X025390Y009873D02*
X024720Y009873D01*
X024720Y010032D02*
X025390Y010032D01*
X025390Y010190D02*
X024720Y010190D01*
X024720Y010349D02*
X025390Y010349D01*
X025390Y010507D02*
X024720Y010507D01*
X024720Y010666D02*
X025390Y010666D01*
X025390Y010824D02*
X024720Y010824D01*
X024720Y010983D02*
X025390Y010983D01*
X025390Y011141D02*
X024720Y011141D01*
X024720Y011300D02*
X025390Y011300D01*
X025390Y011458D02*
X024720Y011458D01*
X024654Y011617D02*
X025390Y011617D01*
X025390Y011775D02*
X024495Y011775D01*
X024337Y011934D02*
X025390Y011934D01*
X025390Y012092D02*
X024178Y012092D01*
X024020Y012251D02*
X025390Y012251D01*
X025390Y012409D02*
X023861Y012409D01*
X023703Y012568D02*
X025390Y012568D01*
X025390Y012726D02*
X023544Y012726D01*
X022833Y012885D02*
X025390Y012885D01*
X025390Y013043D02*
X022575Y013043D01*
X022342Y013043D02*
X022003Y013043D01*
X022084Y012885D02*
X021470Y012885D01*
X021470Y013043D02*
X021589Y013043D01*
X022208Y013202D02*
X025390Y013202D01*
X025390Y013360D02*
X022283Y013360D01*
X022301Y013519D02*
X025390Y013519D01*
X025390Y013677D02*
X022271Y013677D01*
X022179Y013836D02*
X025390Y013836D01*
X025390Y013994D02*
X021934Y013994D01*
X021720Y014153D02*
X025390Y014153D01*
X025180Y014240D02*
X025180Y014680D01*
X025180Y014680D01*
X025180Y014680D01*
X024740Y014680D01*
X024740Y014862D01*
X024998Y015120D01*
X025180Y015120D01*
X025180Y014680D01*
X024740Y014680D01*
X024740Y014498D01*
X024998Y014240D01*
X025180Y014240D01*
X025180Y014311D02*
X025180Y014311D01*
X025180Y014470D02*
X025180Y014470D01*
X025180Y014628D02*
X025180Y014628D01*
X025180Y014787D02*
X025180Y014787D01*
X025180Y014945D02*
X025180Y014945D01*
X025180Y015104D02*
X025180Y015104D01*
X025379Y015104D02*
X025390Y015104D01*
X024981Y015104D02*
X024464Y015104D01*
X024387Y015180D02*
X023973Y015180D01*
X023680Y014887D01*
X023680Y014473D01*
X023973Y014180D01*
X024387Y014180D01*
X024680Y014473D01*
X024680Y014887D01*
X024387Y015180D01*
X024622Y014945D02*
X024823Y014945D01*
X024740Y014787D02*
X024680Y014787D01*
X024680Y014628D02*
X024740Y014628D01*
X024768Y014470D02*
X024677Y014470D01*
X024518Y014311D02*
X024927Y014311D01*
X023842Y014311D02*
X021690Y014311D01*
X021551Y014470D02*
X023683Y014470D01*
X023680Y014628D02*
X021392Y014628D01*
X021234Y014787D02*
X023680Y014787D01*
X023738Y014945D02*
X021075Y014945D01*
X020917Y015104D02*
X023896Y015104D01*
X026720Y015104D02*
X034943Y015104D01*
X034785Y014945D02*
X026720Y014945D01*
X026720Y014787D02*
X034626Y014787D01*
X034468Y014628D02*
X026720Y014628D01*
X026720Y014470D02*
X034315Y014470D01*
X034274Y014311D02*
X026720Y014311D01*
X026720Y014153D02*
X034274Y014153D01*
X034274Y013994D02*
X026720Y013994D01*
X026720Y013836D02*
X034181Y013836D01*
X034089Y013677D02*
X026720Y013677D01*
X026720Y013519D02*
X034059Y013519D01*
X033200Y013360D02*
X026720Y013360D01*
X026720Y013202D02*
X033041Y013202D01*
X032883Y013043D02*
X026720Y013043D01*
X026720Y012885D02*
X032724Y012885D01*
X032566Y012726D02*
X026720Y012726D01*
X026720Y012568D02*
X032407Y012568D01*
X032249Y012409D02*
X026720Y012409D01*
X026720Y012251D02*
X032090Y012251D01*
X031933Y012092D02*
X026720Y012092D01*
X026720Y011934D02*
X031890Y011934D01*
X031890Y011775D02*
X026720Y011775D01*
X026720Y011617D02*
X031890Y011617D01*
X031890Y011458D02*
X026720Y011458D01*
X026720Y011300D02*
X031890Y011300D01*
X031890Y011141D02*
X026720Y011141D01*
X026720Y010983D02*
X031890Y010983D01*
X031890Y010824D02*
X026720Y010824D01*
X026720Y010666D02*
X031890Y010666D01*
X031890Y010507D02*
X026720Y010507D01*
X026720Y010349D02*
X031890Y010349D01*
X031890Y010190D02*
X026720Y010190D01*
X026720Y010032D02*
X031890Y010032D01*
X031890Y009873D02*
X026720Y009873D01*
X026720Y009715D02*
X031890Y009715D01*
X031890Y009556D02*
X026720Y009556D01*
X026720Y009398D02*
X031890Y009398D01*
X031890Y009239D02*
X026720Y009239D01*
X026720Y009081D02*
X031890Y009081D01*
X031890Y008922D02*
X026720Y008922D01*
X026720Y008764D02*
X031890Y008764D01*
X031890Y008605D02*
X026720Y008605D01*
X026720Y008447D02*
X031890Y008447D01*
X031890Y008288D02*
X026720Y008288D01*
X026720Y008130D02*
X031890Y008130D01*
X031890Y007971D02*
X026720Y007971D01*
X026720Y007813D02*
X031890Y007813D01*
X031890Y007654D02*
X026720Y007654D01*
X026720Y007496D02*
X031890Y007496D01*
X031890Y007337D02*
X026720Y007337D01*
X026720Y007179D02*
X031890Y007179D01*
X031890Y007020D02*
X031462Y007020D01*
X031362Y007120D02*
X031180Y007120D01*
X031180Y006680D01*
X031180Y006680D01*
X031620Y006680D01*
X031620Y006862D01*
X031362Y007120D01*
X031180Y007120D02*
X030998Y007120D01*
X030740Y006862D01*
X030740Y006680D01*
X031180Y006680D01*
X031180Y006680D01*
X031180Y006680D01*
X031180Y007120D01*
X031180Y007020D02*
X031180Y007020D01*
X031180Y006862D02*
X031180Y006862D01*
X031180Y006703D02*
X031180Y006703D01*
X031180Y006680D02*
X030740Y006680D01*
X030740Y006498D01*
X030998Y006240D01*
X031180Y006240D01*
X031362Y006240D01*
X031620Y006498D01*
X031620Y006680D01*
X031180Y006680D01*
X031180Y006240D01*
X031180Y006680D01*
X031180Y006680D01*
X031180Y006545D02*
X031180Y006545D01*
X031180Y006386D02*
X031180Y006386D01*
X031508Y006386D02*
X031890Y006386D01*
X031890Y006228D02*
X026720Y006228D01*
X026720Y006386D02*
X030852Y006386D01*
X030740Y006545D02*
X026720Y006545D01*
X026720Y006703D02*
X030740Y006703D01*
X030740Y006862D02*
X026720Y006862D01*
X026720Y007020D02*
X030898Y007020D01*
X031620Y006862D02*
X031890Y006862D01*
X031890Y006703D02*
X031620Y006703D01*
X031620Y006545D02*
X031890Y006545D01*
X032470Y006386D02*
X032890Y006386D01*
X032890Y006228D02*
X032470Y006228D01*
X032470Y006069D02*
X032912Y006069D01*
X033039Y005911D02*
X032470Y005911D01*
X032470Y005752D02*
X033198Y005752D01*
X032470Y005594D02*
X038933Y005594D01*
X039092Y005752D02*
X038662Y005752D01*
X038821Y005911D02*
X039250Y005911D01*
X039409Y006069D02*
X038948Y006069D01*
X038970Y006228D02*
X039567Y006228D01*
X039726Y006386D02*
X038970Y006386D01*
X039012Y006545D02*
X039348Y006545D01*
X039229Y006703D02*
X039131Y006703D01*
X039180Y006862D02*
X039180Y006862D01*
X039180Y007020D02*
X039180Y007020D01*
X039180Y007179D02*
X039180Y007179D01*
X040720Y007179D02*
X041390Y007179D01*
X041390Y007337D02*
X040720Y007337D01*
X040720Y007496D02*
X041390Y007496D01*
X041390Y007654D02*
X040720Y007654D01*
X040720Y007813D02*
X041390Y007813D01*
X041390Y007971D02*
X040720Y007971D01*
X040720Y008130D02*
X041390Y008130D01*
X041390Y008288D02*
X040720Y008288D01*
X040720Y008447D02*
X041390Y008447D01*
X041390Y008605D02*
X040720Y008605D01*
X040720Y008764D02*
X041390Y008764D01*
X041390Y008922D02*
X040720Y008922D01*
X040720Y009081D02*
X041390Y009081D01*
X041390Y009239D02*
X040720Y009239D01*
X040720Y009398D02*
X041390Y009398D01*
X041390Y009556D02*
X040720Y009556D01*
X040720Y009715D02*
X041390Y009715D01*
X041390Y009873D02*
X040720Y009873D01*
X040720Y010032D02*
X041390Y010032D01*
X041390Y010190D02*
X040720Y010190D01*
X040720Y010349D02*
X041390Y010349D01*
X041390Y010507D02*
X040720Y010507D01*
X040720Y010666D02*
X041390Y010666D01*
X041390Y010824D02*
X040720Y010824D01*
X040720Y010983D02*
X041390Y010983D01*
X041390Y011141D02*
X040720Y011141D01*
X040720Y011300D02*
X041390Y011300D01*
X041390Y011458D02*
X040720Y011458D01*
X040654Y011617D02*
X041390Y011617D01*
X041390Y011775D02*
X040495Y011775D01*
X040337Y011934D02*
X041390Y011934D01*
X041390Y012092D02*
X040178Y012092D01*
X040020Y012251D02*
X041390Y012251D01*
X041390Y012409D02*
X039861Y012409D01*
X039703Y012568D02*
X041390Y012568D01*
X041390Y012726D02*
X039544Y012726D01*
X038833Y012885D02*
X041390Y012885D01*
X041390Y013043D02*
X038575Y013043D01*
X038342Y013043D02*
X038003Y013043D01*
X038084Y012885D02*
X037470Y012885D01*
X037470Y013043D02*
X037589Y013043D01*
X038208Y013202D02*
X041390Y013202D01*
X041390Y013360D02*
X038283Y013360D01*
X038301Y013519D02*
X041390Y013519D01*
X041390Y013677D02*
X038271Y013677D01*
X038179Y013836D02*
X041390Y013836D01*
X041390Y013994D02*
X037934Y013994D01*
X037720Y014153D02*
X041390Y014153D01*
X041180Y014240D02*
X041180Y014680D01*
X041180Y014680D01*
X041180Y014680D01*
X040740Y014680D01*
X040740Y014862D01*
X040998Y015120D01*
X041180Y015120D01*
X041180Y014680D01*
X040740Y014680D01*
X040740Y014498D01*
X040998Y014240D01*
X041180Y014240D01*
X041180Y014311D02*
X041180Y014311D01*
X041180Y014470D02*
X041180Y014470D01*
X041180Y014628D02*
X041180Y014628D01*
X041180Y014787D02*
X041180Y014787D01*
X041180Y014945D02*
X041180Y014945D01*
X041180Y015104D02*
X041180Y015104D01*
X041379Y015104D02*
X041390Y015104D01*
X041390Y015262D02*
X026720Y015262D01*
X026720Y015421D02*
X041390Y015421D01*
X041390Y015579D02*
X026720Y015579D01*
X026720Y015738D02*
X041390Y015738D01*
X041390Y015896D02*
X026720Y015896D01*
X026720Y016055D02*
X041390Y016055D01*
X041390Y016213D02*
X026720Y016213D01*
X026720Y016372D02*
X041390Y016372D01*
X041408Y016530D02*
X026720Y016530D01*
X036917Y015104D02*
X039896Y015104D01*
X039973Y015180D02*
X039680Y014887D01*
X039680Y014473D01*
X039973Y014180D01*
X040387Y014180D01*
X040680Y014473D01*
X040680Y014887D01*
X040387Y015180D01*
X039973Y015180D01*
X039738Y014945D02*
X037075Y014945D01*
X037234Y014787D02*
X039680Y014787D01*
X039680Y014628D02*
X037392Y014628D01*
X037551Y014470D02*
X039683Y014470D01*
X039842Y014311D02*
X037690Y014311D01*
X040518Y014311D02*
X040927Y014311D01*
X040768Y014470D02*
X040677Y014470D01*
X040680Y014628D02*
X040740Y014628D01*
X040740Y014787D02*
X040680Y014787D01*
X040622Y014945D02*
X040823Y014945D01*
X040981Y015104D02*
X040464Y015104D01*
X042720Y015104D02*
X047943Y015104D01*
X047785Y014945D02*
X042720Y014945D01*
X042720Y014787D02*
X047626Y014787D01*
X047468Y014628D02*
X042720Y014628D01*
X042720Y014470D02*
X047315Y014470D01*
X047274Y014311D02*
X042720Y014311D01*
X042720Y014153D02*
X047274Y014153D01*
X047274Y013994D02*
X042720Y013994D01*
X042720Y013836D02*
X047181Y013836D01*
X047089Y013677D02*
X042720Y013677D01*
X042720Y013519D02*
X047059Y013519D01*
X046200Y013360D02*
X042720Y013360D01*
X042720Y013202D02*
X046041Y013202D01*
X045883Y013043D02*
X042720Y013043D01*
X042720Y012885D02*
X045724Y012885D01*
X045566Y012726D02*
X042720Y012726D01*
X042720Y012568D02*
X045407Y012568D01*
X045249Y012409D02*
X042720Y012409D01*
X042720Y012251D02*
X045090Y012251D01*
X044933Y012092D02*
X042720Y012092D01*
X042720Y011934D02*
X044890Y011934D01*
X044890Y011775D02*
X042720Y011775D01*
X042720Y011617D02*
X044890Y011617D01*
X044890Y011458D02*
X042720Y011458D01*
X042720Y011300D02*
X044890Y011300D01*
X044890Y011141D02*
X042720Y011141D01*
X042720Y010983D02*
X044890Y010983D01*
X044890Y010824D02*
X042720Y010824D01*
X042720Y010666D02*
X044890Y010666D01*
X044890Y010507D02*
X042720Y010507D01*
X042720Y010349D02*
X044890Y010349D01*
X044890Y010190D02*
X042720Y010190D01*
X042720Y010032D02*
X044890Y010032D01*
X044890Y009873D02*
X042720Y009873D01*
X042720Y009715D02*
X044890Y009715D01*
X044890Y009556D02*
X042720Y009556D01*
X042720Y009398D02*
X044890Y009398D01*
X044890Y009239D02*
X042720Y009239D01*
X042720Y009081D02*
X044890Y009081D01*
X044890Y008922D02*
X042720Y008922D01*
X042720Y008764D02*
X044890Y008764D01*
X044890Y008605D02*
X042720Y008605D01*
X042720Y008447D02*
X044890Y008447D01*
X044890Y008288D02*
X042720Y008288D01*
X042720Y008130D02*
X044890Y008130D01*
X044890Y007971D02*
X042720Y007971D01*
X042720Y007813D02*
X044890Y007813D01*
X044890Y007654D02*
X042720Y007654D01*
X042720Y007496D02*
X044890Y007496D01*
X044890Y007337D02*
X042720Y007337D01*
X042720Y007179D02*
X044890Y007179D01*
X044890Y007020D02*
X044462Y007020D01*
X044362Y007120D02*
X044620Y006862D01*
X044620Y006680D01*
X044180Y006680D01*
X044180Y006680D01*
X044180Y007120D01*
X044362Y007120D01*
X044180Y007120D02*
X043998Y007120D01*
X043740Y006862D01*
X043740Y006680D01*
X044180Y006680D01*
X044180Y006680D01*
X044180Y006680D01*
X044180Y007120D01*
X044180Y007020D02*
X044180Y007020D01*
X044180Y006862D02*
X044180Y006862D01*
X044180Y006703D02*
X044180Y006703D01*
X044180Y006680D02*
X043740Y006680D01*
X043740Y006498D01*
X043998Y006240D01*
X044180Y006240D01*
X044362Y006240D01*
X044620Y006498D01*
X044620Y006680D01*
X044180Y006680D01*
X044180Y006240D01*
X044180Y006680D01*
X044180Y006680D01*
X044180Y006545D02*
X044180Y006545D01*
X044180Y006386D02*
X044180Y006386D01*
X044508Y006386D02*
X044890Y006386D01*
X044890Y006228D02*
X042720Y006228D01*
X042720Y006386D02*
X043852Y006386D01*
X043740Y006545D02*
X042720Y006545D01*
X042720Y006703D02*
X043740Y006703D01*
X043740Y006862D02*
X042720Y006862D01*
X042720Y007020D02*
X043898Y007020D01*
X044620Y006862D02*
X044890Y006862D01*
X044890Y006703D02*
X044620Y006703D01*
X044620Y006545D02*
X044890Y006545D01*
X045470Y006386D02*
X045890Y006386D01*
X045890Y006228D02*
X045470Y006228D01*
X045470Y006069D02*
X045912Y006069D01*
X046039Y005911D02*
X045470Y005911D01*
X045470Y005752D02*
X046198Y005752D01*
X045470Y005594D02*
X051933Y005594D01*
X052092Y005752D02*
X051662Y005752D01*
X051821Y005911D02*
X052250Y005911D01*
X052409Y006069D02*
X051948Y006069D01*
X051970Y006228D02*
X052567Y006228D01*
X052726Y006386D02*
X051970Y006386D01*
X052012Y006545D02*
X052348Y006545D01*
X052229Y006703D02*
X052131Y006703D01*
X052180Y006862D02*
X052180Y006862D01*
X052180Y007020D02*
X052180Y007020D01*
X052180Y007179D02*
X052180Y007179D01*
X053720Y007179D02*
X054390Y007179D01*
X054390Y007337D02*
X053720Y007337D01*
X053720Y007496D02*
X054390Y007496D01*
X054390Y007654D02*
X053720Y007654D01*
X053720Y007813D02*
X054390Y007813D01*
X054390Y007971D02*
X053720Y007971D01*
X053720Y008130D02*
X054390Y008130D01*
X054390Y008288D02*
X053720Y008288D01*
X053720Y008447D02*
X054390Y008447D01*
X054390Y008605D02*
X053720Y008605D01*
X053720Y008764D02*
X054390Y008764D01*
X054390Y008922D02*
X053720Y008922D01*
X053720Y009081D02*
X054390Y009081D01*
X054390Y009239D02*
X053720Y009239D01*
X053720Y009398D02*
X054390Y009398D01*
X054390Y009556D02*
X053720Y009556D01*
X053720Y009715D02*
X054390Y009715D01*
X054390Y009873D02*
X053720Y009873D01*
X053720Y010032D02*
X054390Y010032D01*
X054390Y010190D02*
X053720Y010190D01*
X053720Y010349D02*
X054390Y010349D01*
X054390Y010507D02*
X053720Y010507D01*
X053720Y010666D02*
X054390Y010666D01*
X054390Y010824D02*
X053720Y010824D01*
X053720Y010983D02*
X054390Y010983D01*
X054390Y011141D02*
X053720Y011141D01*
X053720Y011300D02*
X054390Y011300D01*
X054390Y011458D02*
X053720Y011458D01*
X053654Y011617D02*
X054390Y011617D01*
X054390Y011775D02*
X053495Y011775D01*
X053337Y011934D02*
X054390Y011934D01*
X054390Y012092D02*
X053178Y012092D01*
X053020Y012251D02*
X054390Y012251D01*
X054390Y012409D02*
X052861Y012409D01*
X052703Y012568D02*
X054390Y012568D01*
X054390Y012726D02*
X052544Y012726D01*
X051833Y012885D02*
X054390Y012885D01*
X054390Y013043D02*
X051575Y013043D01*
X051342Y013043D02*
X051003Y013043D01*
X051084Y012885D02*
X050470Y012885D01*
X050470Y013043D02*
X050589Y013043D01*
X051208Y013202D02*
X054390Y013202D01*
X054390Y013360D02*
X051283Y013360D01*
X051301Y013519D02*
X054390Y013519D01*
X054390Y013677D02*
X051271Y013677D01*
X051179Y013836D02*
X054390Y013836D01*
X054390Y013994D02*
X050934Y013994D01*
X050720Y014153D02*
X054390Y014153D01*
X054180Y014240D02*
X054180Y014680D01*
X054180Y014680D01*
X054180Y014680D01*
X053740Y014680D01*
X053740Y014862D01*
X053998Y015120D01*
X054180Y015120D01*
X054180Y014680D01*
X053740Y014680D01*
X053740Y014498D01*
X053998Y014240D01*
X054180Y014240D01*
X054180Y014311D02*
X054180Y014311D01*
X054180Y014470D02*
X054180Y014470D01*
X054180Y014628D02*
X054180Y014628D01*
X054180Y014787D02*
X054180Y014787D01*
X054180Y014945D02*
X054180Y014945D01*
X054180Y015104D02*
X054180Y015104D01*
X054379Y015104D02*
X054390Y015104D01*
X054390Y015262D02*
X042720Y015262D01*
X042720Y015421D02*
X054390Y015421D01*
X054428Y015579D02*
X042739Y015579D01*
X049917Y015104D02*
X052896Y015104D01*
X052973Y015180D02*
X052680Y014887D01*
X052680Y014473D01*
X052973Y014180D01*
X053387Y014180D01*
X053680Y014473D01*
X053680Y014887D01*
X053387Y015180D01*
X052973Y015180D01*
X052738Y014945D02*
X050075Y014945D01*
X050234Y014787D02*
X052680Y014787D01*
X052680Y014628D02*
X050392Y014628D01*
X050551Y014470D02*
X052683Y014470D01*
X052842Y014311D02*
X050690Y014311D01*
X053518Y014311D02*
X053927Y014311D01*
X053768Y014470D02*
X053677Y014470D01*
X053680Y014628D02*
X053740Y014628D01*
X053740Y014787D02*
X053680Y014787D01*
X053622Y014945D02*
X053823Y014945D01*
X053981Y015104D02*
X053464Y015104D01*
X055720Y014470D02*
X063315Y014470D01*
X063318Y014478D02*
X063274Y014372D01*
X063274Y013929D01*
X063136Y013790D01*
X063059Y013605D01*
X063059Y013470D01*
X062372Y013470D01*
X062266Y013426D01*
X062184Y013344D01*
X060934Y012094D01*
X060890Y011988D01*
X060890Y004622D01*
X060934Y004516D01*
X061016Y004434D01*
X061180Y004270D01*
X061180Y003821D01*
X061222Y003720D01*
X060762Y003720D01*
X060679Y003803D01*
X060518Y003870D01*
X060342Y003870D01*
X060181Y003803D01*
X060057Y003679D01*
X059990Y003518D01*
X059990Y003342D01*
X060057Y003181D01*
X060181Y003057D01*
X060342Y002990D01*
X060518Y002990D01*
X060679Y003057D01*
X060762Y003140D01*
X063488Y003140D01*
X063594Y003184D01*
X063844Y003434D01*
X063866Y003456D01*
X063963Y003496D01*
X064104Y003637D01*
X064180Y003821D01*
X064180Y004539D01*
X064104Y004723D01*
X063963Y004864D01*
X063779Y004940D01*
X063581Y004940D01*
X063397Y004864D01*
X063256Y004723D01*
X063180Y004539D01*
X063104Y004723D01*
X062963Y004864D01*
X062779Y004940D01*
X062581Y004940D01*
X062397Y004864D01*
X062256Y004723D01*
X062180Y004539D01*
X062104Y004723D01*
X061963Y004864D01*
X061779Y004940D01*
X061581Y004940D01*
X061470Y004894D01*
X061470Y006466D01*
X061581Y006420D01*
X061779Y006420D01*
X061890Y006466D01*
X061890Y006122D01*
X061934Y006016D01*
X062184Y005766D01*
X062266Y005684D01*
X062372Y005640D01*
X067488Y005640D01*
X067594Y005684D01*
X067844Y005934D01*
X067926Y006016D01*
X067970Y006122D01*
X067970Y006503D01*
X068104Y006637D01*
X068180Y006821D01*
X068256Y006637D01*
X068397Y006496D01*
X068581Y006420D01*
X068760Y006420D01*
X067516Y005176D01*
X067434Y005094D01*
X067390Y004988D01*
X067390Y004857D01*
X067256Y004723D01*
X067180Y004539D01*
X067180Y003821D01*
X067256Y003637D01*
X067397Y003496D01*
X067581Y003420D01*
X067779Y003420D01*
X067963Y003496D01*
X068104Y003637D01*
X068180Y003821D01*
X068256Y003637D01*
X068397Y003496D01*
X068581Y003420D01*
X068779Y003420D01*
X068963Y003496D01*
X069104Y003637D01*
X069180Y003821D01*
X069180Y004539D01*
X069104Y004723D01*
X068970Y004857D01*
X068970Y005310D01*
X069676Y006016D01*
X069720Y006122D01*
X069720Y011488D01*
X069676Y011594D01*
X069594Y011676D01*
X068480Y012790D01*
X068374Y012834D01*
X067883Y012834D01*
X067745Y012973D01*
X067559Y013050D01*
X067358Y013050D01*
X067172Y012973D01*
X067030Y012830D01*
X066953Y012645D01*
X066953Y012444D01*
X067030Y012258D01*
X067172Y012116D01*
X067358Y012039D01*
X067559Y012039D01*
X067745Y012116D01*
X067883Y012254D01*
X068196Y012254D01*
X069140Y011310D01*
X069140Y011130D01*
X068638Y011632D01*
X068531Y011676D01*
X068024Y011676D01*
X067885Y011815D01*
X067700Y011892D01*
X067499Y011892D01*
X067313Y011815D01*
X067171Y011673D01*
X067094Y011487D01*
X067094Y011286D01*
X067171Y011100D01*
X067313Y010958D01*
X067499Y010881D01*
X067700Y010881D01*
X067885Y010958D01*
X068024Y011096D01*
X068354Y011096D01*
X068890Y010560D01*
X068890Y007894D01*
X068779Y007940D01*
X068581Y007940D01*
X068470Y007894D01*
X068470Y009359D01*
X068426Y009465D01*
X067691Y010200D01*
X067691Y010396D01*
X067614Y010582D01*
X067472Y010724D01*
X067286Y010801D01*
X067085Y010801D01*
X066899Y010724D01*
X066757Y010582D01*
X066680Y010396D01*
X066680Y010340D01*
X066470Y010550D01*
X066470Y013060D01*
X066498Y013088D01*
X066510Y013076D01*
X066696Y012999D01*
X066897Y012999D01*
X067082Y013076D01*
X067224Y013218D01*
X067301Y013404D01*
X067301Y013605D01*
X067224Y013790D01*
X067082Y013933D01*
X066897Y014009D01*
X066720Y014009D01*
X066720Y014238D01*
X066676Y014344D01*
X066594Y014426D01*
X065844Y015176D01*
X065738Y015220D01*
X064122Y015220D01*
X064016Y015176D01*
X063934Y015094D01*
X063318Y014478D01*
X063274Y014311D02*
X055720Y014311D01*
X055720Y014153D02*
X063274Y014153D01*
X063274Y013994D02*
X055720Y013994D01*
X055720Y013836D02*
X063181Y013836D01*
X063089Y013677D02*
X055720Y013677D01*
X055720Y013519D02*
X063059Y013519D01*
X062200Y013360D02*
X055720Y013360D01*
X055720Y013202D02*
X062041Y013202D01*
X061883Y013043D02*
X055720Y013043D01*
X055720Y012885D02*
X061724Y012885D01*
X061566Y012726D02*
X055720Y012726D01*
X055720Y012568D02*
X061407Y012568D01*
X061249Y012409D02*
X055720Y012409D01*
X055720Y012251D02*
X061090Y012251D01*
X060933Y012092D02*
X055720Y012092D01*
X055720Y011934D02*
X060890Y011934D01*
X060890Y011775D02*
X055720Y011775D01*
X055720Y011617D02*
X060890Y011617D01*
X060890Y011458D02*
X055720Y011458D01*
X055720Y011300D02*
X060890Y011300D01*
X060890Y011141D02*
X055720Y011141D01*
X055720Y010983D02*
X060890Y010983D01*
X060890Y010824D02*
X055720Y010824D01*
X055720Y010666D02*
X060890Y010666D01*
X060890Y010507D02*
X055720Y010507D01*
X055720Y010349D02*
X060890Y010349D01*
X060890Y010190D02*
X055720Y010190D01*
X055720Y010032D02*
X060890Y010032D01*
X060890Y009873D02*
X055720Y009873D01*
X055720Y009715D02*
X060890Y009715D01*
X060890Y009556D02*
X055720Y009556D01*
X055720Y009398D02*
X060890Y009398D01*
X060890Y009239D02*
X055720Y009239D01*
X055720Y009081D02*
X060890Y009081D01*
X060890Y008922D02*
X055720Y008922D01*
X055720Y008764D02*
X060890Y008764D01*
X060890Y008605D02*
X055720Y008605D01*
X055720Y008447D02*
X060890Y008447D01*
X060890Y008288D02*
X055720Y008288D01*
X055720Y008130D02*
X060890Y008130D01*
X060890Y007971D02*
X055720Y007971D01*
X055720Y007813D02*
X060890Y007813D01*
X060890Y007654D02*
X055720Y007654D01*
X055720Y007496D02*
X060890Y007496D01*
X060890Y007337D02*
X055720Y007337D01*
X055720Y007179D02*
X060890Y007179D01*
X060890Y007020D02*
X060462Y007020D01*
X060362Y007120D02*
X060180Y007120D01*
X060180Y006680D01*
X060180Y006680D01*
X060620Y006680D01*
X060620Y006862D01*
X060362Y007120D01*
X060180Y007120D02*
X059998Y007120D01*
X059740Y006862D01*
X059740Y006680D01*
X060180Y006680D01*
X060180Y006680D01*
X060180Y006680D01*
X060180Y007120D01*
X060180Y007020D02*
X060180Y007020D01*
X060180Y006862D02*
X060180Y006862D01*
X060180Y006703D02*
X060180Y006703D01*
X060180Y006680D02*
X059740Y006680D01*
X059740Y006498D01*
X059998Y006240D01*
X060180Y006240D01*
X060362Y006240D01*
X060620Y006498D01*
X060620Y006680D01*
X060180Y006680D01*
X060180Y006240D01*
X060180Y006680D01*
X060180Y006680D01*
X060180Y006545D02*
X060180Y006545D01*
X060180Y006386D02*
X060180Y006386D01*
X060508Y006386D02*
X060890Y006386D01*
X060890Y006228D02*
X055720Y006228D01*
X055720Y006386D02*
X059852Y006386D01*
X059740Y006545D02*
X055720Y006545D01*
X055720Y006703D02*
X059740Y006703D01*
X059740Y006862D02*
X055720Y006862D01*
X055720Y007020D02*
X059898Y007020D01*
X060620Y006862D02*
X060890Y006862D01*
X060890Y006703D02*
X060620Y006703D01*
X060620Y006545D02*
X060890Y006545D01*
X061470Y006386D02*
X061890Y006386D01*
X061890Y006228D02*
X061470Y006228D01*
X061470Y006069D02*
X061912Y006069D01*
X062039Y005911D02*
X061470Y005911D01*
X061470Y005752D02*
X062198Y005752D01*
X061470Y005594D02*
X067933Y005594D01*
X068092Y005752D02*
X067662Y005752D01*
X067821Y005911D02*
X068250Y005911D01*
X068409Y006069D02*
X067948Y006069D01*
X067970Y006228D02*
X068567Y006228D01*
X068726Y006386D02*
X067970Y006386D01*
X068012Y006545D02*
X068348Y006545D01*
X068229Y006703D02*
X068131Y006703D01*
X068180Y006821D02*
X068180Y007270D01*
X068180Y007270D01*
X068180Y006821D01*
X068180Y006862D02*
X068180Y006862D01*
X068180Y007020D02*
X068180Y007020D01*
X068180Y007179D02*
X068180Y007179D01*
X069720Y007179D02*
X073890Y007179D01*
X073890Y007337D02*
X069720Y007337D01*
X069720Y007496D02*
X073890Y007496D01*
X073890Y007654D02*
X069720Y007654D01*
X069720Y007813D02*
X073890Y007813D01*
X073890Y007971D02*
X069720Y007971D01*
X069720Y008130D02*
X073890Y008130D01*
X073890Y008288D02*
X069720Y008288D01*
X069720Y008447D02*
X073890Y008447D01*
X073890Y008605D02*
X069720Y008605D01*
X069720Y008764D02*
X073890Y008764D01*
X073890Y008922D02*
X069720Y008922D01*
X069720Y009081D02*
X073890Y009081D01*
X073890Y009239D02*
X069720Y009239D01*
X069720Y009398D02*
X073890Y009398D01*
X073890Y009556D02*
X069720Y009556D01*
X069720Y009715D02*
X073890Y009715D01*
X073890Y009873D02*
X069720Y009873D01*
X069720Y010032D02*
X073890Y010032D01*
X073890Y010190D02*
X069720Y010190D01*
X069720Y010349D02*
X073890Y010349D01*
X073890Y010507D02*
X069720Y010507D01*
X069720Y010666D02*
X073890Y010666D01*
X073890Y010824D02*
X069720Y010824D01*
X069720Y010983D02*
X073890Y010983D01*
X073890Y011141D02*
X069720Y011141D01*
X069720Y011300D02*
X073890Y011300D01*
X073890Y011458D02*
X069720Y011458D01*
X069654Y011617D02*
X073890Y011617D01*
X073890Y011775D02*
X069495Y011775D01*
X069337Y011934D02*
X073890Y011934D01*
X073933Y012092D02*
X069178Y012092D01*
X069020Y012251D02*
X074090Y012251D01*
X074249Y012409D02*
X068861Y012409D01*
X068703Y012568D02*
X074407Y012568D01*
X074566Y012726D02*
X068544Y012726D01*
X067833Y012885D02*
X074724Y012885D01*
X074883Y013043D02*
X067575Y013043D01*
X067342Y013043D02*
X067003Y013043D01*
X067084Y012885D02*
X066470Y012885D01*
X066470Y013043D02*
X066589Y013043D01*
X067208Y013202D02*
X075041Y013202D01*
X075200Y013360D02*
X067283Y013360D01*
X067301Y013519D02*
X076059Y013519D01*
X076089Y013677D02*
X067271Y013677D01*
X067179Y013836D02*
X076181Y013836D01*
X076274Y013994D02*
X066934Y013994D01*
X066720Y014153D02*
X076274Y014153D01*
X076274Y014311D02*
X070433Y014311D01*
X070362Y014240D02*
X070620Y014498D01*
X070620Y014680D01*
X070620Y014862D01*
X070362Y015120D01*
X070180Y015120D01*
X070180Y014680D01*
X070620Y014680D01*
X070180Y014680D01*
X070180Y014680D01*
X070180Y014680D01*
X070180Y014240D01*
X070362Y014240D01*
X070180Y014240D02*
X070180Y014680D01*
X070180Y014680D01*
X070180Y014680D01*
X069740Y014680D01*
X069740Y014862D01*
X069998Y015120D01*
X070180Y015120D01*
X070180Y014680D01*
X069740Y014680D01*
X069740Y014498D01*
X069998Y014240D01*
X070180Y014240D01*
X070180Y014311D02*
X070180Y014311D01*
X070180Y014470D02*
X070180Y014470D01*
X070180Y014628D02*
X070180Y014628D01*
X070180Y014787D02*
X070180Y014787D01*
X070180Y014945D02*
X070180Y014945D01*
X070180Y015104D02*
X070180Y015104D01*
X070379Y015104D02*
X076943Y015104D01*
X076785Y014945D02*
X070537Y014945D01*
X070620Y014787D02*
X076626Y014787D01*
X076468Y014628D02*
X070620Y014628D01*
X070592Y014470D02*
X076315Y014470D01*
X078917Y015104D02*
X081346Y015104D01*
X081188Y015262D02*
X069008Y015262D01*
X068850Y015421D02*
X081029Y015421D01*
X080871Y015579D02*
X068691Y015579D01*
X068533Y015738D02*
X080712Y015738D01*
X080554Y015896D02*
X068374Y015896D01*
X068188Y015262D02*
X060321Y015262D01*
X060039Y015262D02*
X059970Y015262D01*
X059962Y015104D02*
X063943Y015104D01*
X063785Y014945D02*
X059855Y014945D01*
X059697Y014787D02*
X063626Y014787D01*
X063468Y014628D02*
X055788Y014628D01*
X060426Y016055D02*
X080395Y016055D01*
X081057Y016213D02*
X084192Y016213D01*
X084192Y016055D02*
X081216Y016055D01*
X081374Y015896D02*
X084192Y015896D01*
X084192Y015738D02*
X081533Y015738D01*
X081691Y015579D02*
X084192Y015579D01*
X084192Y015421D02*
X081850Y015421D01*
X082008Y015262D02*
X084192Y015262D01*
X084192Y015104D02*
X083379Y015104D01*
X083362Y015120D02*
X083180Y015120D01*
X083180Y014680D01*
X083620Y014680D01*
X083620Y014862D01*
X083362Y015120D01*
X083180Y015120D02*
X082998Y015120D01*
X082740Y014862D01*
X082740Y014680D01*
X083180Y014680D01*
X083180Y014680D01*
X083180Y014680D01*
X083620Y014680D01*
X083620Y014498D01*
X083362Y014240D01*
X083180Y014240D01*
X083180Y014680D01*
X083180Y014680D01*
X083180Y014680D01*
X083180Y015120D01*
X083180Y015104D02*
X083180Y015104D01*
X083180Y014945D02*
X083180Y014945D01*
X083180Y014787D02*
X083180Y014787D01*
X083180Y014680D02*
X082740Y014680D01*
X082740Y014498D01*
X082998Y014240D01*
X083180Y014240D01*
X083180Y014680D01*
X083180Y014628D02*
X083180Y014628D01*
X083180Y014470D02*
X083180Y014470D01*
X083180Y014311D02*
X083180Y014311D01*
X083433Y014311D02*
X084192Y014311D01*
X084192Y014153D02*
X079720Y014153D01*
X079690Y014311D02*
X081842Y014311D01*
X081683Y014470D02*
X079551Y014470D01*
X079392Y014628D02*
X081680Y014628D01*
X081663Y014787D02*
X079234Y014787D01*
X079075Y014945D02*
X081505Y014945D01*
X082464Y015104D02*
X082981Y015104D01*
X082823Y014945D02*
X082622Y014945D01*
X082680Y014787D02*
X082740Y014787D01*
X082740Y014628D02*
X082680Y014628D01*
X082677Y014470D02*
X082768Y014470D01*
X082927Y014311D02*
X082518Y014311D01*
X083592Y014470D02*
X084192Y014470D01*
X084192Y014628D02*
X083620Y014628D01*
X083620Y014787D02*
X084192Y014787D01*
X084192Y014945D02*
X083537Y014945D01*
X084192Y013994D02*
X079934Y013994D01*
X080179Y013836D02*
X084192Y013836D01*
X084192Y013677D02*
X080271Y013677D01*
X080301Y013519D02*
X084192Y013519D01*
X084192Y013360D02*
X080283Y013360D01*
X080208Y013202D02*
X084192Y013202D01*
X084192Y013043D02*
X080575Y013043D01*
X080342Y013043D02*
X080003Y013043D01*
X080084Y012885D02*
X079470Y012885D01*
X079470Y013043D02*
X079589Y013043D01*
X080833Y012885D02*
X084192Y012885D01*
X084192Y012726D02*
X081544Y012726D01*
X081703Y012568D02*
X084192Y012568D01*
X084192Y012409D02*
X081861Y012409D01*
X082020Y012251D02*
X084192Y012251D01*
X084192Y012092D02*
X082178Y012092D01*
X082337Y011934D02*
X084192Y011934D01*
X084192Y011775D02*
X082495Y011775D01*
X082654Y011617D02*
X084192Y011617D01*
X084192Y011458D02*
X082720Y011458D01*
X082720Y011300D02*
X084192Y011300D01*
X084192Y011141D02*
X082720Y011141D01*
X082720Y010983D02*
X084192Y010983D01*
X084192Y010824D02*
X082720Y010824D01*
X082720Y010666D02*
X084192Y010666D01*
X084192Y010507D02*
X082720Y010507D01*
X082720Y010349D02*
X084192Y010349D01*
X084192Y010190D02*
X082720Y010190D01*
X082720Y010032D02*
X084192Y010032D01*
X084192Y009873D02*
X082720Y009873D01*
X082720Y009715D02*
X084192Y009715D01*
X084192Y009556D02*
X082720Y009556D01*
X082720Y009398D02*
X084192Y009398D01*
X084192Y009239D02*
X082720Y009239D01*
X082720Y009081D02*
X084192Y009081D01*
X084192Y008922D02*
X082720Y008922D01*
X082720Y008764D02*
X084192Y008764D01*
X084192Y008605D02*
X082720Y008605D01*
X082720Y008447D02*
X084192Y008447D01*
X084192Y008288D02*
X082720Y008288D01*
X082720Y008130D02*
X084192Y008130D01*
X084192Y007971D02*
X082720Y007971D01*
X082720Y007813D02*
X084192Y007813D01*
X084192Y007654D02*
X082720Y007654D01*
X082720Y007496D02*
X084192Y007496D01*
X084192Y007337D02*
X082720Y007337D01*
X082720Y007179D02*
X084192Y007179D01*
X084192Y007020D02*
X082720Y007020D01*
X082720Y006862D02*
X084192Y006862D01*
X084192Y006703D02*
X082720Y006703D01*
X082720Y006545D02*
X084192Y006545D01*
X084192Y006386D02*
X082720Y006386D01*
X082720Y006228D02*
X084192Y006228D01*
X084192Y006069D02*
X082698Y006069D01*
X082571Y005911D02*
X084192Y005911D01*
X084192Y005752D02*
X082412Y005752D01*
X082254Y005594D02*
X084192Y005594D01*
X084192Y005435D02*
X082095Y005435D01*
X081970Y005277D02*
X084192Y005277D01*
X084192Y005118D02*
X081970Y005118D01*
X081970Y004960D02*
X084192Y004960D01*
X084192Y004801D02*
X082026Y004801D01*
X082137Y004643D02*
X084192Y004643D01*
X084192Y004484D02*
X082180Y004484D01*
X082180Y004326D02*
X084192Y004326D01*
X084192Y004167D02*
X082180Y004167D01*
X082180Y004009D02*
X082513Y004009D01*
X083302Y004009D02*
X084192Y004009D01*
X084192Y003850D02*
X083714Y003850D01*
X083972Y003692D02*
X084192Y003692D01*
X084192Y003533D02*
X084119Y003533D01*
X081611Y003375D02*
X076785Y003375D01*
X076626Y003216D02*
X081503Y003216D01*
X081426Y003058D02*
X073680Y003058D01*
X073180Y003058D02*
X072067Y003058D01*
X072225Y003216D02*
X073042Y003216D01*
X072990Y003375D02*
X072384Y003375D01*
X072542Y003533D02*
X072996Y003533D01*
X073069Y003692D02*
X072701Y003692D01*
X072859Y003850D02*
X073294Y003850D01*
X073566Y003850D02*
X074180Y003850D01*
X074180Y004009D02*
X073018Y004009D01*
X073176Y004167D02*
X074180Y004167D01*
X074124Y004326D02*
X073533Y004326D01*
X073387Y004180D02*
X073680Y004473D01*
X073680Y004887D01*
X073387Y005180D01*
X072973Y005180D01*
X072680Y004887D01*
X072680Y004689D01*
X071281Y003290D01*
X065329Y003290D01*
X065043Y003576D01*
X065104Y003637D01*
X065180Y003821D01*
X065180Y004539D01*
X065104Y004723D01*
X064963Y004864D01*
X064779Y004940D01*
X064581Y004940D01*
X064397Y004864D01*
X064256Y004723D01*
X064180Y004539D01*
X064180Y003821D01*
X064256Y003637D01*
X064320Y003573D01*
X064320Y003358D01*
X064375Y003226D01*
X064875Y002726D01*
X064976Y002625D01*
X065108Y002570D01*
X071502Y002570D01*
X071634Y002625D01*
X073189Y004180D01*
X073387Y004180D01*
X072316Y004326D02*
X069180Y004326D01*
X069180Y004484D02*
X072475Y004484D01*
X072633Y004643D02*
X069137Y004643D01*
X069026Y004801D02*
X072680Y004801D01*
X072752Y004960D02*
X068970Y004960D01*
X068970Y005118D02*
X072911Y005118D01*
X073449Y005118D02*
X073890Y005118D01*
X073890Y004960D02*
X073608Y004960D01*
X073680Y004801D02*
X073890Y004801D01*
X073890Y004643D02*
X073680Y004643D01*
X073680Y004484D02*
X073966Y004484D01*
X075026Y004801D02*
X075334Y004801D01*
X075223Y004643D02*
X075137Y004643D01*
X075180Y004484D02*
X075180Y004484D01*
X075180Y004326D02*
X075180Y004326D01*
X075180Y004167D02*
X075180Y004167D01*
X075180Y004009D02*
X075180Y004009D01*
X075180Y003850D02*
X075180Y003850D01*
X076180Y003850D02*
X076180Y003850D01*
X076180Y004009D02*
X076180Y004009D01*
X076180Y004167D02*
X076180Y004167D01*
X076180Y004326D02*
X076180Y004326D01*
X076180Y004484D02*
X076180Y004484D01*
X076137Y004643D02*
X076223Y004643D01*
X076334Y004801D02*
X076026Y004801D01*
X077026Y004801D02*
X077334Y004801D01*
X077223Y004643D02*
X077137Y004643D01*
X077180Y004484D02*
X077180Y004484D01*
X077180Y004326D02*
X077180Y004326D01*
X077180Y004167D02*
X077180Y004167D01*
X077180Y004009D02*
X077180Y004009D01*
X077180Y003850D02*
X077180Y003850D01*
X077127Y003692D02*
X077233Y003692D01*
X077360Y003533D02*
X077000Y003533D01*
X078000Y003533D02*
X078360Y003533D01*
X078233Y003692D02*
X078127Y003692D01*
X078180Y003850D02*
X078180Y003850D01*
X078180Y004009D02*
X078180Y004009D01*
X078180Y004167D02*
X078180Y004167D01*
X078180Y004326D02*
X078180Y004326D01*
X078180Y004484D02*
X078180Y004484D01*
X078137Y004643D02*
X078223Y004643D01*
X078334Y004801D02*
X078026Y004801D01*
X079026Y004801D02*
X079334Y004801D01*
X079223Y004643D02*
X079137Y004643D01*
X079180Y004484D02*
X079180Y004484D01*
X079180Y004326D02*
X079180Y004326D01*
X079180Y004167D02*
X079180Y004167D01*
X079180Y004009D02*
X079180Y004009D01*
X079180Y003850D02*
X079180Y003850D01*
X079127Y003692D02*
X079233Y003692D01*
X079360Y003533D02*
X079000Y003533D01*
X080000Y003533D02*
X080360Y003533D01*
X080233Y003692D02*
X080127Y003692D01*
X080180Y003850D02*
X080180Y003850D01*
X080180Y004009D02*
X080180Y004009D01*
X080180Y004167D02*
X080180Y004167D01*
X080180Y004326D02*
X080180Y004326D01*
X080180Y004484D02*
X080180Y004484D01*
X080137Y004643D02*
X080223Y004643D01*
X080334Y004801D02*
X080026Y004801D01*
X080390Y004960D02*
X074470Y004960D01*
X074470Y005118D02*
X080458Y005118D01*
X080616Y005277D02*
X074470Y005277D01*
X074470Y005435D02*
X080775Y005435D01*
X080933Y005594D02*
X074470Y005594D01*
X074470Y005752D02*
X075198Y005752D01*
X075039Y005911D02*
X074470Y005911D01*
X074470Y006069D02*
X074912Y006069D01*
X074890Y006228D02*
X074470Y006228D01*
X074470Y006386D02*
X074890Y006386D01*
X073890Y006386D02*
X073508Y006386D01*
X073620Y006498D02*
X073362Y006240D01*
X073180Y006240D01*
X073180Y006680D01*
X073180Y006680D01*
X073180Y007120D01*
X073362Y007120D01*
X073620Y006862D01*
X073620Y006680D01*
X073180Y006680D01*
X073180Y006680D01*
X073180Y006680D01*
X072740Y006680D01*
X072740Y006862D01*
X072998Y007120D01*
X073180Y007120D01*
X073180Y006680D01*
X073620Y006680D01*
X073620Y006498D01*
X073620Y006545D02*
X073890Y006545D01*
X073890Y006703D02*
X073620Y006703D01*
X073620Y006862D02*
X073890Y006862D01*
X073890Y007020D02*
X073462Y007020D01*
X073180Y007020D02*
X073180Y007020D01*
X073180Y006862D02*
X073180Y006862D01*
X073180Y006703D02*
X073180Y006703D01*
X073180Y006680D02*
X072740Y006680D01*
X072740Y006498D01*
X072998Y006240D01*
X073180Y006240D01*
X073180Y006680D01*
X073180Y006680D01*
X073180Y006545D02*
X073180Y006545D01*
X073180Y006386D02*
X073180Y006386D01*
X072852Y006386D02*
X069720Y006386D01*
X069720Y006228D02*
X073890Y006228D01*
X073890Y006069D02*
X069698Y006069D01*
X069571Y005911D02*
X073890Y005911D01*
X073890Y005752D02*
X069412Y005752D01*
X069254Y005594D02*
X073890Y005594D01*
X073890Y005435D02*
X069095Y005435D01*
X068970Y005277D02*
X073890Y005277D01*
X072158Y004167D02*
X069180Y004167D01*
X069180Y004009D02*
X071999Y004009D01*
X071841Y003850D02*
X069180Y003850D01*
X069127Y003692D02*
X071682Y003692D01*
X071524Y003533D02*
X069000Y003533D01*
X068360Y003533D02*
X068000Y003533D01*
X068127Y003692D02*
X068233Y003692D01*
X068180Y003821D02*
X068180Y004539D01*
X068256Y004723D01*
X068390Y004857D01*
X068390Y005230D01*
X067994Y004833D01*
X068104Y004723D01*
X068180Y004539D01*
X068180Y003821D01*
X068180Y003850D02*
X068180Y003850D01*
X068180Y004009D02*
X068180Y004009D01*
X068180Y004167D02*
X068180Y004167D01*
X068180Y004326D02*
X068180Y004326D01*
X068180Y004484D02*
X068180Y004484D01*
X068137Y004643D02*
X068223Y004643D01*
X068334Y004801D02*
X068026Y004801D01*
X068120Y004960D02*
X068390Y004960D01*
X068390Y005118D02*
X068278Y005118D01*
X067616Y005277D02*
X061470Y005277D01*
X061470Y005435D02*
X067775Y005435D01*
X067458Y005118D02*
X061470Y005118D01*
X061470Y004960D02*
X067390Y004960D01*
X067334Y004801D02*
X067026Y004801D01*
X066963Y004864D02*
X066779Y004940D01*
X066581Y004940D01*
X066397Y004864D01*
X066256Y004723D01*
X066180Y004539D01*
X066104Y004723D01*
X065963Y004864D01*
X065779Y004940D01*
X065581Y004940D01*
X065397Y004864D01*
X065256Y004723D01*
X065180Y004539D01*
X065180Y003821D01*
X065256Y003637D01*
X065397Y003496D01*
X065581Y003420D01*
X065779Y003420D01*
X065963Y003496D01*
X066104Y003637D01*
X066180Y003821D01*
X066180Y004539D01*
X066180Y003821D01*
X066256Y003637D01*
X066397Y003496D01*
X066581Y003420D01*
X066779Y003420D01*
X066963Y003496D01*
X067104Y003637D01*
X067180Y003821D01*
X067180Y004539D01*
X067104Y004723D01*
X066963Y004864D01*
X067137Y004643D02*
X067223Y004643D01*
X067180Y004484D02*
X067180Y004484D01*
X067180Y004326D02*
X067180Y004326D01*
X067180Y004167D02*
X067180Y004167D01*
X067180Y004009D02*
X067180Y004009D01*
X067180Y003850D02*
X067180Y003850D01*
X067127Y003692D02*
X067233Y003692D01*
X067360Y003533D02*
X067000Y003533D01*
X066360Y003533D02*
X066000Y003533D01*
X066127Y003692D02*
X066233Y003692D01*
X066180Y003850D02*
X066180Y003850D01*
X066180Y004009D02*
X066180Y004009D01*
X066180Y004167D02*
X066180Y004167D01*
X066180Y004326D02*
X066180Y004326D01*
X066180Y004484D02*
X066180Y004484D01*
X066137Y004643D02*
X066223Y004643D01*
X066334Y004801D02*
X066026Y004801D01*
X065334Y004801D02*
X065026Y004801D01*
X065137Y004643D02*
X065223Y004643D01*
X065180Y004484D02*
X065180Y004484D01*
X065180Y004326D02*
X065180Y004326D01*
X065180Y004167D02*
X065180Y004167D01*
X065180Y004009D02*
X065180Y004009D01*
X065180Y003850D02*
X065180Y003850D01*
X065127Y003692D02*
X065233Y003692D01*
X065360Y003533D02*
X065086Y003533D01*
X065245Y003375D02*
X071365Y003375D01*
X071908Y002899D02*
X081378Y002899D01*
X081329Y002741D02*
X071750Y002741D01*
X071531Y002582D02*
X081308Y002582D01*
X081308Y002424D02*
X055720Y002424D01*
X055720Y002582D02*
X065079Y002582D01*
X064860Y002741D02*
X055720Y002741D01*
X055720Y002899D02*
X064702Y002899D01*
X064543Y003058D02*
X060680Y003058D01*
X060180Y003058D02*
X055720Y003058D01*
X055720Y003216D02*
X060042Y003216D01*
X059990Y003375D02*
X055720Y003375D01*
X055720Y003533D02*
X059996Y003533D01*
X060069Y003692D02*
X055720Y003692D01*
X055720Y003850D02*
X060294Y003850D01*
X060566Y003850D02*
X061180Y003850D01*
X061180Y004009D02*
X055720Y004009D01*
X055720Y004167D02*
X061180Y004167D01*
X061124Y004326D02*
X060533Y004326D01*
X060387Y004180D02*
X060680Y004473D01*
X060680Y004887D01*
X060387Y005180D01*
X060189Y005180D01*
X059884Y005485D01*
X059752Y005540D01*
X057442Y005540D01*
X057429Y005553D01*
X057268Y005620D01*
X057092Y005620D01*
X056931Y005553D01*
X056807Y005429D01*
X056740Y005268D01*
X056740Y005092D01*
X056807Y004931D01*
X056931Y004807D01*
X057092Y004740D01*
X057268Y004740D01*
X057429Y004807D01*
X057442Y004820D01*
X059531Y004820D01*
X059680Y004671D01*
X059680Y004473D01*
X059973Y004180D01*
X060387Y004180D01*
X059827Y004326D02*
X055720Y004326D01*
X055720Y004484D02*
X059680Y004484D01*
X059680Y004643D02*
X055720Y004643D01*
X055720Y004801D02*
X056945Y004801D01*
X056795Y004960D02*
X055720Y004960D01*
X055720Y005118D02*
X056740Y005118D01*
X056744Y005277D02*
X055720Y005277D01*
X055720Y005435D02*
X056813Y005435D01*
X057029Y005594D02*
X055720Y005594D01*
X055720Y005752D02*
X060890Y005752D01*
X060890Y005594D02*
X057331Y005594D01*
X055720Y005911D02*
X060890Y005911D01*
X060890Y006069D02*
X055720Y006069D01*
X054390Y006069D02*
X053698Y006069D01*
X053720Y006228D02*
X054390Y006228D01*
X054390Y006386D02*
X053720Y006386D01*
X053720Y006545D02*
X054390Y006545D01*
X054390Y006703D02*
X053720Y006703D01*
X053720Y006862D02*
X054390Y006862D01*
X054390Y007020D02*
X053720Y007020D01*
X052890Y007971D02*
X052470Y007971D01*
X052470Y008130D02*
X052890Y008130D01*
X052890Y008288D02*
X052470Y008288D01*
X052470Y008447D02*
X052890Y008447D01*
X052890Y008605D02*
X052470Y008605D01*
X052470Y008764D02*
X052890Y008764D01*
X052890Y008922D02*
X052470Y008922D01*
X052470Y009081D02*
X052890Y009081D01*
X052890Y009239D02*
X052470Y009239D01*
X052454Y009398D02*
X052890Y009398D01*
X052890Y009556D02*
X052335Y009556D01*
X052177Y009715D02*
X052890Y009715D01*
X052890Y009873D02*
X052018Y009873D01*
X051860Y010032D02*
X052890Y010032D01*
X052890Y010190D02*
X051701Y010190D01*
X051691Y010349D02*
X052890Y010349D01*
X052890Y010507D02*
X051645Y010507D01*
X051530Y010666D02*
X052784Y010666D01*
X052626Y010824D02*
X050470Y010824D01*
X050470Y010666D02*
X050841Y010666D01*
X050726Y010507D02*
X050513Y010507D01*
X050672Y010349D02*
X050680Y010349D01*
X050470Y010983D02*
X051288Y010983D01*
X051154Y011141D02*
X050470Y011141D01*
X050470Y011300D02*
X051094Y011300D01*
X051094Y011458D02*
X050470Y011458D01*
X050470Y011617D02*
X051148Y011617D01*
X051273Y011775D02*
X050470Y011775D01*
X050470Y011934D02*
X052516Y011934D01*
X052358Y012092D02*
X051688Y012092D01*
X051880Y012251D02*
X052199Y012251D01*
X051230Y012092D02*
X050470Y012092D01*
X050470Y012251D02*
X051038Y012251D01*
X050968Y012409D02*
X050470Y012409D01*
X050470Y012568D02*
X050953Y012568D01*
X050987Y012726D02*
X050470Y012726D01*
X051925Y011775D02*
X052675Y011775D01*
X052654Y011617D02*
X052833Y011617D01*
X052812Y011458D02*
X052992Y011458D01*
X052971Y011300D02*
X053140Y011300D01*
X053129Y011141D02*
X053140Y011141D01*
X052467Y010983D02*
X051910Y010983D01*
X048307Y009083D02*
X048307Y008456D01*
X048351Y008349D01*
X048855Y007844D01*
X048849Y007848D01*
X048783Y007869D01*
X048715Y007880D01*
X048680Y007880D01*
X048680Y007180D01*
X048680Y007180D01*
X048680Y006480D01*
X048715Y006480D01*
X048783Y006491D01*
X048849Y006512D01*
X048911Y006544D01*
X048920Y006550D01*
X048934Y006516D01*
X048980Y006470D01*
X047900Y006470D01*
X047963Y006496D01*
X048104Y006637D01*
X048180Y006821D01*
X048180Y007539D01*
X048104Y007723D01*
X047970Y007857D01*
X047970Y008988D01*
X047958Y009017D01*
X048148Y009017D01*
X048307Y009083D01*
X048307Y009081D02*
X048302Y009081D01*
X048307Y008922D02*
X047970Y008922D01*
X047970Y008764D02*
X048307Y008764D01*
X048307Y008605D02*
X047970Y008605D01*
X047970Y008447D02*
X048311Y008447D01*
X048412Y008288D02*
X047970Y008288D01*
X047970Y008130D02*
X048570Y008130D01*
X048729Y007971D02*
X047970Y007971D01*
X048015Y007813D02*
X048444Y007813D01*
X048449Y007816D02*
X048393Y007776D01*
X048344Y007727D01*
X048304Y007671D01*
X048272Y007609D01*
X048251Y007543D01*
X048240Y007475D01*
X048240Y007180D01*
X048680Y007180D01*
X048680Y007180D01*
X048680Y007180D01*
X048680Y007880D01*
X048645Y007880D01*
X048577Y007869D01*
X048511Y007848D01*
X048449Y007816D01*
X048295Y007654D02*
X048133Y007654D01*
X048180Y007496D02*
X048243Y007496D01*
X048240Y007337D02*
X048180Y007337D01*
X048180Y007179D02*
X048240Y007179D01*
X048240Y007180D02*
X048240Y006885D01*
X048251Y006817D01*
X048272Y006751D01*
X048304Y006689D01*
X048344Y006633D01*
X048393Y006584D01*
X048449Y006544D01*
X048511Y006512D01*
X048577Y006491D01*
X048645Y006480D01*
X048680Y006480D01*
X048680Y007180D01*
X048240Y007180D01*
X048240Y007020D02*
X048180Y007020D01*
X048180Y006862D02*
X048244Y006862D01*
X048297Y006703D02*
X048131Y006703D01*
X048012Y006545D02*
X048448Y006545D01*
X048680Y006545D02*
X048680Y006545D01*
X048680Y006703D02*
X048680Y006703D01*
X048680Y006862D02*
X048680Y006862D01*
X048680Y007020D02*
X048680Y007020D01*
X048680Y007179D02*
X048680Y007179D01*
X048680Y007337D02*
X048680Y007337D01*
X048680Y007496D02*
X048680Y007496D01*
X048680Y007654D02*
X048680Y007654D01*
X048680Y007813D02*
X048680Y007813D01*
X048912Y006545D02*
X048922Y006545D01*
X051775Y005435D02*
X045470Y005435D01*
X045470Y005277D02*
X051616Y005277D01*
X051458Y005118D02*
X045470Y005118D01*
X045470Y004960D02*
X051390Y004960D01*
X051334Y004801D02*
X051026Y004801D01*
X051137Y004643D02*
X051223Y004643D01*
X051180Y004484D02*
X051180Y004484D01*
X051180Y004326D02*
X051180Y004326D01*
X051180Y004167D02*
X051180Y004167D01*
X051180Y004009D02*
X051180Y004009D01*
X051180Y003850D02*
X051180Y003850D01*
X051127Y003692D02*
X051233Y003692D01*
X051360Y003533D02*
X051000Y003533D01*
X050360Y003533D02*
X050000Y003533D01*
X050127Y003692D02*
X050233Y003692D01*
X050180Y003850D02*
X050180Y003850D01*
X050180Y004009D02*
X050180Y004009D01*
X050180Y004167D02*
X050180Y004167D01*
X050180Y004326D02*
X050180Y004326D01*
X050180Y004484D02*
X050180Y004484D01*
X050137Y004643D02*
X050223Y004643D01*
X050334Y004801D02*
X050026Y004801D01*
X049334Y004801D02*
X049026Y004801D01*
X049137Y004643D02*
X049223Y004643D01*
X049180Y004484D02*
X049180Y004484D01*
X049180Y004326D02*
X049180Y004326D01*
X049180Y004167D02*
X049180Y004167D01*
X049180Y004009D02*
X049180Y004009D01*
X049180Y003850D02*
X049180Y003850D01*
X049127Y003692D02*
X049233Y003692D01*
X049360Y003533D02*
X049000Y003533D01*
X049390Y003375D02*
X046970Y003375D01*
X047000Y003533D02*
X047360Y003533D01*
X047233Y003692D02*
X047127Y003692D01*
X047180Y003850D02*
X047180Y003850D01*
X047180Y004009D02*
X047180Y004009D01*
X047180Y004167D02*
X047180Y004167D01*
X047180Y004326D02*
X047180Y004326D01*
X047180Y004484D02*
X047180Y004484D01*
X047137Y004643D02*
X047223Y004643D01*
X047334Y004801D02*
X047026Y004801D01*
X046334Y004801D02*
X046026Y004801D01*
X046137Y004643D02*
X046223Y004643D01*
X046180Y004484D02*
X046180Y004484D01*
X046180Y004326D02*
X046180Y004326D01*
X046180Y004167D02*
X046180Y004167D01*
X046180Y004009D02*
X046180Y004009D01*
X046180Y003850D02*
X046180Y003850D01*
X046127Y003692D02*
X046233Y003692D01*
X046360Y003533D02*
X046000Y003533D01*
X046390Y003375D02*
X042720Y003375D01*
X042720Y003533D02*
X045360Y003533D01*
X045233Y003692D02*
X042720Y003692D01*
X042720Y003850D02*
X045180Y003850D01*
X045180Y004009D02*
X042720Y004009D01*
X042720Y004167D02*
X045180Y004167D01*
X045124Y004326D02*
X044533Y004326D01*
X044387Y004180D02*
X044680Y004473D01*
X044680Y004887D01*
X044387Y005180D01*
X043973Y005180D01*
X043680Y004887D01*
X043680Y004473D01*
X043973Y004180D01*
X044387Y004180D01*
X043827Y004326D02*
X042720Y004326D01*
X042720Y004484D02*
X043680Y004484D01*
X043680Y004643D02*
X042720Y004643D01*
X042720Y004801D02*
X043680Y004801D01*
X043752Y004960D02*
X042720Y004960D01*
X042720Y005118D02*
X043911Y005118D01*
X044449Y005118D02*
X044890Y005118D01*
X044890Y004960D02*
X044608Y004960D01*
X044680Y004801D02*
X044890Y004801D01*
X044890Y004643D02*
X044680Y004643D01*
X044680Y004484D02*
X044966Y004484D01*
X044890Y005277D02*
X042720Y005277D01*
X042720Y005435D02*
X044890Y005435D01*
X044890Y005594D02*
X042720Y005594D01*
X042720Y005752D02*
X044890Y005752D01*
X044890Y005911D02*
X042720Y005911D01*
X042720Y006069D02*
X044890Y006069D01*
X041390Y006069D02*
X040698Y006069D01*
X040720Y006228D02*
X041390Y006228D01*
X041390Y006386D02*
X040720Y006386D01*
X040720Y006545D02*
X041390Y006545D01*
X041390Y006703D02*
X040720Y006703D01*
X040720Y006862D02*
X041390Y006862D01*
X041390Y007020D02*
X040720Y007020D01*
X039890Y007971D02*
X039470Y007971D01*
X039470Y008130D02*
X039890Y008130D01*
X039890Y008288D02*
X039470Y008288D01*
X039470Y008447D02*
X039890Y008447D01*
X039890Y008605D02*
X039470Y008605D01*
X039470Y008764D02*
X039890Y008764D01*
X039890Y008922D02*
X039470Y008922D01*
X039470Y009081D02*
X039890Y009081D01*
X039890Y009239D02*
X039470Y009239D01*
X039454Y009398D02*
X039890Y009398D01*
X039890Y009556D02*
X039335Y009556D01*
X039177Y009715D02*
X039890Y009715D01*
X039890Y009873D02*
X039018Y009873D01*
X038860Y010032D02*
X039890Y010032D01*
X039890Y010190D02*
X038701Y010190D01*
X038691Y010349D02*
X039890Y010349D01*
X039890Y010507D02*
X038645Y010507D01*
X038530Y010666D02*
X039784Y010666D01*
X039626Y010824D02*
X037470Y010824D01*
X037470Y010666D02*
X037841Y010666D01*
X037726Y010507D02*
X037513Y010507D01*
X037672Y010349D02*
X037680Y010349D01*
X037470Y010983D02*
X038288Y010983D01*
X038154Y011141D02*
X037470Y011141D01*
X037470Y011300D02*
X038094Y011300D01*
X038094Y011458D02*
X037470Y011458D01*
X037470Y011617D02*
X038148Y011617D01*
X038273Y011775D02*
X037470Y011775D01*
X037470Y011934D02*
X039516Y011934D01*
X039358Y012092D02*
X038688Y012092D01*
X038880Y012251D02*
X039199Y012251D01*
X038230Y012092D02*
X037470Y012092D01*
X037470Y012251D02*
X038038Y012251D01*
X037968Y012409D02*
X037470Y012409D01*
X037470Y012568D02*
X037953Y012568D01*
X037987Y012726D02*
X037470Y012726D01*
X038925Y011775D02*
X039675Y011775D01*
X039654Y011617D02*
X039833Y011617D01*
X039812Y011458D02*
X039992Y011458D01*
X039971Y011300D02*
X040140Y011300D01*
X040129Y011141D02*
X040140Y011141D01*
X039467Y010983D02*
X038910Y010983D01*
X035307Y009083D02*
X035307Y008456D01*
X035351Y008349D01*
X035855Y007844D01*
X035849Y007848D01*
X035783Y007869D01*
X035715Y007880D01*
X035680Y007880D01*
X035680Y007180D01*
X035680Y007180D01*
X035680Y006480D01*
X035715Y006480D01*
X035783Y006491D01*
X035849Y006512D01*
X035911Y006544D01*
X035920Y006550D01*
X035934Y006516D01*
X035980Y006470D01*
X034900Y006470D01*
X034963Y006496D01*
X035104Y006637D01*
X035180Y006821D01*
X035180Y007539D01*
X035104Y007723D01*
X034970Y007857D01*
X034970Y008988D01*
X034958Y009017D01*
X035148Y009017D01*
X035307Y009083D01*
X035307Y009081D02*
X035302Y009081D01*
X035307Y008922D02*
X034970Y008922D01*
X034970Y008764D02*
X035307Y008764D01*
X035307Y008605D02*
X034970Y008605D01*
X034970Y008447D02*
X035311Y008447D01*
X035412Y008288D02*
X034970Y008288D01*
X034970Y008130D02*
X035570Y008130D01*
X035729Y007971D02*
X034970Y007971D01*
X035015Y007813D02*
X035444Y007813D01*
X035449Y007816D02*
X035393Y007776D01*
X035344Y007727D01*
X035304Y007671D01*
X035272Y007609D01*
X035251Y007543D01*
X035240Y007475D01*
X035240Y007180D01*
X035680Y007180D01*
X035680Y007180D01*
X035680Y007180D01*
X035680Y007880D01*
X035645Y007880D01*
X035577Y007869D01*
X035511Y007848D01*
X035449Y007816D01*
X035295Y007654D02*
X035133Y007654D01*
X035180Y007496D02*
X035243Y007496D01*
X035240Y007337D02*
X035180Y007337D01*
X035180Y007179D02*
X035240Y007179D01*
X035240Y007180D02*
X035240Y006885D01*
X035251Y006817D01*
X035272Y006751D01*
X035304Y006689D01*
X035344Y006633D01*
X035393Y006584D01*
X035449Y006544D01*
X035511Y006512D01*
X035577Y006491D01*
X035645Y006480D01*
X035680Y006480D01*
X035680Y007180D01*
X035240Y007180D01*
X035240Y007020D02*
X035180Y007020D01*
X035180Y006862D02*
X035244Y006862D01*
X035297Y006703D02*
X035131Y006703D01*
X035012Y006545D02*
X035448Y006545D01*
X035680Y006545D02*
X035680Y006545D01*
X035680Y006703D02*
X035680Y006703D01*
X035680Y006862D02*
X035680Y006862D01*
X035680Y007020D02*
X035680Y007020D01*
X035680Y007179D02*
X035680Y007179D01*
X035680Y007337D02*
X035680Y007337D01*
X035680Y007496D02*
X035680Y007496D01*
X035680Y007654D02*
X035680Y007654D01*
X035680Y007813D02*
X035680Y007813D01*
X035912Y006545D02*
X035922Y006545D01*
X038775Y005435D02*
X032470Y005435D01*
X032470Y005277D02*
X038616Y005277D01*
X038458Y005118D02*
X032470Y005118D01*
X032470Y004960D02*
X038390Y004960D01*
X038334Y004801D02*
X038026Y004801D01*
X038137Y004643D02*
X038223Y004643D01*
X038180Y004484D02*
X038180Y004484D01*
X038180Y004326D02*
X038180Y004326D01*
X038180Y004167D02*
X038180Y004167D01*
X038180Y004009D02*
X038180Y004009D01*
X038180Y003850D02*
X038180Y003850D01*
X038127Y003692D02*
X038233Y003692D01*
X038360Y003533D02*
X038000Y003533D01*
X037360Y003533D02*
X037000Y003533D01*
X037127Y003692D02*
X037233Y003692D01*
X037180Y003850D02*
X037180Y003850D01*
X037180Y004009D02*
X037180Y004009D01*
X037180Y004167D02*
X037180Y004167D01*
X037180Y004326D02*
X037180Y004326D01*
X037180Y004484D02*
X037180Y004484D01*
X037137Y004643D02*
X037223Y004643D01*
X037334Y004801D02*
X037026Y004801D01*
X036334Y004801D02*
X036026Y004801D01*
X036137Y004643D02*
X036223Y004643D01*
X036180Y004484D02*
X036180Y004484D01*
X036180Y004326D02*
X036180Y004326D01*
X036180Y004167D02*
X036180Y004167D01*
X036180Y004009D02*
X036180Y004009D01*
X036180Y003850D02*
X036180Y003850D01*
X036127Y003692D02*
X036233Y003692D01*
X036360Y003533D02*
X036000Y003533D01*
X036390Y003375D02*
X033970Y003375D01*
X034000Y003533D02*
X034360Y003533D01*
X034233Y003692D02*
X034127Y003692D01*
X034180Y003850D02*
X034180Y003850D01*
X034180Y004009D02*
X034180Y004009D01*
X034180Y004167D02*
X034180Y004167D01*
X034180Y004326D02*
X034180Y004326D01*
X034180Y004484D02*
X034180Y004484D01*
X034137Y004643D02*
X034223Y004643D01*
X034334Y004801D02*
X034026Y004801D01*
X033334Y004801D02*
X033026Y004801D01*
X033137Y004643D02*
X033223Y004643D01*
X033180Y004484D02*
X033180Y004484D01*
X033180Y004326D02*
X033180Y004326D01*
X033180Y004167D02*
X033180Y004167D01*
X033180Y004009D02*
X033180Y004009D01*
X033180Y003850D02*
X033180Y003850D01*
X033127Y003692D02*
X033233Y003692D01*
X033360Y003533D02*
X033000Y003533D01*
X033390Y003375D02*
X026720Y003375D01*
X026720Y003533D02*
X032360Y003533D01*
X032233Y003692D02*
X026720Y003692D01*
X026720Y003850D02*
X032180Y003850D01*
X032180Y004009D02*
X026720Y004009D01*
X026720Y004167D02*
X032180Y004167D01*
X032124Y004326D02*
X031533Y004326D01*
X031387Y004180D02*
X031680Y004473D01*
X031680Y004887D01*
X031387Y005180D01*
X030973Y005180D01*
X030680Y004887D01*
X030680Y004473D01*
X030973Y004180D01*
X031387Y004180D01*
X030827Y004326D02*
X026720Y004326D01*
X026720Y004484D02*
X030680Y004484D01*
X030680Y004643D02*
X026720Y004643D01*
X026720Y004801D02*
X030680Y004801D01*
X030752Y004960D02*
X026720Y004960D01*
X026720Y005118D02*
X030911Y005118D01*
X031449Y005118D02*
X031890Y005118D01*
X031890Y004960D02*
X031608Y004960D01*
X031680Y004801D02*
X031890Y004801D01*
X031890Y004643D02*
X031680Y004643D01*
X031680Y004484D02*
X031966Y004484D01*
X031890Y005277D02*
X026720Y005277D01*
X026720Y005435D02*
X031890Y005435D01*
X031890Y005594D02*
X026720Y005594D01*
X026720Y005752D02*
X031890Y005752D01*
X031890Y005911D02*
X026720Y005911D01*
X026720Y006069D02*
X031890Y006069D01*
X035026Y004801D02*
X035334Y004801D01*
X035223Y004643D02*
X035137Y004643D01*
X035180Y004484D02*
X035180Y004484D01*
X035180Y004326D02*
X035180Y004326D01*
X035180Y004167D02*
X035180Y004167D01*
X035180Y004009D02*
X035180Y004009D01*
X035180Y003850D02*
X035180Y003850D01*
X035127Y003692D02*
X035233Y003692D01*
X035360Y003533D02*
X035000Y003533D01*
X033390Y003216D02*
X026720Y003216D01*
X026720Y003058D02*
X033417Y003058D01*
X033551Y002899D02*
X026720Y002899D01*
X026720Y002741D02*
X033709Y002741D01*
X034267Y002582D02*
X026720Y002582D01*
X026720Y002424D02*
X034240Y002424D01*
X034272Y002265D02*
X026675Y002265D01*
X026517Y002107D02*
X034381Y002107D01*
X034979Y002107D02*
X037277Y002107D01*
X037240Y001948D02*
X026358Y001948D01*
X026200Y001790D02*
X037262Y001790D01*
X042200Y001790D02*
X050262Y001790D01*
X050240Y001948D02*
X042358Y001948D01*
X042517Y002107D02*
X047381Y002107D01*
X047272Y002265D02*
X042675Y002265D01*
X042720Y002424D02*
X047240Y002424D01*
X047267Y002582D02*
X042720Y002582D01*
X042720Y002741D02*
X046709Y002741D01*
X046551Y002899D02*
X042720Y002899D01*
X042720Y003058D02*
X046417Y003058D01*
X046390Y003216D02*
X042720Y003216D01*
X041373Y003533D02*
X040000Y003533D01*
X040127Y003692D02*
X041390Y003692D01*
X041390Y003850D02*
X040180Y003850D01*
X040180Y004009D02*
X041390Y004009D01*
X041390Y004167D02*
X040180Y004167D01*
X040180Y004326D02*
X041390Y004326D01*
X041390Y004484D02*
X040180Y004484D01*
X040137Y004643D02*
X041390Y004643D01*
X041390Y004801D02*
X040026Y004801D01*
X039970Y004960D02*
X041390Y004960D01*
X041390Y005118D02*
X039970Y005118D01*
X039970Y005277D02*
X041390Y005277D01*
X041390Y005435D02*
X040095Y005435D01*
X040254Y005594D02*
X041390Y005594D01*
X041390Y005752D02*
X040412Y005752D01*
X040571Y005911D02*
X041390Y005911D01*
X048026Y004801D02*
X048334Y004801D01*
X048223Y004643D02*
X048137Y004643D01*
X048180Y004484D02*
X048180Y004484D01*
X048180Y004326D02*
X048180Y004326D01*
X048180Y004167D02*
X048180Y004167D01*
X048180Y004009D02*
X048180Y004009D01*
X048180Y003850D02*
X048180Y003850D01*
X048127Y003692D02*
X048233Y003692D01*
X048360Y003533D02*
X048000Y003533D01*
X047979Y002107D02*
X050277Y002107D01*
X053000Y003533D02*
X054373Y003533D01*
X054390Y003692D02*
X053127Y003692D01*
X053180Y003850D02*
X054390Y003850D01*
X054390Y004009D02*
X053180Y004009D01*
X053180Y004167D02*
X054390Y004167D01*
X054390Y004326D02*
X053180Y004326D01*
X053180Y004484D02*
X054390Y004484D01*
X054390Y004643D02*
X053137Y004643D01*
X053026Y004801D02*
X054390Y004801D01*
X054390Y004960D02*
X052970Y004960D01*
X052970Y005118D02*
X054390Y005118D01*
X054390Y005277D02*
X052970Y005277D01*
X053095Y005435D02*
X054390Y005435D01*
X054390Y005594D02*
X053254Y005594D01*
X053412Y005752D02*
X054390Y005752D01*
X054390Y005911D02*
X053571Y005911D01*
X057415Y004801D02*
X059550Y004801D01*
X060449Y005118D02*
X060890Y005118D01*
X060890Y004960D02*
X060608Y004960D01*
X060680Y004801D02*
X060890Y004801D01*
X060890Y004643D02*
X060680Y004643D01*
X060680Y004484D02*
X060966Y004484D01*
X061016Y004434D02*
X061016Y004434D01*
X062137Y004643D02*
X062223Y004643D01*
X062180Y004539D02*
X062180Y003821D01*
X062138Y003720D01*
X062222Y003720D01*
X062180Y003821D01*
X062180Y004539D01*
X062180Y004484D02*
X062180Y004484D01*
X062180Y004326D02*
X062180Y004326D01*
X062180Y004167D02*
X062180Y004167D01*
X062180Y004009D02*
X062180Y004009D01*
X062180Y003850D02*
X062180Y003850D01*
X063138Y003720D02*
X063180Y003821D01*
X063180Y004539D01*
X063180Y003821D01*
X063222Y003720D01*
X063138Y003720D01*
X063180Y003850D02*
X063180Y003850D01*
X063180Y004009D02*
X063180Y004009D01*
X063180Y004167D02*
X063180Y004167D01*
X063180Y004326D02*
X063180Y004326D01*
X063180Y004484D02*
X063180Y004484D01*
X063137Y004643D02*
X063223Y004643D01*
X063334Y004801D02*
X063026Y004801D01*
X062334Y004801D02*
X062026Y004801D01*
X060890Y005277D02*
X060093Y005277D01*
X059934Y005435D02*
X060890Y005435D01*
X063900Y006470D02*
X064980Y006470D01*
X064934Y006516D01*
X064920Y006550D01*
X064911Y006544D01*
X064849Y006512D01*
X064783Y006491D01*
X064715Y006480D01*
X064680Y006480D01*
X064680Y007180D01*
X064680Y007180D01*
X064680Y007880D01*
X064715Y007880D01*
X064783Y007869D01*
X064849Y007848D01*
X064855Y007844D01*
X064351Y008349D01*
X064307Y008456D01*
X064307Y009083D01*
X064148Y009017D01*
X063958Y009017D01*
X063970Y008988D01*
X063970Y007857D01*
X064104Y007723D01*
X064180Y007539D01*
X064180Y006821D01*
X064104Y006637D01*
X063963Y006496D01*
X063900Y006470D01*
X064012Y006545D02*
X064448Y006545D01*
X064449Y006544D02*
X064511Y006512D01*
X064577Y006491D01*
X064645Y006480D01*
X064680Y006480D01*
X064680Y007180D01*
X064680Y007180D01*
X064680Y007180D01*
X064240Y007180D01*
X064240Y007475D01*
X064251Y007543D01*
X064272Y007609D01*
X064304Y007671D01*
X064344Y007727D01*
X064393Y007776D01*
X064449Y007816D01*
X064511Y007848D01*
X064577Y007869D01*
X064645Y007880D01*
X064680Y007880D01*
X064680Y007180D01*
X064240Y007180D01*
X064240Y006885D01*
X064251Y006817D01*
X064272Y006751D01*
X064304Y006689D01*
X064344Y006633D01*
X064393Y006584D01*
X064449Y006544D01*
X064297Y006703D02*
X064131Y006703D01*
X064180Y006862D02*
X064244Y006862D01*
X064240Y007020D02*
X064180Y007020D01*
X064180Y007179D02*
X064240Y007179D01*
X064240Y007337D02*
X064180Y007337D01*
X064180Y007496D02*
X064243Y007496D01*
X064295Y007654D02*
X064133Y007654D01*
X064015Y007813D02*
X064444Y007813D01*
X064680Y007813D02*
X064680Y007813D01*
X064680Y007654D02*
X064680Y007654D01*
X064680Y007496D02*
X064680Y007496D01*
X064680Y007337D02*
X064680Y007337D01*
X064680Y007179D02*
X064680Y007179D01*
X064680Y007020D02*
X064680Y007020D01*
X064680Y006862D02*
X064680Y006862D01*
X064680Y006703D02*
X064680Y006703D01*
X064680Y006545D02*
X064680Y006545D01*
X064912Y006545D02*
X064922Y006545D01*
X069720Y006545D02*
X072740Y006545D01*
X072740Y006703D02*
X069720Y006703D01*
X069720Y006862D02*
X072740Y006862D01*
X072898Y007020D02*
X069720Y007020D01*
X068890Y007971D02*
X068470Y007971D01*
X068470Y008130D02*
X068890Y008130D01*
X068890Y008288D02*
X068470Y008288D01*
X068470Y008447D02*
X068890Y008447D01*
X068890Y008605D02*
X068470Y008605D01*
X068470Y008764D02*
X068890Y008764D01*
X068890Y008922D02*
X068470Y008922D01*
X068470Y009081D02*
X068890Y009081D01*
X068890Y009239D02*
X068470Y009239D01*
X068454Y009398D02*
X068890Y009398D01*
X068890Y009556D02*
X068335Y009556D01*
X068177Y009715D02*
X068890Y009715D01*
X068890Y009873D02*
X068018Y009873D01*
X067860Y010032D02*
X068890Y010032D01*
X068890Y010190D02*
X067701Y010190D01*
X067691Y010349D02*
X068890Y010349D01*
X068890Y010507D02*
X067645Y010507D01*
X067530Y010666D02*
X068784Y010666D01*
X068626Y010824D02*
X066470Y010824D01*
X066470Y010666D02*
X066841Y010666D01*
X066726Y010507D02*
X066513Y010507D01*
X066672Y010349D02*
X066680Y010349D01*
X066470Y010983D02*
X067288Y010983D01*
X067154Y011141D02*
X066470Y011141D01*
X066470Y011300D02*
X067094Y011300D01*
X067094Y011458D02*
X066470Y011458D01*
X066470Y011617D02*
X067148Y011617D01*
X067273Y011775D02*
X066470Y011775D01*
X066470Y011934D02*
X068516Y011934D01*
X068358Y012092D02*
X067688Y012092D01*
X067880Y012251D02*
X068199Y012251D01*
X067230Y012092D02*
X066470Y012092D01*
X066470Y012251D02*
X067038Y012251D01*
X066968Y012409D02*
X066470Y012409D01*
X066470Y012568D02*
X066953Y012568D01*
X066987Y012726D02*
X066470Y012726D01*
X067925Y011775D02*
X068675Y011775D01*
X068654Y011617D02*
X068833Y011617D01*
X068812Y011458D02*
X068992Y011458D01*
X068971Y011300D02*
X069140Y011300D01*
X069129Y011141D02*
X069140Y011141D01*
X068467Y010983D02*
X067910Y010983D01*
X064307Y009081D02*
X064302Y009081D01*
X064307Y008922D02*
X063970Y008922D01*
X063970Y008764D02*
X064307Y008764D01*
X064307Y008605D02*
X063970Y008605D01*
X063970Y008447D02*
X064311Y008447D01*
X064412Y008288D02*
X063970Y008288D01*
X063970Y008130D02*
X064570Y008130D01*
X064729Y007971D02*
X063970Y007971D01*
X064026Y004801D02*
X064334Y004801D01*
X064223Y004643D02*
X064137Y004643D01*
X064180Y004484D02*
X064180Y004484D01*
X064180Y004326D02*
X064180Y004326D01*
X064180Y004167D02*
X064180Y004167D01*
X064180Y004009D02*
X064180Y004009D01*
X064180Y003850D02*
X064180Y003850D01*
X064127Y003692D02*
X064233Y003692D01*
X064320Y003533D02*
X064000Y003533D01*
X063785Y003375D02*
X064320Y003375D01*
X064385Y003216D02*
X063626Y003216D01*
X055675Y002265D02*
X081308Y002265D01*
X081333Y002107D02*
X055517Y002107D01*
X055358Y001948D02*
X081382Y001948D01*
X081430Y001790D02*
X055200Y001790D01*
X076900Y006470D02*
X076963Y006496D01*
X077104Y006637D01*
X077180Y006821D01*
X077180Y007539D01*
X077104Y007723D01*
X076970Y007857D01*
X076970Y008988D01*
X076958Y009017D01*
X077148Y009017D01*
X077307Y009083D01*
X077307Y008456D01*
X077351Y008349D01*
X077855Y007844D01*
X077849Y007848D01*
X077783Y007869D01*
X077715Y007880D01*
X077680Y007880D01*
X077680Y007180D01*
X077680Y007180D01*
X077680Y006480D01*
X077715Y006480D01*
X077783Y006491D01*
X077849Y006512D01*
X077911Y006544D01*
X077920Y006550D01*
X077934Y006516D01*
X077980Y006470D01*
X076900Y006470D01*
X077012Y006545D02*
X077448Y006545D01*
X077449Y006544D02*
X077511Y006512D01*
X077577Y006491D01*
X077645Y006480D01*
X077680Y006480D01*
X077680Y007180D01*
X077680Y007180D01*
X077680Y007180D01*
X077240Y007180D01*
X077240Y007475D01*
X077251Y007543D01*
X077272Y007609D01*
X077304Y007671D01*
X077344Y007727D01*
X077393Y007776D01*
X077449Y007816D01*
X077511Y007848D01*
X077577Y007869D01*
X077645Y007880D01*
X077680Y007880D01*
X077680Y007180D01*
X077240Y007180D01*
X077240Y006885D01*
X077251Y006817D01*
X077272Y006751D01*
X077304Y006689D01*
X077344Y006633D01*
X077393Y006584D01*
X077449Y006544D01*
X077297Y006703D02*
X077131Y006703D01*
X077180Y006862D02*
X077244Y006862D01*
X077240Y007020D02*
X077180Y007020D01*
X077180Y007179D02*
X077240Y007179D01*
X077240Y007337D02*
X077180Y007337D01*
X077180Y007496D02*
X077243Y007496D01*
X077295Y007654D02*
X077133Y007654D01*
X077015Y007813D02*
X077444Y007813D01*
X077680Y007813D02*
X077680Y007813D01*
X077680Y007654D02*
X077680Y007654D01*
X077680Y007496D02*
X077680Y007496D01*
X077680Y007337D02*
X077680Y007337D01*
X077680Y007179D02*
X077680Y007179D01*
X077680Y007020D02*
X077680Y007020D01*
X077680Y006862D02*
X077680Y006862D01*
X077680Y006703D02*
X077680Y006703D01*
X077680Y006545D02*
X077680Y006545D01*
X077912Y006545D02*
X077922Y006545D01*
X080821Y005911D02*
X081250Y005911D01*
X081409Y006069D02*
X080948Y006069D01*
X080970Y006228D02*
X081567Y006228D01*
X081726Y006386D02*
X080970Y006386D01*
X081012Y006545D02*
X081348Y006545D01*
X081229Y006703D02*
X081131Y006703D01*
X081180Y006862D02*
X081180Y006862D01*
X081180Y007020D02*
X081180Y007020D01*
X081180Y007179D02*
X081180Y007179D01*
X081470Y007971D02*
X081890Y007971D01*
X081890Y008130D02*
X081470Y008130D01*
X081470Y008288D02*
X081890Y008288D01*
X081890Y008447D02*
X081470Y008447D01*
X081470Y008605D02*
X081890Y008605D01*
X081890Y008764D02*
X081470Y008764D01*
X081470Y008922D02*
X081890Y008922D01*
X081890Y009081D02*
X081470Y009081D01*
X081470Y009239D02*
X081890Y009239D01*
X081890Y009398D02*
X081454Y009398D01*
X081335Y009556D02*
X081890Y009556D01*
X081890Y009715D02*
X081177Y009715D01*
X081018Y009873D02*
X081890Y009873D01*
X081890Y010032D02*
X080860Y010032D01*
X080701Y010190D02*
X081890Y010190D01*
X081890Y010349D02*
X080691Y010349D01*
X080645Y010507D02*
X081890Y010507D01*
X081784Y010666D02*
X080530Y010666D01*
X079841Y010666D02*
X079470Y010666D01*
X079470Y010824D02*
X081626Y010824D01*
X081467Y010983D02*
X080910Y010983D01*
X080288Y010983D02*
X079470Y010983D01*
X079470Y011141D02*
X080154Y011141D01*
X080094Y011300D02*
X079470Y011300D01*
X079470Y011458D02*
X080094Y011458D01*
X080148Y011617D02*
X079470Y011617D01*
X079470Y011775D02*
X080273Y011775D01*
X080925Y011775D02*
X081675Y011775D01*
X081654Y011617D02*
X081833Y011617D01*
X081812Y011458D02*
X081992Y011458D01*
X081971Y011300D02*
X082140Y011300D01*
X082129Y011141D02*
X082140Y011141D01*
X079726Y010507D02*
X079513Y010507D01*
X079672Y010349D02*
X079680Y010349D01*
X077307Y009081D02*
X077302Y009081D01*
X077307Y008922D02*
X076970Y008922D01*
X076970Y008764D02*
X077307Y008764D01*
X077307Y008605D02*
X076970Y008605D01*
X076970Y008447D02*
X077311Y008447D01*
X077412Y008288D02*
X076970Y008288D01*
X076970Y008130D02*
X077570Y008130D01*
X077729Y007971D02*
X076970Y007971D01*
X080662Y005752D02*
X081092Y005752D01*
X081278Y005118D02*
X081390Y005118D01*
X081390Y004960D02*
X081120Y004960D01*
X081026Y004801D02*
X081334Y004801D01*
X081223Y004643D02*
X081137Y004643D01*
X081180Y004484D02*
X081180Y004484D01*
X081180Y004326D02*
X081180Y004326D01*
X081180Y004167D02*
X081180Y004167D01*
X081180Y004009D02*
X081180Y004009D01*
X081180Y003850D02*
X081180Y003850D01*
X081127Y003692D02*
X081233Y003692D01*
X081360Y003533D02*
X081000Y003533D01*
X081728Y001314D02*
X003607Y001314D01*
X005979Y002107D02*
X008277Y002107D01*
X013200Y001790D02*
X021262Y001790D01*
X021240Y001948D02*
X013358Y001948D01*
X013517Y002107D02*
X018381Y002107D01*
X018272Y002265D02*
X013675Y002265D01*
X013720Y002424D02*
X018240Y002424D01*
X018267Y002582D02*
X013720Y002582D01*
X013720Y002741D02*
X017709Y002741D01*
X017551Y002899D02*
X013720Y002899D01*
X013720Y003058D02*
X017417Y003058D01*
X017390Y003216D02*
X013720Y003216D01*
X013720Y003375D02*
X017390Y003375D01*
X017360Y003533D02*
X017000Y003533D01*
X017127Y003692D02*
X017233Y003692D01*
X017180Y003850D02*
X017180Y003850D01*
X017180Y004009D02*
X017180Y004009D01*
X017180Y004167D02*
X017180Y004167D01*
X017180Y004326D02*
X017180Y004326D01*
X017180Y004484D02*
X017180Y004484D01*
X017137Y004643D02*
X017223Y004643D01*
X017334Y004801D02*
X017026Y004801D01*
X016470Y004960D02*
X022390Y004960D01*
X022334Y004801D02*
X022026Y004801D01*
X022137Y004643D02*
X022223Y004643D01*
X022180Y004484D02*
X022180Y004484D01*
X022180Y004326D02*
X022180Y004326D01*
X022180Y004167D02*
X022180Y004167D01*
X022180Y004009D02*
X022180Y004009D01*
X022180Y003850D02*
X022180Y003850D01*
X022127Y003692D02*
X022233Y003692D01*
X022360Y003533D02*
X022000Y003533D01*
X021360Y003533D02*
X021000Y003533D01*
X021127Y003692D02*
X021233Y003692D01*
X021180Y003850D02*
X021180Y003850D01*
X021180Y004009D02*
X021180Y004009D01*
X021180Y004167D02*
X021180Y004167D01*
X021180Y004326D02*
X021180Y004326D01*
X021180Y004484D02*
X021180Y004484D01*
X021137Y004643D02*
X021223Y004643D01*
X021334Y004801D02*
X021026Y004801D01*
X020334Y004801D02*
X020026Y004801D01*
X020137Y004643D02*
X020223Y004643D01*
X020180Y004484D02*
X020180Y004484D01*
X020180Y004326D02*
X020180Y004326D01*
X020180Y004167D02*
X020180Y004167D01*
X020180Y004009D02*
X020180Y004009D01*
X020180Y003850D02*
X020180Y003850D01*
X020127Y003692D02*
X020233Y003692D01*
X020360Y003533D02*
X020000Y003533D01*
X020390Y003375D02*
X017970Y003375D01*
X018000Y003533D02*
X018360Y003533D01*
X018233Y003692D02*
X018127Y003692D01*
X018180Y003850D02*
X018180Y003850D01*
X018180Y004009D02*
X018180Y004009D01*
X018180Y004167D02*
X018180Y004167D01*
X018180Y004326D02*
X018180Y004326D01*
X018180Y004484D02*
X018180Y004484D01*
X018137Y004643D02*
X018223Y004643D01*
X018334Y004801D02*
X018026Y004801D01*
X019026Y004801D02*
X019334Y004801D01*
X019223Y004643D02*
X019137Y004643D01*
X019180Y004484D02*
X019180Y004484D01*
X019180Y004326D02*
X019180Y004326D01*
X019180Y004167D02*
X019180Y004167D01*
X019180Y004009D02*
X019180Y004009D01*
X019180Y003850D02*
X019180Y003850D01*
X019127Y003692D02*
X019233Y003692D01*
X019360Y003533D02*
X019000Y003533D01*
X016360Y003533D02*
X013720Y003533D01*
X013720Y003692D02*
X016233Y003692D01*
X016180Y003850D02*
X013720Y003850D01*
X013720Y004009D02*
X016180Y004009D01*
X016180Y004167D02*
X013720Y004167D01*
X013720Y004326D02*
X014827Y004326D01*
X014973Y004180D02*
X015387Y004180D01*
X015680Y004473D01*
X015680Y004887D01*
X015387Y005180D01*
X014973Y005180D01*
X014680Y004887D01*
X014680Y004473D01*
X014973Y004180D01*
X015533Y004326D02*
X016124Y004326D01*
X015966Y004484D02*
X015680Y004484D01*
X015680Y004643D02*
X015890Y004643D01*
X015890Y004801D02*
X015680Y004801D01*
X015608Y004960D02*
X015890Y004960D01*
X015890Y005118D02*
X015449Y005118D01*
X015890Y005277D02*
X013720Y005277D01*
X013720Y005435D02*
X015890Y005435D01*
X015890Y005594D02*
X013720Y005594D01*
X013720Y005752D02*
X015890Y005752D01*
X015890Y005911D02*
X013720Y005911D01*
X013720Y006069D02*
X015890Y006069D01*
X016470Y005435D02*
X022775Y005435D01*
X022616Y005277D02*
X016470Y005277D01*
X016470Y005118D02*
X022458Y005118D01*
X023970Y005118D02*
X025390Y005118D01*
X025390Y004960D02*
X023970Y004960D01*
X024026Y004801D02*
X025390Y004801D01*
X025390Y004643D02*
X024137Y004643D01*
X024180Y004484D02*
X025390Y004484D01*
X025390Y004326D02*
X024180Y004326D01*
X024180Y004167D02*
X025390Y004167D01*
X025390Y004009D02*
X024180Y004009D01*
X024180Y003850D02*
X025390Y003850D01*
X025390Y003692D02*
X024127Y003692D01*
X024000Y003533D02*
X025373Y003533D01*
X021277Y002107D02*
X018979Y002107D01*
X014680Y004484D02*
X013720Y004484D01*
X013720Y004643D02*
X014680Y004643D01*
X014680Y004801D02*
X013720Y004801D01*
X013720Y004960D02*
X014752Y004960D01*
X014911Y005118D02*
X013720Y005118D01*
X010250Y005911D02*
X009821Y005911D01*
X009948Y006069D02*
X010409Y006069D01*
X010567Y006228D02*
X009970Y006228D01*
X009970Y006386D02*
X010726Y006386D01*
X010348Y006545D02*
X010012Y006545D01*
X010131Y006703D02*
X010229Y006703D01*
X010180Y006821D02*
X010180Y007270D01*
X010180Y007270D01*
X010180Y006821D01*
X010180Y006862D02*
X010180Y006862D01*
X010180Y007020D02*
X010180Y007020D01*
X010180Y007179D02*
X010180Y007179D01*
X010470Y007971D02*
X010890Y007971D01*
X010890Y008130D02*
X010470Y008130D01*
X010470Y008288D02*
X010890Y008288D01*
X010890Y008447D02*
X010470Y008447D01*
X010470Y008605D02*
X010890Y008605D01*
X010890Y008764D02*
X010470Y008764D01*
X010470Y008922D02*
X010890Y008922D01*
X010890Y009081D02*
X010470Y009081D01*
X010470Y009239D02*
X010890Y009239D01*
X010890Y009398D02*
X010454Y009398D01*
X010335Y009556D02*
X010890Y009556D01*
X010890Y009715D02*
X010177Y009715D01*
X010018Y009873D02*
X010890Y009873D01*
X010890Y010032D02*
X009860Y010032D01*
X009701Y010190D02*
X010890Y010190D01*
X010890Y010349D02*
X009691Y010349D01*
X009645Y010507D02*
X010890Y010507D01*
X010784Y010666D02*
X009530Y010666D01*
X008841Y010666D02*
X008470Y010666D01*
X008470Y010824D02*
X010626Y010824D01*
X010467Y010983D02*
X009910Y010983D01*
X009288Y010983D02*
X008470Y010983D01*
X008470Y011141D02*
X009154Y011141D01*
X009094Y011300D02*
X008470Y011300D01*
X008470Y011458D02*
X009094Y011458D01*
X009148Y011617D02*
X008470Y011617D01*
X008470Y011775D02*
X009273Y011775D01*
X009925Y011775D02*
X010675Y011775D01*
X010654Y011617D02*
X010833Y011617D01*
X010812Y011458D02*
X010992Y011458D01*
X010971Y011300D02*
X011140Y011300D01*
X011129Y011141D02*
X011140Y011141D01*
X008726Y010507D02*
X008513Y010507D01*
X008672Y010349D02*
X008680Y010349D01*
X006307Y009083D02*
X006307Y008456D01*
X006351Y008349D01*
X006855Y007844D01*
X006849Y007848D01*
X006783Y007869D01*
X006715Y007880D01*
X006680Y007880D01*
X006680Y007180D01*
X006680Y007180D01*
X006680Y006480D01*
X006715Y006480D01*
X006783Y006491D01*
X006849Y006512D01*
X006911Y006544D01*
X006920Y006550D01*
X006934Y006516D01*
X006980Y006470D01*
X005900Y006470D01*
X005963Y006496D01*
X006104Y006637D01*
X006180Y006821D01*
X006180Y007539D01*
X006104Y007723D01*
X005970Y007857D01*
X005970Y008988D01*
X005958Y009017D01*
X006148Y009017D01*
X006307Y009083D01*
X006307Y009081D02*
X006302Y009081D01*
X006307Y008922D02*
X005970Y008922D01*
X005970Y008764D02*
X006307Y008764D01*
X006307Y008605D02*
X005970Y008605D01*
X005970Y008447D02*
X006311Y008447D01*
X006412Y008288D02*
X005970Y008288D01*
X005970Y008130D02*
X006570Y008130D01*
X006729Y007971D02*
X005970Y007971D01*
X006015Y007813D02*
X006444Y007813D01*
X006449Y007816D02*
X006393Y007776D01*
X006344Y007727D01*
X006304Y007671D01*
X006272Y007609D01*
X006251Y007543D01*
X006240Y007475D01*
X006240Y007180D01*
X006680Y007180D01*
X006680Y007180D01*
X006680Y007180D01*
X006680Y007880D01*
X006645Y007880D01*
X006577Y007869D01*
X006511Y007848D01*
X006449Y007816D01*
X006295Y007654D02*
X006133Y007654D01*
X006180Y007496D02*
X006243Y007496D01*
X006240Y007337D02*
X006180Y007337D01*
X006180Y007179D02*
X006240Y007179D01*
X006240Y007180D02*
X006240Y006885D01*
X006251Y006817D01*
X006272Y006751D01*
X006304Y006689D01*
X006344Y006633D01*
X006393Y006584D01*
X006449Y006544D01*
X006511Y006512D01*
X006577Y006491D01*
X006645Y006480D01*
X006680Y006480D01*
X006680Y007180D01*
X006240Y007180D01*
X006240Y007020D02*
X006180Y007020D01*
X006180Y006862D02*
X006244Y006862D01*
X006297Y006703D02*
X006131Y006703D01*
X006012Y006545D02*
X006448Y006545D01*
X006680Y006545D02*
X006680Y006545D01*
X006680Y006703D02*
X006680Y006703D01*
X006680Y006862D02*
X006680Y006862D01*
X006680Y007020D02*
X006680Y007020D01*
X006680Y007179D02*
X006680Y007179D01*
X006680Y007337D02*
X006680Y007337D01*
X006680Y007496D02*
X006680Y007496D01*
X006680Y007654D02*
X006680Y007654D01*
X006680Y007813D02*
X006680Y007813D01*
X002890Y007813D02*
X001160Y007813D01*
X001160Y007971D02*
X002890Y007971D01*
X002890Y008130D02*
X001160Y008130D01*
X001160Y008288D02*
X002890Y008288D01*
X002890Y008447D02*
X001160Y008447D01*
X001160Y008605D02*
X002890Y008605D01*
X002890Y008764D02*
X001160Y008764D01*
X001160Y008922D02*
X002890Y008922D01*
X002890Y009081D02*
X001160Y009081D01*
X001160Y009239D02*
X002890Y009239D01*
X002890Y009398D02*
X001160Y009398D01*
X001160Y009556D02*
X002890Y009556D01*
X002890Y009715D02*
X001160Y009715D01*
X001160Y009873D02*
X002890Y009873D01*
X002890Y010032D02*
X001160Y010032D01*
X001160Y010190D02*
X002890Y010190D01*
X002890Y010349D02*
X001160Y010349D01*
X001160Y010507D02*
X002890Y010507D01*
X002890Y010666D02*
X001160Y010666D01*
X001160Y010824D02*
X002890Y010824D01*
X002890Y010983D02*
X001160Y010983D01*
X001160Y011141D02*
X002890Y011141D01*
X002890Y011300D02*
X001160Y011300D01*
X001160Y011458D02*
X002890Y011458D01*
X002890Y011617D02*
X001160Y011617D01*
X001160Y011775D02*
X002890Y011775D01*
X002890Y011934D02*
X001160Y011934D01*
X001160Y012092D02*
X002933Y012092D01*
X003090Y012251D02*
X001160Y012251D01*
X001160Y012409D02*
X003249Y012409D01*
X003407Y012568D02*
X001160Y012568D01*
X001160Y012726D02*
X003566Y012726D01*
X003724Y012885D02*
X001160Y012885D01*
X001160Y013043D02*
X003883Y013043D01*
X004041Y013202D02*
X001160Y013202D01*
X001160Y013360D02*
X004200Y013360D01*
X005059Y013519D02*
X001160Y013519D01*
X001160Y013677D02*
X005089Y013677D01*
X005181Y013836D02*
X001160Y013836D01*
X001160Y013994D02*
X005274Y013994D01*
X005274Y014153D02*
X001160Y014153D01*
X001160Y014311D02*
X005274Y014311D01*
X005315Y014470D02*
X001160Y014470D01*
X001160Y014628D02*
X005468Y014628D01*
X005626Y014787D02*
X001160Y014787D01*
X001160Y014945D02*
X005785Y014945D01*
X008470Y013043D02*
X008589Y013043D01*
X008470Y012885D02*
X009084Y012885D01*
X009003Y013043D02*
X009342Y013043D01*
X008987Y012726D02*
X008470Y012726D01*
X008470Y012568D02*
X008953Y012568D01*
X008968Y012409D02*
X008470Y012409D01*
X008470Y012251D02*
X009038Y012251D01*
X009230Y012092D02*
X008470Y012092D01*
X008470Y011934D02*
X010516Y011934D01*
X010358Y012092D02*
X009688Y012092D01*
X009880Y012251D02*
X010199Y012251D01*
X018958Y009017D02*
X019148Y009017D01*
X019307Y009083D01*
X019307Y008456D01*
X019351Y008349D01*
X019855Y007844D01*
X019849Y007848D01*
X019783Y007869D01*
X019715Y007880D01*
X019680Y007880D01*
X019680Y007180D01*
X019680Y007180D01*
X019680Y006480D01*
X019715Y006480D01*
X019783Y006491D01*
X019849Y006512D01*
X019911Y006544D01*
X019920Y006550D01*
X019934Y006516D01*
X019980Y006470D01*
X018900Y006470D01*
X018963Y006496D01*
X019104Y006637D01*
X019180Y006821D01*
X019180Y007539D01*
X019104Y007723D01*
X018970Y007857D01*
X018970Y008988D01*
X018958Y009017D01*
X018970Y008922D02*
X019307Y008922D01*
X019307Y008764D02*
X018970Y008764D01*
X018970Y008605D02*
X019307Y008605D01*
X019311Y008447D02*
X018970Y008447D01*
X018970Y008288D02*
X019412Y008288D01*
X019570Y008130D02*
X018970Y008130D01*
X018970Y007971D02*
X019729Y007971D01*
X019680Y007880D02*
X019645Y007880D01*
X019577Y007869D01*
X019511Y007848D01*
X019449Y007816D01*
X019393Y007776D01*
X019344Y007727D01*
X019304Y007671D01*
X019272Y007609D01*
X019251Y007543D01*
X019240Y007475D01*
X019240Y007180D01*
X019680Y007180D01*
X019680Y007180D01*
X019680Y007180D01*
X019680Y007880D01*
X019680Y007813D02*
X019680Y007813D01*
X019680Y007654D02*
X019680Y007654D01*
X019680Y007496D02*
X019680Y007496D01*
X019680Y007337D02*
X019680Y007337D01*
X019680Y007180D02*
X019240Y007180D01*
X019240Y006885D01*
X019251Y006817D01*
X019272Y006751D01*
X019304Y006689D01*
X019344Y006633D01*
X019393Y006584D01*
X019449Y006544D01*
X019511Y006512D01*
X019577Y006491D01*
X019645Y006480D01*
X019680Y006480D01*
X019680Y007180D01*
X019680Y007179D02*
X019680Y007179D01*
X019680Y007020D02*
X019680Y007020D01*
X019680Y006862D02*
X019680Y006862D01*
X019680Y006703D02*
X019680Y006703D01*
X019680Y006545D02*
X019680Y006545D01*
X019912Y006545D02*
X019922Y006545D01*
X019448Y006545D02*
X019012Y006545D01*
X019131Y006703D02*
X019297Y006703D01*
X019244Y006862D02*
X019180Y006862D01*
X019180Y007020D02*
X019240Y007020D01*
X019240Y007179D02*
X019180Y007179D01*
X019180Y007337D02*
X019240Y007337D01*
X019243Y007496D02*
X019180Y007496D01*
X019133Y007654D02*
X019295Y007654D01*
X019444Y007813D02*
X019015Y007813D01*
X023470Y007971D02*
X023890Y007971D01*
X023890Y008130D02*
X023470Y008130D01*
X023470Y008288D02*
X023890Y008288D01*
X023890Y008447D02*
X023470Y008447D01*
X023470Y008605D02*
X023890Y008605D01*
X023890Y008764D02*
X023470Y008764D01*
X023470Y008922D02*
X023890Y008922D01*
X023890Y009081D02*
X023470Y009081D01*
X023470Y009239D02*
X023890Y009239D01*
X023890Y009398D02*
X023454Y009398D01*
X023335Y009556D02*
X023890Y009556D01*
X023890Y009715D02*
X023177Y009715D01*
X023018Y009873D02*
X023890Y009873D01*
X023890Y010032D02*
X022860Y010032D01*
X022701Y010190D02*
X023890Y010190D01*
X023890Y010349D02*
X022691Y010349D01*
X022645Y010507D02*
X023890Y010507D01*
X023784Y010666D02*
X022530Y010666D01*
X021841Y010666D02*
X021470Y010666D01*
X021470Y010824D02*
X023626Y010824D01*
X023467Y010983D02*
X022910Y010983D01*
X022288Y010983D02*
X021470Y010983D01*
X021470Y011141D02*
X022154Y011141D01*
X022094Y011300D02*
X021470Y011300D01*
X021470Y011458D02*
X022094Y011458D01*
X022148Y011617D02*
X021470Y011617D01*
X021470Y011775D02*
X022273Y011775D01*
X022925Y011775D02*
X023675Y011775D01*
X023654Y011617D02*
X023833Y011617D01*
X023812Y011458D02*
X023992Y011458D01*
X023971Y011300D02*
X024140Y011300D01*
X024129Y011141D02*
X024140Y011141D01*
X021726Y010507D02*
X021513Y010507D01*
X021672Y010349D02*
X021680Y010349D01*
X019307Y009081D02*
X019302Y009081D01*
X024720Y007020D02*
X025390Y007020D01*
X025390Y006862D02*
X024720Y006862D01*
X024720Y006703D02*
X025390Y006703D01*
X025390Y006545D02*
X024720Y006545D01*
X024720Y006386D02*
X025390Y006386D01*
X025390Y006228D02*
X024720Y006228D01*
X024698Y006069D02*
X025390Y006069D01*
X025390Y005911D02*
X024571Y005911D01*
X024412Y005752D02*
X025390Y005752D01*
X025390Y005594D02*
X024254Y005594D01*
X024095Y005435D02*
X025390Y005435D01*
X025390Y005277D02*
X023970Y005277D01*
X010092Y005752D02*
X009662Y005752D01*
X006922Y006545D02*
X006912Y006545D01*
X002890Y007179D02*
X001160Y007179D01*
X001160Y007337D02*
X002890Y007337D01*
X002890Y007496D02*
X001160Y007496D01*
X001160Y007654D02*
X002890Y007654D01*
X001898Y007020D02*
X001160Y007020D01*
X001160Y006862D02*
X001740Y006862D01*
X001740Y006703D02*
X001160Y006703D01*
X001160Y006545D02*
X001740Y006545D01*
X021470Y011934D02*
X023516Y011934D01*
X023358Y012092D02*
X022688Y012092D01*
X022880Y012251D02*
X023199Y012251D01*
X022230Y012092D02*
X021470Y012092D01*
X021470Y012251D02*
X022038Y012251D01*
X021968Y012409D02*
X021470Y012409D01*
X021470Y012568D02*
X021953Y012568D01*
X021987Y012726D02*
X021470Y012726D01*
X041660Y019200D02*
X041660Y019660D01*
X041481Y019660D01*
X041220Y019399D01*
X041220Y019404D01*
X041040Y019584D01*
X041040Y019776D01*
X041220Y019956D01*
X041220Y019961D01*
X041481Y019700D01*
X041040Y019700D01*
X041082Y019542D02*
X041363Y019542D01*
X041481Y019700D02*
X041660Y019700D01*
X041660Y020160D01*
X041700Y020160D01*
X041700Y019700D01*
X041879Y019700D01*
X042320Y019700D01*
X042320Y019776D02*
X042320Y019584D01*
X042140Y019404D01*
X042140Y019399D01*
X041879Y019660D01*
X041700Y019660D01*
X041700Y019200D01*
X041660Y019200D01*
X041660Y019225D02*
X041700Y019225D01*
X041700Y019383D02*
X041660Y019383D01*
X041660Y019542D02*
X041700Y019542D01*
X041700Y019700D02*
X041660Y019700D01*
X041660Y019859D02*
X041700Y019859D01*
X041700Y020017D02*
X041660Y020017D01*
X041660Y020334D02*
X041700Y020334D01*
X041700Y020493D02*
X041660Y020493D01*
X041660Y020651D02*
X041700Y020651D01*
X041888Y020651D02*
X042387Y020651D01*
X042229Y020493D02*
X042046Y020493D01*
X041472Y020651D02*
X040973Y020651D01*
X041131Y020493D02*
X041314Y020493D01*
X041879Y019700D02*
X042140Y019961D01*
X042140Y019956D01*
X042320Y019776D01*
X042238Y019859D02*
X042037Y019859D01*
X041997Y019542D02*
X042278Y019542D01*
X041323Y019859D02*
X041122Y019859D01*
X043131Y020493D02*
X043229Y020493D01*
X043387Y020651D02*
X042973Y020651D01*
X043973Y020651D02*
X044387Y020651D01*
X044229Y020493D02*
X044131Y020493D01*
X044973Y020651D02*
X045387Y020651D01*
X045229Y020493D02*
X045131Y020493D01*
X045973Y020651D02*
X046387Y020651D01*
X046229Y020493D02*
X046131Y020493D01*
X046973Y020651D02*
X047387Y020651D01*
X047229Y020493D02*
X047131Y020493D01*
X047973Y020651D02*
X048387Y020651D01*
X048229Y020493D02*
X048131Y020493D01*
X048973Y020651D02*
X049387Y020651D01*
X049229Y020493D02*
X049131Y020493D01*
X049973Y020651D02*
X050387Y020651D01*
X050229Y020493D02*
X050131Y020493D01*
X059970Y018591D02*
X082009Y018591D01*
X081810Y018749D02*
X072264Y018749D01*
X072410Y018908D02*
X081664Y018908D01*
X081556Y019066D02*
X072476Y019066D01*
X072480Y019225D02*
X081451Y019225D01*
X081402Y019383D02*
X072439Y019383D01*
X072334Y019542D02*
X081353Y019542D01*
X081308Y019700D02*
X073907Y019700D01*
X074066Y019859D02*
X077379Y019859D01*
X077498Y019740D02*
X077680Y019740D01*
X077862Y019740D01*
X078120Y019998D01*
X078120Y020180D01*
X078120Y020362D01*
X077862Y020620D01*
X077680Y020620D01*
X077680Y020180D01*
X078120Y020180D01*
X077680Y020180D01*
X077680Y020180D01*
X077680Y020180D01*
X077680Y019740D01*
X077680Y020180D01*
X077680Y020180D01*
X077680Y020180D01*
X077240Y020180D01*
X077240Y020362D01*
X077498Y020620D01*
X077680Y020620D01*
X077680Y020180D01*
X077240Y020180D01*
X077240Y019998D01*
X077498Y019740D01*
X077680Y019859D02*
X077680Y019859D01*
X077680Y020017D02*
X077680Y020017D01*
X077680Y020176D02*
X077680Y020176D01*
X077680Y020334D02*
X077680Y020334D01*
X077680Y020493D02*
X077680Y020493D01*
X077990Y020493D02*
X081406Y020493D01*
X081358Y020334D02*
X078120Y020334D01*
X078120Y020176D02*
X081309Y020176D01*
X081308Y020017D02*
X078120Y020017D01*
X077981Y019859D02*
X081308Y019859D01*
X081459Y020651D02*
X073916Y020651D01*
X074075Y020493D02*
X077370Y020493D01*
X077240Y020334D02*
X074180Y020334D01*
X074180Y020176D02*
X077240Y020176D01*
X077240Y020017D02*
X074180Y020017D01*
X073453Y019700D02*
X072160Y019700D01*
X072374Y019859D02*
X073294Y019859D01*
X070921Y019383D02*
X060220Y019383D01*
X060220Y019225D02*
X070880Y019225D01*
X070884Y019066D02*
X060220Y019066D01*
X060171Y018908D02*
X070950Y018908D01*
X071096Y018749D02*
X060013Y018749D01*
X059970Y018432D02*
X082308Y018432D01*
X083579Y018432D02*
X084192Y018432D01*
X084192Y018274D02*
X059970Y018274D01*
X059970Y018115D02*
X084192Y018115D01*
X084192Y017957D02*
X059970Y017957D01*
X059970Y017798D02*
X084192Y017798D01*
X084192Y017640D02*
X059970Y017640D01*
X059970Y017481D02*
X084192Y017481D01*
X084192Y017323D02*
X059970Y017323D01*
X059970Y017164D02*
X084192Y017164D01*
X084192Y017006D02*
X059970Y017006D01*
X059970Y016847D02*
X060037Y016847D01*
X060323Y016847D02*
X084192Y016847D01*
X084192Y016689D02*
X080564Y016689D01*
X080740Y016530D02*
X084192Y016530D01*
X084192Y016372D02*
X080899Y016372D01*
X083853Y018591D02*
X084192Y018591D01*
X084192Y018749D02*
X084046Y018749D01*
X081567Y020810D02*
X071461Y020810D01*
X071242Y020968D02*
X081675Y020968D01*
X073444Y020651D02*
X072182Y020651D01*
X072383Y020493D02*
X073285Y020493D01*
X069981Y015104D02*
X069464Y015104D01*
X069622Y014945D02*
X069823Y014945D01*
X069740Y014787D02*
X069680Y014787D01*
X069680Y014628D02*
X069740Y014628D01*
X069768Y014470D02*
X069677Y014470D01*
X069518Y014311D02*
X069927Y014311D01*
X068842Y014311D02*
X066690Y014311D01*
X066551Y014470D02*
X068683Y014470D01*
X068680Y014628D02*
X066392Y014628D01*
X066234Y014787D02*
X068663Y014787D01*
X068505Y014945D02*
X066075Y014945D01*
X065917Y015104D02*
X068346Y015104D01*
X079470Y012726D02*
X079987Y012726D01*
X079953Y012568D02*
X079470Y012568D01*
X079470Y012409D02*
X079968Y012409D01*
X080038Y012251D02*
X079470Y012251D01*
X079470Y012092D02*
X080230Y012092D01*
X080688Y012092D02*
X081358Y012092D01*
X081516Y011934D02*
X079470Y011934D01*
X080880Y012251D02*
X081199Y012251D01*
D18*
X060180Y015680D03*
X060180Y016430D03*
X057180Y005180D03*
X060430Y003430D03*
X050680Y001930D03*
X047680Y002430D03*
X037680Y001930D03*
X034680Y002430D03*
X021680Y001930D03*
X018680Y002430D03*
X008680Y001930D03*
X005680Y002430D03*
X073430Y003430D03*
M02*
