%
M48
M72
T01C0.0240
T02C0.0320
T03C0.0331
T04C0.0360
T05C0.0400
T06C0.1102
%
T01
X5680Y2430
X8680Y1930
X18680Y2430
X21680Y1930
X34680Y2430
X37680Y1930
X47680Y2430
X50680Y1930
X60430Y3430
X57180Y5180
X73430Y3430
X60180Y15680
X60180Y16430
T02
X54180Y14680
X53180Y14680
X41180Y14680
X40180Y14680
X25180Y14680
X24180Y14680
X12180Y14680
X11180Y14680
X8680Y18180
X11180Y18680
X12180Y18680
X13180Y18680
X14180Y18680
X15180Y18680
X16180Y18680
X17180Y18680
X18180Y18680
X15180Y20180
X11180Y20180
X8680Y20180
X5680Y20180
X5680Y19180
X5680Y18180
X8680Y19180
X8680Y7180
X9680Y7180
X10680Y7180
X7680Y7180
X6680Y7180
X5680Y7180
X4680Y7180
X3680Y7180
X2180Y6680
X2180Y4680
X3680Y4180
X4680Y4180
X5680Y4180
X6680Y4180
X7680Y4180
X8680Y4180
X9680Y4180
X10680Y4180
X15180Y4680
X16680Y4180
X17680Y4180
X18680Y4180
X19680Y4180
X20680Y4180
X21680Y4180
X22680Y4180
X23680Y4180
X31180Y4680
X32680Y4180
X33680Y4180
X34680Y4180
X35680Y4180
X36680Y4180
X37680Y4180
X38680Y4180
X39680Y4180
X44180Y4680
X45680Y4180
X46680Y4180
X47680Y4180
X48680Y4180
X49680Y4180
X50680Y4180
X51680Y4180
X52680Y4180
X60180Y4680
X61680Y4180
X62680Y4180
X63680Y4180
X64680Y4180
X65680Y4180
X66680Y4180
X67680Y4180
X68680Y4180
X73180Y4680
X74680Y4180
X75680Y4180
X76680Y4180
X77680Y4180
X78680Y4180
X79680Y4180
X80680Y4180
X81680Y4180
X73180Y6680
X74680Y7180
X75680Y7180
X76680Y7180
X77680Y7180
X78680Y7180
X79680Y7180
X80680Y7180
X81680Y7180
X68680Y7180
X67680Y7180
X66680Y7180
X65680Y7180
X64680Y7180
X63680Y7180
X62680Y7180
X61680Y7180
X60180Y6680
X52680Y7180
X51680Y7180
X50680Y7180
X49680Y7180
X48680Y7180
X47680Y7180
X46680Y7180
X45680Y7180
X44180Y6680
X39680Y7180
X38680Y7180
X37680Y7180
X36680Y7180
X35680Y7180
X34680Y7180
X33680Y7180
X32680Y7180
X31180Y6680
X23680Y7180
X22680Y7180
X21680Y7180
X20680Y7180
X19680Y7180
X18680Y7180
X17680Y7180
X16680Y7180
X15180Y6680
X69180Y14680
X70180Y14680
X82180Y14680
X83180Y14680
X77680Y20180
X73680Y20180
T03
X77597Y14046
X78763Y14046
X79796Y13504
X80459Y12544
X76564Y13504
X75901Y12544
X75761Y11386
X76174Y10296
X77047Y9522
X78180Y9243
X79313Y9522
X80186Y10296
X80599Y11386
X67599Y11386
X67186Y10296
X66313Y9522
X65180Y9243
X64047Y9522
X63174Y10296
X62761Y11386
X62901Y12544
X63564Y13504
X64597Y14046
X65763Y14046
X66796Y13504
X67459Y12544
X51599Y11386
X51186Y10296
X50313Y9522
X49180Y9243
X48047Y9522
X47174Y10296
X46761Y11386
X46901Y12544
X47564Y13504
X48597Y14046
X49763Y14046
X50796Y13504
X51459Y12544
X38599Y11386
X38186Y10296
X37313Y9522
X36180Y9243
X35047Y9522
X34174Y10296
X33761Y11386
X33901Y12544
X34564Y13504
X35597Y14046
X36763Y14046
X37796Y13504
X38459Y12544
X22599Y11386
X22186Y10296
X21313Y9522
X20180Y9243
X19047Y9522
X18174Y10296
X17761Y11386
X17901Y12544
X18564Y13504
X19597Y14046
X20763Y14046
X21796Y13504
X22459Y12544
X9599Y11386
X9186Y10296
X8313Y9522
X7180Y9243
X6047Y9522
X5174Y10296
X4761Y11386
X4901Y12544
X5564Y13504
X6597Y14046
X7763Y14046
X8796Y13504
X9459Y12544
T04
X71680Y19180
X71680Y20180
T05
X59680Y20180
X58680Y20180
X57680Y20180
X56680Y20180
X55680Y20180
X54680Y20180
X53680Y20180
X52680Y20180
X51680Y20180
X50680Y20180
X49680Y20180
X48680Y20180
X47680Y20180
X46680Y20180
X45680Y20180
X44680Y20180
X43680Y20180
X42680Y20180
X41680Y20180
X40680Y20180
X40680Y19180
X41680Y19180
X42680Y19180
X43680Y19180
X44680Y19180
X45680Y19180
X46680Y19180
X47680Y19180
X48680Y19180
X49680Y19180
X50680Y19180
X51680Y19180
X52680Y19180
X53680Y19180
X54680Y19180
X55680Y19180
X56680Y19180
X57680Y19180
X58680Y19180
X59680Y19180
T06
X2430Y2430
X2430Y19930
X82930Y19930
X82930Y2430
M30
