G75*
G70*
%OFA0B0*%
%FSLAX24Y24*%
%IPPOS*%
%LPD*%
%AMOC8*
5,1,8,0,0,1.08239X$1,22.5*
%
%ADD10C,0.0000*%
%ADD11C,0.0060*%
%ADD12C,0.0050*%
%ADD13R,0.0340X0.0240*%
%ADD14C,0.0100*%
%ADD15C,0.0120*%
D10*
X000680Y000680D02*
X000680Y021550D01*
X084672Y021550D01*
X084672Y000680D01*
X000680Y000680D01*
X001879Y002430D02*
X001881Y002477D01*
X001887Y002523D01*
X001897Y002569D01*
X001910Y002614D01*
X001928Y002657D01*
X001949Y002699D01*
X001973Y002739D01*
X002001Y002776D01*
X002032Y002811D01*
X002066Y002844D01*
X002102Y002873D01*
X002141Y002899D01*
X002182Y002922D01*
X002225Y002941D01*
X002269Y002957D01*
X002314Y002969D01*
X002360Y002977D01*
X002407Y002981D01*
X002453Y002981D01*
X002500Y002977D01*
X002546Y002969D01*
X002591Y002957D01*
X002635Y002941D01*
X002678Y002922D01*
X002719Y002899D01*
X002758Y002873D01*
X002794Y002844D01*
X002828Y002811D01*
X002859Y002776D01*
X002887Y002739D01*
X002911Y002699D01*
X002932Y002657D01*
X002950Y002614D01*
X002963Y002569D01*
X002973Y002523D01*
X002979Y002477D01*
X002981Y002430D01*
X002979Y002383D01*
X002973Y002337D01*
X002963Y002291D01*
X002950Y002246D01*
X002932Y002203D01*
X002911Y002161D01*
X002887Y002121D01*
X002859Y002084D01*
X002828Y002049D01*
X002794Y002016D01*
X002758Y001987D01*
X002719Y001961D01*
X002678Y001938D01*
X002635Y001919D01*
X002591Y001903D01*
X002546Y001891D01*
X002500Y001883D01*
X002453Y001879D01*
X002407Y001879D01*
X002360Y001883D01*
X002314Y001891D01*
X002269Y001903D01*
X002225Y001919D01*
X002182Y001938D01*
X002141Y001961D01*
X002102Y001987D01*
X002066Y002016D01*
X002032Y002049D01*
X002001Y002084D01*
X001973Y002121D01*
X001949Y002161D01*
X001928Y002203D01*
X001910Y002246D01*
X001897Y002291D01*
X001887Y002337D01*
X001881Y002383D01*
X001879Y002430D01*
X001879Y019930D02*
X001881Y019977D01*
X001887Y020023D01*
X001897Y020069D01*
X001910Y020114D01*
X001928Y020157D01*
X001949Y020199D01*
X001973Y020239D01*
X002001Y020276D01*
X002032Y020311D01*
X002066Y020344D01*
X002102Y020373D01*
X002141Y020399D01*
X002182Y020422D01*
X002225Y020441D01*
X002269Y020457D01*
X002314Y020469D01*
X002360Y020477D01*
X002407Y020481D01*
X002453Y020481D01*
X002500Y020477D01*
X002546Y020469D01*
X002591Y020457D01*
X002635Y020441D01*
X002678Y020422D01*
X002719Y020399D01*
X002758Y020373D01*
X002794Y020344D01*
X002828Y020311D01*
X002859Y020276D01*
X002887Y020239D01*
X002911Y020199D01*
X002932Y020157D01*
X002950Y020114D01*
X002963Y020069D01*
X002973Y020023D01*
X002979Y019977D01*
X002981Y019930D01*
X002979Y019883D01*
X002973Y019837D01*
X002963Y019791D01*
X002950Y019746D01*
X002932Y019703D01*
X002911Y019661D01*
X002887Y019621D01*
X002859Y019584D01*
X002828Y019549D01*
X002794Y019516D01*
X002758Y019487D01*
X002719Y019461D01*
X002678Y019438D01*
X002635Y019419D01*
X002591Y019403D01*
X002546Y019391D01*
X002500Y019383D01*
X002453Y019379D01*
X002407Y019379D01*
X002360Y019383D01*
X002314Y019391D01*
X002269Y019403D01*
X002225Y019419D01*
X002182Y019438D01*
X002141Y019461D01*
X002102Y019487D01*
X002066Y019516D01*
X002032Y019549D01*
X002001Y019584D01*
X001973Y019621D01*
X001949Y019661D01*
X001928Y019703D01*
X001910Y019746D01*
X001897Y019791D01*
X001887Y019837D01*
X001881Y019883D01*
X001879Y019930D01*
X082379Y019930D02*
X082381Y019977D01*
X082387Y020023D01*
X082397Y020069D01*
X082410Y020114D01*
X082428Y020157D01*
X082449Y020199D01*
X082473Y020239D01*
X082501Y020276D01*
X082532Y020311D01*
X082566Y020344D01*
X082602Y020373D01*
X082641Y020399D01*
X082682Y020422D01*
X082725Y020441D01*
X082769Y020457D01*
X082814Y020469D01*
X082860Y020477D01*
X082907Y020481D01*
X082953Y020481D01*
X083000Y020477D01*
X083046Y020469D01*
X083091Y020457D01*
X083135Y020441D01*
X083178Y020422D01*
X083219Y020399D01*
X083258Y020373D01*
X083294Y020344D01*
X083328Y020311D01*
X083359Y020276D01*
X083387Y020239D01*
X083411Y020199D01*
X083432Y020157D01*
X083450Y020114D01*
X083463Y020069D01*
X083473Y020023D01*
X083479Y019977D01*
X083481Y019930D01*
X083479Y019883D01*
X083473Y019837D01*
X083463Y019791D01*
X083450Y019746D01*
X083432Y019703D01*
X083411Y019661D01*
X083387Y019621D01*
X083359Y019584D01*
X083328Y019549D01*
X083294Y019516D01*
X083258Y019487D01*
X083219Y019461D01*
X083178Y019438D01*
X083135Y019419D01*
X083091Y019403D01*
X083046Y019391D01*
X083000Y019383D01*
X082953Y019379D01*
X082907Y019379D01*
X082860Y019383D01*
X082814Y019391D01*
X082769Y019403D01*
X082725Y019419D01*
X082682Y019438D01*
X082641Y019461D01*
X082602Y019487D01*
X082566Y019516D01*
X082532Y019549D01*
X082501Y019584D01*
X082473Y019621D01*
X082449Y019661D01*
X082428Y019703D01*
X082410Y019746D01*
X082397Y019791D01*
X082387Y019837D01*
X082381Y019883D01*
X082379Y019930D01*
X082379Y002430D02*
X082381Y002477D01*
X082387Y002523D01*
X082397Y002569D01*
X082410Y002614D01*
X082428Y002657D01*
X082449Y002699D01*
X082473Y002739D01*
X082501Y002776D01*
X082532Y002811D01*
X082566Y002844D01*
X082602Y002873D01*
X082641Y002899D01*
X082682Y002922D01*
X082725Y002941D01*
X082769Y002957D01*
X082814Y002969D01*
X082860Y002977D01*
X082907Y002981D01*
X082953Y002981D01*
X083000Y002977D01*
X083046Y002969D01*
X083091Y002957D01*
X083135Y002941D01*
X083178Y002922D01*
X083219Y002899D01*
X083258Y002873D01*
X083294Y002844D01*
X083328Y002811D01*
X083359Y002776D01*
X083387Y002739D01*
X083411Y002699D01*
X083432Y002657D01*
X083450Y002614D01*
X083463Y002569D01*
X083473Y002523D01*
X083479Y002477D01*
X083481Y002430D01*
X083479Y002383D01*
X083473Y002337D01*
X083463Y002291D01*
X083450Y002246D01*
X083432Y002203D01*
X083411Y002161D01*
X083387Y002121D01*
X083359Y002084D01*
X083328Y002049D01*
X083294Y002016D01*
X083258Y001987D01*
X083219Y001961D01*
X083178Y001938D01*
X083135Y001919D01*
X083091Y001903D01*
X083046Y001891D01*
X083000Y001883D01*
X082953Y001879D01*
X082907Y001879D01*
X082860Y001883D01*
X082814Y001891D01*
X082769Y001903D01*
X082725Y001919D01*
X082682Y001938D01*
X082641Y001961D01*
X082602Y001987D01*
X082566Y002016D01*
X082532Y002049D01*
X082501Y002084D01*
X082473Y002121D01*
X082449Y002161D01*
X082428Y002203D01*
X082410Y002246D01*
X082397Y002291D01*
X082387Y002337D01*
X082381Y002383D01*
X082379Y002430D01*
D11*
X082180Y004530D02*
X074180Y004530D01*
X074180Y006830D01*
X082180Y006830D01*
X082180Y006080D01*
X082141Y006078D01*
X082102Y006072D01*
X082064Y006063D01*
X082027Y006050D01*
X081991Y006033D01*
X081958Y006013D01*
X081926Y005989D01*
X081897Y005963D01*
X081871Y005934D01*
X081847Y005902D01*
X081827Y005869D01*
X081810Y005833D01*
X081797Y005796D01*
X081788Y005758D01*
X081782Y005719D01*
X081780Y005680D01*
X081782Y005641D01*
X081788Y005602D01*
X081797Y005564D01*
X081810Y005527D01*
X081827Y005491D01*
X081847Y005458D01*
X081871Y005426D01*
X081897Y005397D01*
X081926Y005371D01*
X081958Y005347D01*
X081991Y005327D01*
X082027Y005310D01*
X082064Y005297D01*
X082102Y005288D01*
X082141Y005282D01*
X082180Y005280D01*
X082180Y004530D01*
X073680Y004330D02*
X073680Y007030D01*
X073678Y007047D01*
X073674Y007064D01*
X073667Y007080D01*
X073657Y007094D01*
X073644Y007107D01*
X073630Y007117D01*
X073614Y007124D01*
X073597Y007128D01*
X073580Y007130D01*
X072780Y007130D01*
X072763Y007128D01*
X072746Y007124D01*
X072730Y007117D01*
X072716Y007107D01*
X072703Y007094D01*
X072693Y007080D01*
X072686Y007064D01*
X072682Y007047D01*
X072680Y007030D01*
X072680Y004330D01*
X072682Y004313D01*
X072686Y004296D01*
X072693Y004280D01*
X072703Y004266D01*
X072716Y004253D01*
X072730Y004243D01*
X072746Y004236D01*
X072763Y004232D01*
X072780Y004230D01*
X073580Y004230D01*
X073597Y004232D01*
X073614Y004236D01*
X073630Y004243D01*
X073644Y004253D01*
X073657Y004266D01*
X073667Y004280D01*
X073674Y004296D01*
X073678Y004313D01*
X073680Y004330D01*
X073180Y005080D02*
X073180Y005560D01*
X073180Y005810D02*
X073180Y006280D01*
X069180Y006080D02*
X069180Y006830D01*
X061180Y006830D01*
X061180Y004530D01*
X069180Y004530D01*
X069180Y005280D01*
X069141Y005282D01*
X069102Y005288D01*
X069064Y005297D01*
X069027Y005310D01*
X068991Y005327D01*
X068958Y005347D01*
X068926Y005371D01*
X068897Y005397D01*
X068871Y005426D01*
X068847Y005458D01*
X068827Y005491D01*
X068810Y005527D01*
X068797Y005564D01*
X068788Y005602D01*
X068782Y005641D01*
X068780Y005680D01*
X068782Y005719D01*
X068788Y005758D01*
X068797Y005796D01*
X068810Y005833D01*
X068827Y005869D01*
X068847Y005902D01*
X068871Y005934D01*
X068897Y005963D01*
X068926Y005989D01*
X068958Y006013D01*
X068991Y006033D01*
X069027Y006050D01*
X069064Y006063D01*
X069102Y006072D01*
X069141Y006078D01*
X069180Y006080D01*
X060680Y007030D02*
X060680Y004330D01*
X060678Y004313D01*
X060674Y004296D01*
X060667Y004280D01*
X060657Y004266D01*
X060644Y004253D01*
X060630Y004243D01*
X060614Y004236D01*
X060597Y004232D01*
X060580Y004230D01*
X059780Y004230D01*
X059763Y004232D01*
X059746Y004236D01*
X059730Y004243D01*
X059716Y004253D01*
X059703Y004266D01*
X059693Y004280D01*
X059686Y004296D01*
X059682Y004313D01*
X059680Y004330D01*
X059680Y007030D01*
X059682Y007047D01*
X059686Y007064D01*
X059693Y007080D01*
X059703Y007094D01*
X059716Y007107D01*
X059730Y007117D01*
X059746Y007124D01*
X059763Y007128D01*
X059780Y007130D01*
X060580Y007130D01*
X060597Y007128D01*
X060614Y007124D01*
X060630Y007117D01*
X060644Y007107D01*
X060657Y007094D01*
X060667Y007080D01*
X060674Y007064D01*
X060678Y007047D01*
X060680Y007030D01*
X060180Y006280D02*
X060180Y005810D01*
X060180Y005560D02*
X060180Y005080D01*
X053180Y005280D02*
X053180Y004530D01*
X045180Y004530D01*
X045180Y006830D01*
X053180Y006830D01*
X053180Y006080D01*
X053141Y006078D01*
X053102Y006072D01*
X053064Y006063D01*
X053027Y006050D01*
X052991Y006033D01*
X052958Y006013D01*
X052926Y005989D01*
X052897Y005963D01*
X052871Y005934D01*
X052847Y005902D01*
X052827Y005869D01*
X052810Y005833D01*
X052797Y005796D01*
X052788Y005758D01*
X052782Y005719D01*
X052780Y005680D01*
X052782Y005641D01*
X052788Y005602D01*
X052797Y005564D01*
X052810Y005527D01*
X052827Y005491D01*
X052847Y005458D01*
X052871Y005426D01*
X052897Y005397D01*
X052926Y005371D01*
X052958Y005347D01*
X052991Y005327D01*
X053027Y005310D01*
X053064Y005297D01*
X053102Y005288D01*
X053141Y005282D01*
X053180Y005280D01*
X044680Y004330D02*
X044680Y007030D01*
X044678Y007047D01*
X044674Y007064D01*
X044667Y007080D01*
X044657Y007094D01*
X044644Y007107D01*
X044630Y007117D01*
X044614Y007124D01*
X044597Y007128D01*
X044580Y007130D01*
X043780Y007130D01*
X043763Y007128D01*
X043746Y007124D01*
X043730Y007117D01*
X043716Y007107D01*
X043703Y007094D01*
X043693Y007080D01*
X043686Y007064D01*
X043682Y007047D01*
X043680Y007030D01*
X043680Y004330D01*
X043682Y004313D01*
X043686Y004296D01*
X043693Y004280D01*
X043703Y004266D01*
X043716Y004253D01*
X043730Y004243D01*
X043746Y004236D01*
X043763Y004232D01*
X043780Y004230D01*
X044580Y004230D01*
X044597Y004232D01*
X044614Y004236D01*
X044630Y004243D01*
X044644Y004253D01*
X044657Y004266D01*
X044667Y004280D01*
X044674Y004296D01*
X044678Y004313D01*
X044680Y004330D01*
X044180Y005080D02*
X044180Y005560D01*
X044180Y005810D02*
X044180Y006280D01*
X040180Y006080D02*
X040180Y006830D01*
X032180Y006830D01*
X032180Y004530D01*
X040180Y004530D01*
X040180Y005280D01*
X040141Y005282D01*
X040102Y005288D01*
X040064Y005297D01*
X040027Y005310D01*
X039991Y005327D01*
X039958Y005347D01*
X039926Y005371D01*
X039897Y005397D01*
X039871Y005426D01*
X039847Y005458D01*
X039827Y005491D01*
X039810Y005527D01*
X039797Y005564D01*
X039788Y005602D01*
X039782Y005641D01*
X039780Y005680D01*
X039782Y005719D01*
X039788Y005758D01*
X039797Y005796D01*
X039810Y005833D01*
X039827Y005869D01*
X039847Y005902D01*
X039871Y005934D01*
X039897Y005963D01*
X039926Y005989D01*
X039958Y006013D01*
X039991Y006033D01*
X040027Y006050D01*
X040064Y006063D01*
X040102Y006072D01*
X040141Y006078D01*
X040180Y006080D01*
X031680Y007030D02*
X031680Y004330D01*
X031678Y004313D01*
X031674Y004296D01*
X031667Y004280D01*
X031657Y004266D01*
X031644Y004253D01*
X031630Y004243D01*
X031614Y004236D01*
X031597Y004232D01*
X031580Y004230D01*
X030780Y004230D01*
X030763Y004232D01*
X030746Y004236D01*
X030730Y004243D01*
X030716Y004253D01*
X030703Y004266D01*
X030693Y004280D01*
X030686Y004296D01*
X030682Y004313D01*
X030680Y004330D01*
X030680Y007030D01*
X030682Y007047D01*
X030686Y007064D01*
X030693Y007080D01*
X030703Y007094D01*
X030716Y007107D01*
X030730Y007117D01*
X030746Y007124D01*
X030763Y007128D01*
X030780Y007130D01*
X031580Y007130D01*
X031597Y007128D01*
X031614Y007124D01*
X031630Y007117D01*
X031644Y007107D01*
X031657Y007094D01*
X031667Y007080D01*
X031674Y007064D01*
X031678Y007047D01*
X031680Y007030D01*
X031180Y006280D02*
X031180Y005810D01*
X031180Y005560D02*
X031180Y005080D01*
X024180Y005280D02*
X024180Y004530D01*
X016180Y004530D01*
X016180Y006830D01*
X024180Y006830D01*
X024180Y006080D01*
X024141Y006078D01*
X024102Y006072D01*
X024064Y006063D01*
X024027Y006050D01*
X023991Y006033D01*
X023958Y006013D01*
X023926Y005989D01*
X023897Y005963D01*
X023871Y005934D01*
X023847Y005902D01*
X023827Y005869D01*
X023810Y005833D01*
X023797Y005796D01*
X023788Y005758D01*
X023782Y005719D01*
X023780Y005680D01*
X023782Y005641D01*
X023788Y005602D01*
X023797Y005564D01*
X023810Y005527D01*
X023827Y005491D01*
X023847Y005458D01*
X023871Y005426D01*
X023897Y005397D01*
X023926Y005371D01*
X023958Y005347D01*
X023991Y005327D01*
X024027Y005310D01*
X024064Y005297D01*
X024102Y005288D01*
X024141Y005282D01*
X024180Y005280D01*
X015680Y004330D02*
X015680Y007030D01*
X015678Y007047D01*
X015674Y007064D01*
X015667Y007080D01*
X015657Y007094D01*
X015644Y007107D01*
X015630Y007117D01*
X015614Y007124D01*
X015597Y007128D01*
X015580Y007130D01*
X014780Y007130D01*
X014763Y007128D01*
X014746Y007124D01*
X014730Y007117D01*
X014716Y007107D01*
X014703Y007094D01*
X014693Y007080D01*
X014686Y007064D01*
X014682Y007047D01*
X014680Y007030D01*
X014680Y004330D01*
X014682Y004313D01*
X014686Y004296D01*
X014693Y004280D01*
X014703Y004266D01*
X014716Y004253D01*
X014730Y004243D01*
X014746Y004236D01*
X014763Y004232D01*
X014780Y004230D01*
X015580Y004230D01*
X015597Y004232D01*
X015614Y004236D01*
X015630Y004243D01*
X015644Y004253D01*
X015657Y004266D01*
X015667Y004280D01*
X015674Y004296D01*
X015678Y004313D01*
X015680Y004330D01*
X015180Y005080D02*
X015180Y005560D01*
X015180Y005810D02*
X015180Y006280D01*
X011180Y006080D02*
X011180Y006830D01*
X003180Y006830D01*
X003180Y004530D01*
X011180Y004530D01*
X011180Y005280D01*
X011141Y005282D01*
X011102Y005288D01*
X011064Y005297D01*
X011027Y005310D01*
X010991Y005327D01*
X010958Y005347D01*
X010926Y005371D01*
X010897Y005397D01*
X010871Y005426D01*
X010847Y005458D01*
X010827Y005491D01*
X010810Y005527D01*
X010797Y005564D01*
X010788Y005602D01*
X010782Y005641D01*
X010780Y005680D01*
X010782Y005719D01*
X010788Y005758D01*
X010797Y005796D01*
X010810Y005833D01*
X010827Y005869D01*
X010847Y005902D01*
X010871Y005934D01*
X010897Y005963D01*
X010926Y005989D01*
X010958Y006013D01*
X010991Y006033D01*
X011027Y006050D01*
X011064Y006063D01*
X011102Y006072D01*
X011141Y006078D01*
X011180Y006080D01*
X002680Y007030D02*
X002680Y004330D01*
X002678Y004313D01*
X002674Y004296D01*
X002667Y004280D01*
X002657Y004266D01*
X002644Y004253D01*
X002630Y004243D01*
X002614Y004236D01*
X002597Y004232D01*
X002580Y004230D01*
X001780Y004230D01*
X001763Y004232D01*
X001746Y004236D01*
X001730Y004243D01*
X001716Y004253D01*
X001703Y004266D01*
X001693Y004280D01*
X001686Y004296D01*
X001682Y004313D01*
X001680Y004330D01*
X001680Y007030D01*
X001682Y007047D01*
X001686Y007064D01*
X001693Y007080D01*
X001703Y007094D01*
X001716Y007107D01*
X001730Y007117D01*
X001746Y007124D01*
X001763Y007128D01*
X001780Y007130D01*
X002580Y007130D01*
X002597Y007128D01*
X002614Y007124D01*
X002630Y007117D01*
X002644Y007107D01*
X002657Y007094D01*
X002667Y007080D01*
X002674Y007064D01*
X002678Y007047D01*
X002680Y007030D01*
X002180Y006280D02*
X002180Y005810D01*
X002180Y005560D02*
X002180Y005080D01*
X010830Y014180D02*
X012530Y014180D01*
X012547Y014182D01*
X012564Y014186D01*
X012580Y014193D01*
X012594Y014203D01*
X012607Y014216D01*
X012617Y014230D01*
X012624Y014246D01*
X012628Y014263D01*
X012630Y014280D01*
X012630Y015080D01*
X012628Y015097D01*
X012624Y015114D01*
X012617Y015130D01*
X012607Y015144D01*
X012594Y015157D01*
X012580Y015167D01*
X012564Y015174D01*
X012547Y015178D01*
X012530Y015180D01*
X010830Y015180D01*
X010813Y015178D01*
X010796Y015174D01*
X010780Y015167D01*
X010766Y015157D01*
X010753Y015144D01*
X010743Y015130D01*
X010736Y015114D01*
X010732Y015097D01*
X010730Y015080D01*
X010730Y014280D01*
X010732Y014263D01*
X010736Y014246D01*
X010743Y014230D01*
X010753Y014216D01*
X010766Y014203D01*
X010780Y014193D01*
X010796Y014186D01*
X010813Y014182D01*
X010830Y014180D01*
X011530Y014680D02*
X011580Y014680D01*
X011780Y014680D02*
X011830Y014680D01*
X008330Y017680D02*
X006030Y017680D01*
X006030Y020680D01*
X006780Y020680D01*
X006782Y020641D01*
X006788Y020602D01*
X006797Y020564D01*
X006810Y020527D01*
X006827Y020491D01*
X006847Y020458D01*
X006871Y020426D01*
X006897Y020397D01*
X006926Y020371D01*
X006958Y020347D01*
X006991Y020327D01*
X007027Y020310D01*
X007064Y020297D01*
X007102Y020288D01*
X007141Y020282D01*
X007180Y020280D01*
X007219Y020282D01*
X007258Y020288D01*
X007296Y020297D01*
X007333Y020310D01*
X007369Y020327D01*
X007402Y020347D01*
X007434Y020371D01*
X007463Y020397D01*
X007489Y020426D01*
X007513Y020458D01*
X007533Y020491D01*
X007550Y020527D01*
X007563Y020564D01*
X007572Y020602D01*
X007578Y020641D01*
X007580Y020680D01*
X008330Y020680D01*
X008330Y017680D01*
X010680Y018180D02*
X010930Y018430D01*
X010680Y018180D02*
X011680Y018180D01*
X011680Y019180D01*
X018680Y019180D01*
X018680Y018180D01*
X011680Y018180D01*
X011430Y018430D01*
X010680Y018180D02*
X010680Y019180D01*
X011680Y019180D01*
X011430Y018930D01*
X010930Y018930D02*
X010680Y019180D01*
X011930Y019830D02*
X011930Y020530D01*
X011932Y020547D01*
X011936Y020564D01*
X011943Y020580D01*
X011953Y020594D01*
X011966Y020607D01*
X011980Y020617D01*
X011996Y020624D01*
X012013Y020628D01*
X012030Y020630D01*
X012180Y020630D01*
X012230Y020580D01*
X014130Y020580D01*
X014180Y020630D01*
X014330Y020630D01*
X014347Y020628D01*
X014364Y020624D01*
X014380Y020617D01*
X014394Y020607D01*
X014407Y020594D01*
X014417Y020580D01*
X014424Y020564D01*
X014428Y020547D01*
X014430Y020530D01*
X014430Y019830D01*
X014428Y019813D01*
X014424Y019796D01*
X014417Y019780D01*
X014407Y019766D01*
X014394Y019753D01*
X014380Y019743D01*
X014364Y019736D01*
X014347Y019732D01*
X014330Y019730D01*
X014180Y019730D01*
X014130Y019780D01*
X012230Y019780D01*
X012180Y019730D01*
X012030Y019730D01*
X012013Y019732D01*
X011996Y019736D01*
X011980Y019743D01*
X011966Y019753D01*
X011953Y019766D01*
X011943Y019780D01*
X011936Y019796D01*
X011932Y019813D01*
X011930Y019830D01*
X023730Y015080D02*
X023730Y014280D01*
X023732Y014263D01*
X023736Y014246D01*
X023743Y014230D01*
X023753Y014216D01*
X023766Y014203D01*
X023780Y014193D01*
X023796Y014186D01*
X023813Y014182D01*
X023830Y014180D01*
X025530Y014180D01*
X025547Y014182D01*
X025564Y014186D01*
X025580Y014193D01*
X025594Y014203D01*
X025607Y014216D01*
X025617Y014230D01*
X025624Y014246D01*
X025628Y014263D01*
X025630Y014280D01*
X025630Y015080D01*
X025628Y015097D01*
X025624Y015114D01*
X025617Y015130D01*
X025607Y015144D01*
X025594Y015157D01*
X025580Y015167D01*
X025564Y015174D01*
X025547Y015178D01*
X025530Y015180D01*
X023830Y015180D01*
X023813Y015178D01*
X023796Y015174D01*
X023780Y015167D01*
X023766Y015157D01*
X023753Y015144D01*
X023743Y015130D01*
X023736Y015114D01*
X023732Y015097D01*
X023730Y015080D01*
X024530Y014680D02*
X024580Y014680D01*
X024780Y014680D02*
X024830Y014680D01*
X039730Y015080D02*
X039730Y014280D01*
X039732Y014263D01*
X039736Y014246D01*
X039743Y014230D01*
X039753Y014216D01*
X039766Y014203D01*
X039780Y014193D01*
X039796Y014186D01*
X039813Y014182D01*
X039830Y014180D01*
X041530Y014180D01*
X041547Y014182D01*
X041564Y014186D01*
X041580Y014193D01*
X041594Y014203D01*
X041607Y014216D01*
X041617Y014230D01*
X041624Y014246D01*
X041628Y014263D01*
X041630Y014280D01*
X041630Y015080D01*
X041628Y015097D01*
X041624Y015114D01*
X041617Y015130D01*
X041607Y015144D01*
X041594Y015157D01*
X041580Y015167D01*
X041564Y015174D01*
X041547Y015178D01*
X041530Y015180D01*
X039830Y015180D01*
X039813Y015178D01*
X039796Y015174D01*
X039780Y015167D01*
X039766Y015157D01*
X039753Y015144D01*
X039743Y015130D01*
X039736Y015114D01*
X039732Y015097D01*
X039730Y015080D01*
X040530Y014680D02*
X040580Y014680D01*
X040780Y014680D02*
X040830Y014680D01*
X052730Y015080D02*
X052730Y014280D01*
X052732Y014263D01*
X052736Y014246D01*
X052743Y014230D01*
X052753Y014216D01*
X052766Y014203D01*
X052780Y014193D01*
X052796Y014186D01*
X052813Y014182D01*
X052830Y014180D01*
X054530Y014180D01*
X054547Y014182D01*
X054564Y014186D01*
X054580Y014193D01*
X054594Y014203D01*
X054607Y014216D01*
X054617Y014230D01*
X054624Y014246D01*
X054628Y014263D01*
X054630Y014280D01*
X054630Y015080D01*
X054628Y015097D01*
X054624Y015114D01*
X054617Y015130D01*
X054607Y015144D01*
X054594Y015157D01*
X054580Y015167D01*
X054564Y015174D01*
X054547Y015178D01*
X054530Y015180D01*
X052830Y015180D01*
X052813Y015178D01*
X052796Y015174D01*
X052780Y015167D01*
X052766Y015157D01*
X052753Y015144D01*
X052743Y015130D01*
X052736Y015114D01*
X052732Y015097D01*
X052730Y015080D01*
X053530Y014680D02*
X053580Y014680D01*
X053780Y014680D02*
X053830Y014680D01*
X068730Y015080D02*
X068730Y014280D01*
X068732Y014263D01*
X068736Y014246D01*
X068743Y014230D01*
X068753Y014216D01*
X068766Y014203D01*
X068780Y014193D01*
X068796Y014186D01*
X068813Y014182D01*
X068830Y014180D01*
X070530Y014180D01*
X070547Y014182D01*
X070564Y014186D01*
X070580Y014193D01*
X070594Y014203D01*
X070607Y014216D01*
X070617Y014230D01*
X070624Y014246D01*
X070628Y014263D01*
X070630Y014280D01*
X070630Y015080D01*
X070628Y015097D01*
X070624Y015114D01*
X070617Y015130D01*
X070607Y015144D01*
X070594Y015157D01*
X070580Y015167D01*
X070564Y015174D01*
X070547Y015178D01*
X070530Y015180D01*
X068830Y015180D01*
X068813Y015178D01*
X068796Y015174D01*
X068780Y015167D01*
X068766Y015157D01*
X068753Y015144D01*
X068743Y015130D01*
X068736Y015114D01*
X068732Y015097D01*
X068730Y015080D01*
X069530Y014680D02*
X069580Y014680D01*
X069780Y014680D02*
X069830Y014680D01*
X081730Y015080D02*
X081730Y014280D01*
X081732Y014263D01*
X081736Y014246D01*
X081743Y014230D01*
X081753Y014216D01*
X081766Y014203D01*
X081780Y014193D01*
X081796Y014186D01*
X081813Y014182D01*
X081830Y014180D01*
X083530Y014180D01*
X083547Y014182D01*
X083564Y014186D01*
X083580Y014193D01*
X083594Y014203D01*
X083607Y014216D01*
X083617Y014230D01*
X083624Y014246D01*
X083628Y014263D01*
X083630Y014280D01*
X083630Y015080D01*
X083628Y015097D01*
X083624Y015114D01*
X083617Y015130D01*
X083607Y015144D01*
X083594Y015157D01*
X083580Y015167D01*
X083564Y015174D01*
X083547Y015178D01*
X083530Y015180D01*
X081830Y015180D01*
X081813Y015178D01*
X081796Y015174D01*
X081780Y015167D01*
X081766Y015157D01*
X081753Y015144D01*
X081743Y015130D01*
X081736Y015114D01*
X081732Y015097D01*
X081730Y015080D01*
X082530Y014680D02*
X082580Y014680D01*
X082780Y014680D02*
X082830Y014680D01*
X072180Y018780D02*
X072080Y018680D01*
X071280Y018680D01*
X071180Y018780D01*
X071180Y019580D01*
X071280Y019680D01*
X071180Y019780D01*
X071180Y020580D01*
X071280Y020680D01*
X072080Y020680D01*
X072180Y020580D01*
X072180Y019780D01*
X072080Y019680D01*
X072180Y019580D01*
X072180Y018780D01*
X074430Y019830D02*
X074430Y020530D01*
X074432Y020547D01*
X074436Y020564D01*
X074443Y020580D01*
X074453Y020594D01*
X074466Y020607D01*
X074480Y020617D01*
X074496Y020624D01*
X074513Y020628D01*
X074530Y020630D01*
X074680Y020630D01*
X074730Y020580D01*
X076630Y020580D01*
X076680Y020630D01*
X076830Y020630D01*
X076847Y020628D01*
X076864Y020624D01*
X076880Y020617D01*
X076894Y020607D01*
X076907Y020594D01*
X076917Y020580D01*
X076924Y020564D01*
X076928Y020547D01*
X076930Y020530D01*
X076930Y019830D01*
X076928Y019813D01*
X076924Y019796D01*
X076917Y019780D01*
X076907Y019766D01*
X076894Y019753D01*
X076880Y019743D01*
X076864Y019736D01*
X076847Y019732D01*
X076830Y019730D01*
X076680Y019730D01*
X076630Y019780D01*
X074730Y019780D01*
X074680Y019730D01*
X074530Y019730D01*
X074513Y019732D01*
X074496Y019736D01*
X074480Y019743D01*
X074466Y019753D01*
X074453Y019766D01*
X074443Y019780D01*
X074436Y019796D01*
X074432Y019813D01*
X074430Y019830D01*
D12*
X076107Y020805D02*
X076402Y020805D01*
X076107Y021100D01*
X076107Y021174D01*
X076181Y021248D01*
X076328Y021248D01*
X076402Y021174D01*
X076560Y021174D02*
X076560Y021026D01*
X076634Y020953D01*
X076855Y020953D01*
X076707Y020953D02*
X076560Y020805D01*
X076855Y020805D02*
X076855Y021248D01*
X076634Y021248D01*
X076560Y021174D01*
X072155Y020929D02*
X072081Y020855D01*
X072007Y020855D01*
X071934Y020929D01*
X071934Y021298D01*
X072007Y021298D02*
X071860Y021298D01*
X071702Y021298D02*
X071481Y021298D01*
X071407Y021224D01*
X071407Y021076D01*
X071481Y021003D01*
X071702Y021003D01*
X071702Y020855D02*
X071702Y021298D01*
X071249Y021224D02*
X071175Y021298D01*
X071027Y021298D01*
X070954Y021224D01*
X070954Y021150D01*
X071249Y020855D01*
X070954Y020855D01*
X070481Y015748D02*
X070555Y015674D01*
X070555Y015379D01*
X070481Y015305D01*
X070334Y015305D01*
X070260Y015379D01*
X070102Y015379D02*
X070028Y015305D01*
X069881Y015305D01*
X069807Y015379D01*
X069807Y015526D01*
X069881Y015600D01*
X069954Y015600D01*
X070102Y015526D01*
X070102Y015748D01*
X069807Y015748D01*
X070260Y015674D02*
X070334Y015748D01*
X070481Y015748D01*
X082807Y015748D02*
X082954Y015674D01*
X083102Y015526D01*
X082881Y015526D01*
X082807Y015453D01*
X082807Y015379D01*
X082881Y015305D01*
X083028Y015305D01*
X083102Y015379D01*
X083102Y015526D01*
X083260Y015379D02*
X083334Y015305D01*
X083481Y015305D01*
X083555Y015379D01*
X083555Y015674D01*
X083481Y015748D01*
X083334Y015748D01*
X083260Y015674D01*
X054555Y015674D02*
X054555Y015379D01*
X054481Y015305D01*
X054334Y015305D01*
X054260Y015379D01*
X054102Y015526D02*
X053807Y015526D01*
X053881Y015305D02*
X053881Y015748D01*
X054102Y015526D01*
X054260Y015674D02*
X054334Y015748D01*
X054481Y015748D01*
X054555Y015674D01*
X041555Y015674D02*
X041555Y015379D01*
X041481Y015305D01*
X041334Y015305D01*
X041260Y015379D01*
X041102Y015379D02*
X041028Y015305D01*
X040881Y015305D01*
X040807Y015379D01*
X040807Y015453D01*
X040881Y015526D01*
X040954Y015526D01*
X040881Y015526D02*
X040807Y015600D01*
X040807Y015674D01*
X040881Y015748D01*
X041028Y015748D01*
X041102Y015674D01*
X041260Y015674D02*
X041334Y015748D01*
X041481Y015748D01*
X041555Y015674D01*
X025555Y015674D02*
X025555Y015379D01*
X025481Y015305D01*
X025334Y015305D01*
X025260Y015379D01*
X025102Y015305D02*
X024807Y015600D01*
X024807Y015674D01*
X024881Y015748D01*
X025028Y015748D01*
X025102Y015674D01*
X025260Y015674D02*
X025334Y015748D01*
X025481Y015748D01*
X025555Y015674D01*
X025102Y015305D02*
X024807Y015305D01*
X012555Y015379D02*
X012481Y015305D01*
X012334Y015305D01*
X012260Y015379D01*
X012102Y015305D02*
X011807Y015305D01*
X011954Y015305D02*
X011954Y015748D01*
X012102Y015600D01*
X012260Y015674D02*
X012334Y015748D01*
X012481Y015748D01*
X012555Y015674D01*
X012555Y015379D01*
X017313Y019463D02*
X017608Y019463D01*
X017461Y019463D02*
X017461Y019905D01*
X017608Y019758D01*
X017766Y019905D02*
X017766Y019463D01*
X018061Y019905D01*
X018061Y019463D01*
X018219Y019463D02*
X018367Y019610D01*
X018293Y019610D02*
X018514Y019610D01*
X018514Y019463D02*
X018514Y019905D01*
X018293Y019905D01*
X018219Y019832D01*
X018219Y019684D01*
X018293Y019610D01*
X014361Y020738D02*
X014361Y021180D01*
X014140Y021180D01*
X014066Y021107D01*
X014066Y020959D01*
X014140Y020885D01*
X014361Y020885D01*
X014214Y020885D02*
X014066Y020738D01*
X013908Y020738D02*
X013613Y020738D01*
X013761Y020738D02*
X013761Y021180D01*
X013908Y021033D01*
X008305Y021174D02*
X008305Y020879D01*
X008231Y020805D01*
X008084Y020805D01*
X008010Y020879D01*
X008010Y021174D01*
X008084Y021248D01*
X008231Y021248D01*
X008305Y021174D01*
X007852Y021248D02*
X007852Y020805D01*
X007852Y020953D02*
X007557Y021248D01*
X007399Y021100D02*
X007251Y021248D01*
X007251Y020805D01*
X007104Y020805D02*
X007399Y020805D01*
X007557Y020805D02*
X007778Y021026D01*
X002556Y007798D02*
X002630Y007724D01*
X002630Y007429D01*
X002556Y007355D01*
X002409Y007355D01*
X002335Y007429D01*
X002177Y007429D02*
X002177Y007355D01*
X002177Y007429D02*
X001882Y007724D01*
X001882Y007798D01*
X002177Y007798D01*
X002335Y007724D02*
X002409Y007798D01*
X002556Y007798D01*
X011255Y006355D02*
X011550Y006355D01*
X011402Y006355D02*
X011402Y006798D01*
X011550Y006650D01*
X011708Y006724D02*
X011782Y006798D01*
X011929Y006798D01*
X012003Y006724D01*
X012003Y006429D01*
X011929Y006355D01*
X011782Y006355D01*
X011708Y006429D01*
X012157Y006355D02*
X012305Y006355D01*
X012231Y006355D02*
X012231Y006798D01*
X012305Y006798D02*
X012157Y006798D01*
X014882Y007429D02*
X014956Y007355D01*
X015103Y007355D01*
X015177Y007429D01*
X015177Y007503D01*
X015103Y007576D01*
X014956Y007576D01*
X014882Y007503D01*
X014882Y007429D01*
X014956Y007576D02*
X014882Y007650D01*
X014882Y007724D01*
X014956Y007798D01*
X015103Y007798D01*
X015177Y007724D01*
X015177Y007650D01*
X015103Y007576D01*
X015335Y007429D02*
X015409Y007355D01*
X015556Y007355D01*
X015630Y007429D01*
X015630Y007724D01*
X015556Y007798D01*
X015409Y007798D01*
X015335Y007724D01*
X024255Y006724D02*
X024255Y006650D01*
X024550Y006355D01*
X024255Y006355D01*
X024708Y006429D02*
X024782Y006355D01*
X024929Y006355D01*
X025003Y006429D01*
X025003Y006724D01*
X024929Y006798D01*
X024782Y006798D01*
X024708Y006724D01*
X024550Y006724D02*
X024476Y006798D01*
X024329Y006798D01*
X024255Y006724D01*
X025157Y006798D02*
X025305Y006798D01*
X025231Y006798D02*
X025231Y006355D01*
X025305Y006355D02*
X025157Y006355D01*
X030882Y007429D02*
X030956Y007355D01*
X031103Y007355D01*
X031177Y007429D01*
X031335Y007429D02*
X031409Y007355D01*
X031556Y007355D01*
X031630Y007429D01*
X031630Y007724D01*
X031556Y007798D01*
X031409Y007798D01*
X031335Y007724D01*
X031177Y007724D02*
X031177Y007650D01*
X031103Y007576D01*
X030882Y007576D01*
X030882Y007429D02*
X030882Y007724D01*
X030956Y007798D01*
X031103Y007798D01*
X031177Y007724D01*
X040255Y006724D02*
X040255Y006650D01*
X040329Y006576D01*
X040255Y006503D01*
X040255Y006429D01*
X040329Y006355D01*
X040476Y006355D01*
X040550Y006429D01*
X040708Y006429D02*
X040782Y006355D01*
X040929Y006355D01*
X041003Y006429D01*
X041003Y006724D01*
X040929Y006798D01*
X040782Y006798D01*
X040708Y006724D01*
X040550Y006724D02*
X040476Y006798D01*
X040329Y006798D01*
X040255Y006724D01*
X040329Y006576D02*
X040402Y006576D01*
X041157Y006355D02*
X041305Y006355D01*
X041231Y006355D02*
X041231Y006798D01*
X041305Y006798D02*
X041157Y006798D01*
X043429Y007429D02*
X043502Y007355D01*
X043650Y007355D01*
X043724Y007429D01*
X043429Y007724D01*
X043429Y007429D01*
X043724Y007429D02*
X043724Y007724D01*
X043650Y007798D01*
X043502Y007798D01*
X043429Y007724D01*
X044029Y007798D02*
X044029Y007355D01*
X043882Y007355D02*
X044177Y007355D01*
X044335Y007429D02*
X044409Y007355D01*
X044556Y007355D01*
X044630Y007429D01*
X044630Y007724D01*
X044556Y007798D01*
X044409Y007798D01*
X044335Y007724D01*
X044177Y007650D02*
X044029Y007798D01*
X053255Y006576D02*
X053550Y006576D01*
X053329Y006798D01*
X053329Y006355D01*
X053708Y006429D02*
X053782Y006355D01*
X053929Y006355D01*
X054003Y006429D01*
X054003Y006724D01*
X053929Y006798D01*
X053782Y006798D01*
X053708Y006724D01*
X054157Y006798D02*
X054305Y006798D01*
X054231Y006798D02*
X054231Y006355D01*
X054305Y006355D02*
X054157Y006355D01*
X059429Y007355D02*
X059724Y007355D01*
X059576Y007355D02*
X059576Y007798D01*
X059724Y007650D01*
X060029Y007798D02*
X060029Y007355D01*
X059882Y007355D02*
X060177Y007355D01*
X060335Y007429D02*
X060409Y007355D01*
X060556Y007355D01*
X060630Y007429D01*
X060630Y007724D01*
X060556Y007798D01*
X060409Y007798D01*
X060335Y007724D01*
X060177Y007650D02*
X060029Y007798D01*
X069255Y006798D02*
X069550Y006798D01*
X069550Y006576D01*
X069402Y006650D01*
X069329Y006650D01*
X069255Y006576D01*
X069255Y006429D01*
X069329Y006355D01*
X069476Y006355D01*
X069550Y006429D01*
X069708Y006429D02*
X069782Y006355D01*
X069929Y006355D01*
X070003Y006429D01*
X070003Y006724D01*
X069929Y006798D01*
X069782Y006798D01*
X069708Y006724D01*
X070157Y006798D02*
X070305Y006798D01*
X070231Y006798D02*
X070231Y006355D01*
X070305Y006355D02*
X070157Y006355D01*
X072429Y007355D02*
X072724Y007355D01*
X072429Y007650D01*
X072429Y007724D01*
X072502Y007798D01*
X072650Y007798D01*
X072724Y007724D01*
X073029Y007798D02*
X073029Y007355D01*
X072882Y007355D02*
X073177Y007355D01*
X073335Y007429D02*
X073409Y007355D01*
X073556Y007355D01*
X073630Y007429D01*
X073630Y007724D01*
X073556Y007798D01*
X073409Y007798D01*
X073335Y007724D01*
X073177Y007650D02*
X073029Y007798D01*
X082255Y006798D02*
X082402Y006724D01*
X082550Y006576D01*
X082329Y006576D01*
X082255Y006503D01*
X082255Y006429D01*
X082329Y006355D01*
X082476Y006355D01*
X082550Y006429D01*
X082550Y006576D01*
X082708Y006429D02*
X082782Y006355D01*
X082929Y006355D01*
X083003Y006429D01*
X083003Y006724D01*
X082929Y006798D01*
X082782Y006798D01*
X082708Y006724D01*
X083157Y006798D02*
X083305Y006798D01*
X083231Y006798D02*
X083231Y006355D01*
X083305Y006355D02*
X083157Y006355D01*
D13*
X077100Y020180D03*
X074260Y020180D03*
X014600Y020180D03*
X011760Y020180D03*
D14*
X011780Y014980D02*
X011780Y014680D01*
X011780Y014380D01*
X011580Y014380D02*
X011580Y014680D01*
X011580Y014980D01*
X024580Y014980D02*
X024580Y014680D01*
X024580Y014380D01*
X024780Y014380D02*
X024780Y014680D01*
X024780Y014980D01*
X040580Y014980D02*
X040580Y014680D01*
X040580Y014380D01*
X040780Y014380D02*
X040780Y014680D01*
X040780Y014980D01*
X053580Y014980D02*
X053580Y014680D01*
X053580Y014380D01*
X053780Y014380D02*
X053780Y014680D01*
X053780Y014980D01*
X069580Y014980D02*
X069580Y014680D01*
X069580Y014380D01*
X069780Y014380D02*
X069780Y014680D01*
X069780Y014980D01*
X082580Y014980D02*
X082580Y014680D01*
X082580Y014380D01*
X082780Y014380D02*
X082780Y014680D01*
X082780Y014980D01*
D15*
X073430Y005810D02*
X073180Y005810D01*
X072930Y005810D01*
X072930Y005560D02*
X073180Y005560D01*
X073430Y005560D01*
X060430Y005560D02*
X060180Y005560D01*
X059930Y005560D01*
X059930Y005810D02*
X060180Y005810D01*
X060430Y005810D01*
X044430Y005810D02*
X044180Y005810D01*
X043930Y005810D01*
X043930Y005560D02*
X044180Y005560D01*
X044430Y005560D01*
X031430Y005560D02*
X031180Y005560D01*
X030930Y005560D01*
X030930Y005810D02*
X031180Y005810D01*
X031430Y005810D01*
X015430Y005810D02*
X015180Y005810D01*
X014930Y005810D01*
X014930Y005560D02*
X015180Y005560D01*
X015430Y005560D01*
X002430Y005560D02*
X002180Y005560D01*
X001930Y005560D01*
X001930Y005810D02*
X002180Y005810D01*
X002430Y005810D01*
M02*
