G75*
G70*
%OFA0B0*%
%FSLAX24Y24*%
%IPPOS*%
%LPD*%
%AMOC8*
5,1,8,0,0,1.08239X$1,22.5*
%
%ADD10C,0.0840*%
%ADD11C,0.1740*%
%ADD12C,0.1582*%
%ADD13C,0.0600*%
%ADD14C,0.0600*%
%ADD15OC8,0.0600*%
%ADD16C,0.0785*%
%ADD17C,0.1080*%
%ADD18OC8,0.1080*%
%ADD19OC8,0.0780*%
%ADD20R,0.1640X0.1640*%
%ADD21C,0.1330*%
%ADD22C,0.0680*%
%ADD23C,0.0966*%
%ADD24C,0.0671*%
%ADD25OC8,0.0680*%
%ADD26C,0.0680*%
%ADD27OC8,0.0710*%
%ADD28C,0.0710*%
%ADD29C,0.0830*%
%ADD30OC8,0.0830*%
%ADD31C,0.0640*%
%ADD32C,0.1182*%
%ADD33C,0.0611*%
%ADD34C,0.0480*%
D10*
X006725Y002500D03*
X006725Y006500D03*
X022475Y005500D03*
X026475Y005500D03*
D11*
X009975Y005854D03*
D12*
X011865Y004732D03*
X009975Y003394D03*
D13*
X005125Y006500D03*
X031725Y010500D03*
X031725Y012500D03*
X017475Y018500D03*
X017475Y019500D03*
D14*
X018465Y019500D02*
X018985Y019500D01*
X021465Y019500D02*
X021985Y019500D01*
X023465Y019500D02*
X023985Y019500D01*
X026465Y019500D02*
X026985Y019500D01*
X026985Y018500D02*
X026465Y018500D01*
X023985Y018500D02*
X023465Y018500D01*
X021985Y018500D02*
X021465Y018500D01*
X018985Y018500D02*
X018465Y018500D01*
X018465Y017500D02*
X018985Y017500D01*
X021465Y017500D02*
X021985Y017500D01*
X023465Y017500D02*
X023985Y017500D01*
X026465Y017500D02*
X026985Y017500D01*
X026985Y016500D02*
X026465Y016500D01*
X023985Y016500D02*
X023465Y016500D01*
X021985Y016500D02*
X021465Y016500D01*
X018985Y016500D02*
X018465Y016500D01*
X006225Y014760D02*
X006225Y014240D01*
X005225Y014240D02*
X005225Y014760D01*
X004225Y014760D02*
X004225Y014240D01*
X007475Y011510D02*
X007475Y010990D01*
X008475Y010990D02*
X008475Y011510D01*
X009475Y011510D02*
X009475Y010990D01*
X010475Y010990D02*
X010475Y011510D01*
X010475Y008510D02*
X010475Y007990D01*
X009475Y007990D02*
X009475Y008510D01*
X008475Y008510D02*
X008475Y007990D01*
X007475Y007990D02*
X007475Y008510D01*
X014215Y007250D02*
X014735Y007250D01*
X017215Y007250D02*
X017735Y007250D01*
X034965Y008000D02*
X035485Y008000D01*
X037965Y008000D02*
X038485Y008000D01*
X038485Y009000D02*
X037965Y009000D01*
X035485Y009000D02*
X034965Y009000D01*
X034965Y010000D02*
X035485Y010000D01*
X037965Y010000D02*
X038485Y010000D01*
X038485Y011000D02*
X037965Y011000D01*
X035485Y011000D02*
X034965Y011000D01*
X034965Y012000D02*
X035485Y012000D01*
X037965Y012000D02*
X038485Y012000D01*
X038485Y013000D02*
X037965Y013000D01*
X035485Y013000D02*
X034965Y013000D01*
X034965Y014000D02*
X035485Y014000D01*
X037965Y014000D02*
X038485Y014000D01*
X038485Y015000D02*
X037965Y015000D01*
X035485Y015000D02*
X034965Y015000D01*
X034965Y016000D02*
X035485Y016000D01*
X037965Y016000D02*
X038485Y016000D01*
X038485Y017000D02*
X037965Y017000D01*
X035485Y017000D02*
X034965Y017000D01*
X034965Y018000D02*
X035485Y018000D01*
X037965Y018000D02*
X038485Y018000D01*
X038485Y019000D02*
X037965Y019000D01*
X035485Y019000D02*
X034965Y019000D01*
X034965Y020000D02*
X035485Y020000D01*
X037965Y020000D02*
X038485Y020000D01*
X038485Y021000D02*
X037965Y021000D01*
X035485Y021000D02*
X034965Y021000D01*
X045725Y017760D02*
X045725Y017240D01*
X046725Y017240D02*
X046725Y017760D01*
X047725Y017760D02*
X047725Y017240D01*
X048725Y017240D02*
X048725Y017760D01*
X049725Y017760D02*
X049725Y017240D01*
X050725Y017240D02*
X050725Y017760D01*
X051725Y017760D02*
X051725Y017240D01*
X052725Y017240D02*
X052725Y017760D01*
X053725Y017760D02*
X053725Y017240D01*
X053725Y014760D02*
X053725Y014240D01*
X052725Y014240D02*
X052725Y014760D01*
X051725Y014760D02*
X051725Y014240D01*
X050725Y014240D02*
X050725Y014760D01*
X049725Y014760D02*
X049725Y014240D01*
X048725Y014240D02*
X048725Y014760D01*
X047725Y014760D02*
X047725Y014240D01*
X046725Y014240D02*
X046725Y014760D01*
X045725Y014760D02*
X045725Y014240D01*
X053225Y012260D02*
X053225Y011740D01*
X054225Y011740D02*
X054225Y012260D01*
X055225Y012260D02*
X055225Y011740D01*
X056225Y011740D02*
X056225Y012260D01*
X057225Y012260D02*
X057225Y011740D01*
X058225Y011740D02*
X058225Y012260D01*
X059225Y012260D02*
X059225Y011740D01*
X060225Y011740D02*
X060225Y012260D01*
X061225Y012260D02*
X061225Y011740D01*
X061225Y009260D02*
X061225Y008740D01*
X060225Y008740D02*
X060225Y009260D01*
X059225Y009260D02*
X059225Y008740D01*
X058225Y008740D02*
X058225Y009260D01*
X057225Y009260D02*
X057225Y008740D01*
X056225Y008740D02*
X056225Y009260D01*
X055225Y009260D02*
X055225Y008740D01*
X054225Y008740D02*
X054225Y009260D01*
X053225Y009260D02*
X053225Y008740D01*
X053725Y006760D02*
X053725Y006240D01*
X054725Y006240D02*
X054725Y006760D01*
X055725Y006760D02*
X055725Y006240D01*
X056725Y006240D02*
X056725Y006760D01*
X057725Y006760D02*
X057725Y006240D01*
X058725Y006240D02*
X058725Y006760D01*
X059725Y006760D02*
X059725Y006240D01*
X060725Y006240D02*
X060725Y006760D01*
X061725Y006760D02*
X061725Y006240D01*
X061725Y003760D02*
X061725Y003240D01*
X060725Y003240D02*
X060725Y003760D01*
X059725Y003760D02*
X059725Y003240D01*
X058725Y003240D02*
X058725Y003760D01*
X057725Y003760D02*
X057725Y003240D01*
X056725Y003240D02*
X056725Y003760D01*
X055725Y003760D02*
X055725Y003240D01*
X054725Y003240D02*
X054725Y003760D01*
X053725Y003760D02*
X053725Y003240D01*
X075725Y002760D02*
X075725Y002240D01*
X076725Y002240D02*
X076725Y002760D01*
X077725Y002760D02*
X077725Y002240D01*
D15*
X072975Y002250D03*
X071475Y002250D03*
X069975Y002250D03*
X068475Y002250D03*
X068475Y006250D03*
X069975Y006250D03*
X071475Y006250D03*
X072975Y006250D03*
X071475Y008000D03*
X069975Y008000D03*
X068475Y008000D03*
X068475Y012000D03*
X069975Y012000D03*
X071475Y012000D03*
X070475Y013250D03*
X069975Y014000D03*
X070975Y014000D03*
X051725Y011500D03*
X049975Y011500D03*
X049975Y009500D03*
X051725Y009500D03*
X046725Y009000D03*
X045725Y009000D03*
X043725Y009000D03*
X039725Y009000D03*
X029975Y011000D03*
X028975Y011000D03*
X027475Y011000D03*
X022475Y009250D03*
X017975Y008750D03*
X013975Y008750D03*
X015225Y010500D03*
X015225Y012500D03*
X011725Y013000D03*
X007725Y013000D03*
X005975Y012250D03*
X004975Y012250D03*
X004225Y010750D03*
X005975Y010750D03*
X005975Y008750D03*
X004225Y008750D03*
X004325Y006500D03*
X015475Y005000D03*
X016475Y005000D03*
X015975Y005750D03*
X022475Y007250D03*
X036725Y006250D03*
X035225Y003000D03*
X034225Y003000D03*
X034725Y002250D03*
X036725Y002250D03*
X049975Y002250D03*
X052225Y004000D03*
X052225Y006000D03*
X049975Y006250D03*
X029975Y013000D03*
X028975Y013000D03*
X027475Y013000D03*
X028475Y016500D03*
X032475Y016500D03*
X032475Y018000D03*
X028475Y018000D03*
X028475Y019500D03*
X032475Y019500D03*
X032475Y021000D03*
X028475Y021000D03*
X026225Y021000D03*
X024225Y021000D03*
X021225Y021000D03*
X019225Y021000D03*
X011725Y016000D03*
X007725Y016000D03*
X007725Y014500D03*
X011725Y014500D03*
X044225Y015000D03*
X044225Y017000D03*
D16*
X012725Y011853D02*
X012725Y011148D01*
X012725Y007853D02*
X012725Y007148D01*
D17*
X029345Y003490D03*
X032105Y003490D03*
X040265Y002681D03*
X046265Y002681D03*
X015225Y014500D03*
D18*
X015225Y016500D03*
D19*
X029835Y002510D03*
X031615Y002510D03*
D20*
X008975Y019500D03*
D21*
X006375Y019500D03*
X011575Y019500D03*
D22*
X018385Y005050D02*
X018385Y004450D01*
X019725Y004450D02*
X019725Y005050D01*
X021065Y005050D02*
X021065Y004450D01*
X020395Y003410D02*
X020395Y002810D01*
X019055Y002810D02*
X019055Y003410D01*
X015725Y002800D02*
X015725Y002200D01*
X014725Y002200D02*
X014725Y002800D01*
X013725Y002800D02*
X013725Y002200D01*
X023725Y002200D02*
X023725Y002800D01*
X024725Y002800D02*
X024725Y002200D01*
X025725Y002200D02*
X025725Y002800D01*
D23*
X038257Y004650D03*
X039320Y004650D03*
X041210Y004650D03*
X042273Y004650D03*
X044257Y004650D03*
X045320Y004650D03*
X047210Y004650D03*
X048273Y004650D03*
D24*
X046265Y004650D03*
X040265Y004650D03*
X042233Y002681D03*
X044296Y002681D03*
X048233Y002681D03*
X038296Y002681D03*
D25*
X042725Y020000D03*
X043725Y020000D03*
X044725Y020000D03*
X045725Y020000D03*
X046725Y020000D03*
X047725Y020000D03*
X048725Y020000D03*
X049725Y020000D03*
X050725Y020000D03*
X051725Y020000D03*
X052725Y020000D03*
X053725Y020000D03*
X054725Y020000D03*
X055725Y020000D03*
X056725Y020000D03*
X057725Y020000D03*
X058725Y020000D03*
X059725Y020000D03*
X060725Y020000D03*
X061725Y020000D03*
X061725Y021000D03*
X060725Y021000D03*
X059725Y021000D03*
X058725Y021000D03*
X057725Y021000D03*
X056725Y021000D03*
X055725Y021000D03*
X054725Y021000D03*
X053725Y021000D03*
X052725Y021000D03*
X051725Y021000D03*
X050725Y021000D03*
X049725Y021000D03*
X048725Y021000D03*
X047725Y021000D03*
X046725Y021000D03*
X045725Y021000D03*
X044725Y021000D03*
X043725Y021000D03*
X042725Y021000D03*
D26*
X074395Y016874D03*
X074395Y016087D03*
X074395Y015299D03*
X074395Y014512D03*
X074395Y013724D03*
X074395Y012937D03*
X074395Y012150D03*
X074395Y011362D03*
X074395Y010575D03*
X074395Y009787D03*
X083056Y009787D03*
X083056Y010575D03*
X083056Y011362D03*
X083056Y012150D03*
X083056Y012937D03*
X083056Y013724D03*
X083056Y014512D03*
X083056Y015299D03*
X083056Y016087D03*
X083056Y016874D03*
D27*
X025725Y007750D03*
X018725Y013950D03*
D28*
X018725Y012550D03*
X025725Y008750D03*
D29*
X028225Y004500D03*
X066475Y004500D03*
X032475Y015000D03*
D30*
X030475Y015000D03*
X028225Y006500D03*
X064475Y004500D03*
D31*
X066195Y009250D02*
X066755Y009250D01*
X066755Y010250D02*
X066195Y010250D01*
D32*
X084975Y003250D03*
X084975Y020750D03*
X004475Y020750D03*
X004475Y003250D03*
D33*
X030475Y005500D03*
X024225Y013500D03*
X013975Y020750D03*
D34*
X036725Y018500D03*
X037225Y017500D03*
X037225Y014500D03*
X043725Y013000D03*
X044725Y014000D03*
X049725Y013000D03*
X048225Y012000D03*
X046725Y010500D03*
X045725Y010000D03*
X053725Y008000D03*
X056225Y005500D03*
X036975Y011500D03*
X052225Y016000D03*
X050225Y018500D03*
X049225Y019000D03*
M02*
