%
M48
M72
T01C0.0240
T02C0.0315
T03C0.0320
T04C0.0354
T05C0.0360
T06C0.0400
T07C0.0440
T08C0.0470
T09C0.0590
T10C0.0591
T11C0.0787
T12C0.1102
T13C0.1260
%
T01
X36975Y11500
X43725Y13000
X44725Y14000
X49725Y13000
X48225Y12000
X46725Y10500
X45725Y10000
X53725Y8000
X56225Y5500
X37225Y14500
X37225Y17500
X36725Y18500
X49225Y19000
X50225Y18500
X52225Y16000
T02
X74395Y16087
X74395Y16874
X74395Y15299
X74395Y14512
X74395Y13724
X74395Y12937
X74395Y12150
X74395Y11362
X74395Y10575
X74395Y9787
X83056Y9787
X83056Y10575
X83056Y11362
X83056Y12150
X83056Y12937
X83056Y13724
X83056Y14512
X83056Y15299
X83056Y16087
X83056Y16874
X8975Y19500
T03
X17475Y19500
X18725Y19500
X21725Y19500
X23725Y19500
X26725Y19500
X28475Y19500
X26725Y18500
X28475Y18000
X26725Y17500
X23725Y17500
X21725Y17500
X18725Y17500
X18725Y16500
X21725Y16500
X23725Y16500
X26725Y16500
X28475Y16500
X32475Y16500
X35225Y16000
X38225Y16000
X38225Y17000
X35225Y17000
X35225Y18000
X32475Y18000
X35225Y19000
X32475Y19500
X35225Y20000
X38225Y20000
X38225Y19000
X38225Y18000
X44225Y17000
X45725Y17500
X46725Y17500
X47725Y17500
X48725Y17500
X49725Y17500
X50725Y17500
X51725Y17500
X52725Y17500
X53725Y17500
X44225Y15000
X45725Y14500
X46725Y14500
X47725Y14500
X48725Y14500
X49725Y14500
X50725Y14500
X51725Y14500
X52725Y14500
X53725Y14500
X53225Y12000
X54225Y12000
X55225Y12000
X56225Y12000
X57225Y12000
X58225Y12000
X59225Y12000
X60225Y12000
X61225Y12000
X68475Y12000
X69975Y12000
X71475Y12000
X70475Y13250
X69975Y14000
X70975Y14000
X61225Y9000
X60225Y9000
X59225Y9000
X58225Y9000
X57225Y9000
X56225Y9000
X55225Y9000
X54225Y9000
X53225Y9000
X51725Y9500
X49975Y9500
X46725Y9000
X45725Y9000
X43725Y9000
X39725Y9000
X38225Y9000
X35225Y9000
X35225Y8000
X38225Y8000
X36725Y6250
X28225Y6500
X25725Y7750
X25725Y8750
X22475Y9250
X17975Y8750
X13975Y8750
X10475Y8250
X9475Y8250
X8475Y8250
X7475Y8250
X5975Y8750
X4225Y8750
X4225Y10750
X5975Y10750
X7475Y11250
X8475Y11250
X9475Y11250
X10475Y11250
X5975Y12250
X4975Y12250
X7725Y13000
X11725Y13000
X15225Y12500
X18725Y12550
X18725Y13950
X11725Y14500
X7725Y14500
X6225Y14500
X5225Y14500
X4225Y14500
X7725Y16000
X11725Y16000
X17475Y18500
X18725Y18500
X21725Y18500
X23725Y18500
X24225Y21000
X26225Y21000
X28475Y21000
X32475Y21000
X35225Y21000
X38225Y21000
X21225Y21000
X19225Y21000
X30475Y15000
X32475Y15000
X35225Y15000
X38225Y15000
X38225Y14000
X35225Y14000
X35225Y13000
X38225Y13000
X38225Y12000
X35225Y12000
X35225Y11000
X38225Y11000
X38225Y10000
X35225Y10000
X31725Y10500
X29975Y11000
X28975Y11000
X27475Y11000
X31725Y12500
X29975Y13000
X28975Y13000
X27475Y13000
X15225Y10500
X14475Y7250
X17475Y7250
X22475Y7250
X15975Y5750
X15475Y5000
X16475Y5000
X5125Y6500
X4325Y6500
X28225Y4500
X34225Y3000
X35225Y3000
X34725Y2250
X36725Y2250
X49975Y2250
X53725Y3500
X54725Y3500
X55725Y3500
X56725Y3500
X57725Y3500
X58725Y3500
X59725Y3500
X60725Y3500
X61725Y3500
X64475Y4500
X66475Y4500
X68475Y6250
X69975Y6250
X71475Y6250
X72975Y6250
X71475Y8000
X69975Y8000
X68475Y8000
X61725Y6500
X60725Y6500
X59725Y6500
X58725Y6500
X57725Y6500
X56725Y6500
X55725Y6500
X54725Y6500
X53725Y6500
X52225Y6000
X49975Y6250
X52225Y4000
X68475Y2250
X69975Y2250
X71475Y2250
X72975Y2250
X75725Y2500
X76725Y2500
X77725Y2500
X51725Y11500
X49975Y11500
T04
X30475Y5500
X24225Y13500
X13975Y20750
T05
X66475Y10250
X66475Y9250
T06
X31615Y2510
X29835Y2510
X25725Y2500
X24725Y2500
X23725Y2500
X20395Y3110
X19055Y3110
X15725Y2500
X14725Y2500
X13725Y2500
X18385Y4750
X19725Y4750
X21065Y4750
X15225Y14500
X15225Y16500
X42725Y20000
X43725Y20000
X44725Y20000
X45725Y20000
X46725Y20000
X47725Y20000
X48725Y20000
X49725Y20000
X50725Y20000
X51725Y20000
X52725Y20000
X53725Y20000
X54725Y20000
X55725Y20000
X56725Y20000
X57725Y20000
X58725Y20000
X59725Y20000
X60725Y20000
X61725Y20000
X61725Y21000
X60725Y21000
X59725Y21000
X58725Y21000
X57725Y21000
X56725Y21000
X55725Y21000
X54725Y21000
X53725Y21000
X52725Y21000
X51725Y21000
X50725Y21000
X49725Y21000
X48725Y21000
X47725Y21000
X46725Y21000
X45725Y21000
X44725Y21000
X43725Y21000
X42725Y21000
T07
X6725Y2500
X6725Y6500
X22475Y5500
X26475Y5500
T08
X12725Y7500
X12725Y11500
T09
X29345Y3490
X32105Y3490
T10
X38296Y2681
X40265Y2681
X42233Y2681
X44296Y2681
X46265Y2681
X48233Y2681
X48273Y4650
X47210Y4650
X46265Y4650
X45320Y4650
X44257Y4650
X42273Y4650
X41210Y4650
X40265Y4650
X39320Y4650
X38257Y4650
T11
X11575Y19500
X6375Y19500
T12
X4475Y20750
X11865Y4732
X9975Y3394
X4475Y3250
X84975Y3250
X84975Y20750
T13
X9975Y5854
M30
